<?xml version="1.0" standalone="no"?>
<!DOCTYPE svg PUBLIC "-//W3C//DTD SVG 1.1//EN" "http://www.w3.org/Graphics/SVG/1.1/DTD/svg11.dtd" >
<svg xmlns="http://www.w3.org/2000/svg" xmlns:xlink="http://www.w3.org/1999/xlink" version="1.1">
<metadata>
Created by FontForge 20150102 at Wed Jan  7 04:02:05 2015
 By uniteet7
copyright missing
</metadata>
<defs>
<font id="PhyramidSansBold" horiz-adv-x="310" >
  <font-face 
    font-family="PhyramidSansBold"
    font-weight="700"
    font-stretch="normal"
    units-per-em="1000"
    panose-1="0 0 8 0 0 0 0 0 0 0"
    ascent="742"
    descent="-258"
    x-height="500"
    cap-height="680"
    bbox="-77 -232 955 912"
    underline-thickness="70"
    underline-position="-35"
    unicode-range="U+0020-FB02"
  />
<missing-glyph horiz-adv-x="530" 
d="M15 0v700h500v-700h-500zM65 50h400v600h-400v-600zM151 527l7 56q36 16 81 16q73 0 113 -37t40 -98q0 -64 -44 -102t-102 -48v-62h-58v106q137 14 137 110q0 35 -25 56q-26 20 -68 20q-38 0 -74 -17h-7zM176 140q0 17 13 30q12 12 30 12q17 0 30 -12q12 -14 12 -30
q0 -18 -12 -30q-13 -13 -30 -13q-18 0 -30 13q-13 12 -13 30z" />
    <glyph glyph-name=".notdef" horiz-adv-x="530" 
d="M15 0v700h500v-700h-500zM65 50h400v600h-400v-600zM151 527l7 56q36 16 81 16q73 0 113 -37t40 -98q0 -64 -44 -102t-102 -48v-62h-58v106q137 14 137 110q0 35 -25 56q-26 20 -68 20q-38 0 -74 -17h-7zM176 140q0 17 13 30q12 12 30 12q17 0 30 -12q12 -14 12 -30
q0 -18 -12 -30q-13 -13 -30 -13q-18 0 -30 13q-13 12 -13 30z" />
    <glyph glyph-name=".null" horiz-adv-x="0" 
 />
    <glyph glyph-name="nonmarkingreturn" horiz-adv-x="333" 
 />
    <glyph glyph-name="space" unicode=" " horiz-adv-x="280" 
 />
    <glyph glyph-name="exclam" unicode="!" horiz-adv-x="400" 
d="M140 53q0 25 18 43q17 17 42 17q24 0 43 -17q17 -19 17 -43q0 -25 -17 -42q-18 -18 -43 -18q-26 0 -42 18q-18 17 -18 42zM141 680h110l-14 -235l-10 -247h-58l-11 246z" />
    <glyph glyph-name="quotedbl" unicode="&#x22;" horiz-adv-x="420" 
d="M84 680h102l-24 -274h-55zM234 680h102l-24 -274h-55z" />
    <glyph glyph-name="numbersign" unicode="#" horiz-adv-x="530" 
d="M21 259l10 58l120 -21l36 155l-106 19l10 58l110 -20l49 211l52 -12l-48 -208l96 -17l56 228l52 -12l-55 -225l109 -19l-10 -58l-113 19l-38 -155l101 -17l-10 -58l-105 18l-63 -262l-52 12l63 259l-95 17l-64 -278l-52 12l64 275zM204 286l95 -16l37 155l-96 17z" />
    <glyph glyph-name="dollar" unicode="$" horiz-adv-x="490" 
d="M54 81l19 87q65 -46 126 -56l22 215l-5 3q-25 12 -44 24q-14 8 -39 26q-24 17 -35 33q-13 16 -22 40t-9 51q0 64 49 113q50 48 138 48l9 84l51 -5l-9 -83q57 -9 112 -41l-14 -81q-54 34 -106 43l-19 -192h1q88 -45 122 -90q35 -47 35 -100q0 -86 -56 -128
q-56 -41 -138 -43l-9 -96l-51 5l9 94q-42 8 -80 21q-37 13 -57 28zM150 510q0 -28 16 -47q14 -18 64 -47l16 169q-96 -6 -96 -75zM269 300l-19 -191q53 1 77 26q25 24 25 60q0 31 -17 54t-66 51z" />
    <glyph glyph-name="percent" unicode="%" horiz-adv-x="700" 
d="M55 528q0 71 40 117q39 46 98 46q65 0 105 -45q39 -46 39 -118q0 -68 -41 -112q-40 -45 -100 -45t-100 45q-41 44 -41 112zM72 17l271 345l228 327l57 -25l-255 -323l-245 -350zM128 529q0 -43 20 -69t51 -26q27 0 47 26q18 26 18 69q0 45 -18 72q-20 27 -50 27t-49 -28
t-19 -71zM363 146q0 71 40 117q39 46 98 46q65 0 105 -45q39 -46 39 -118q0 -68 -41 -112q-40 -45 -100 -45t-100 45q-41 44 -41 112zM436 147q0 -43 20 -69t51 -26q27 0 47 26q18 26 18 69q0 45 -18 72q-20 27 -50 27t-49 -28t-19 -71z" />
    <glyph glyph-name="ampersand" unicode="&#x26;" horiz-adv-x="740" 
d="M91 194q0 146 147 217v5q-87 42 -87 116q0 70 58 116q59 47 144 47q83 0 162 -50l-33 -80q-60 45 -126 45q-47 0 -78 -22t-31 -58q0 -34 23 -59q21 -24 65 -32v-63q-67 -8 -108 -54q-41 -47 -41 -116q0 -63 49 -99q49 -37 121 -37q80 0 128 39q48 37 48 98q0 42 -21 75
l-84 -20l-16 74l234 53l16 -72l-70 -17q24 -40 24 -95q0 -101 -78 -160q-78 -60 -189 -60q-114 0 -185 61q-72 60 -72 148z" />
    <glyph glyph-name="quotesingle" unicode="'" horiz-adv-x="270" 
d="M84 680h102l-24 -274h-55z" />
    <glyph glyph-name="parenleft" unicode="(" horiz-adv-x="440" 
d="M111 272q0 156 64 274q63 118 165 189l45 -56q-79 -62 -125 -165q-48 -104 -48 -227q0 -251 173 -406l-45 -58q-100 81 -163 193q-66 114 -66 256z" />
    <glyph glyph-name="parenright" unicode=")" horiz-adv-x="440" 
d="M100 -177l-45 58q173 155 173 406q0 122 -47 227q-48 104 -126 165l45 56q101 -70 166 -189q63 -119 63 -274q0 -141 -65 -256q-65 -112 -164 -193z" />
    <glyph glyph-name="asterisk" unicode="*" horiz-adv-x="620" 
d="M115 471l31 88l142 -69l-25 190h102l-36 -192l146 81l30 -93l-168 -26l140 -136l-70 -59l-98 172l-96 -177l-69 63l133 135z" />
    <glyph glyph-name="plus" unicode="+" horiz-adv-x="530" 
d="M33 267v68h198v198h68v-198h198v-68h-198v-198h-68v198h-198z" />
    <glyph glyph-name="comma" unicode="," horiz-adv-x="340" 
d="M64 -151l85 239h106v-5l-127 -239h-64v5z" />
    <glyph glyph-name="hyphen" unicode="-" horiz-adv-x="430" 
d="M85 198v84h260v-84h-260z" />
    <glyph glyph-name="period" unicode="." horiz-adv-x="360" 
d="M120 53q0 25 18 43q17 17 42 17q24 0 43 -17q17 -19 17 -43q0 -25 -17 -42q-18 -18 -43 -18q-26 0 -42 18q-18 17 -18 42z" />
    <glyph glyph-name="slash" unicode="/" horiz-adv-x="550" 
d="M55 -160l360 860h80l-360 -860h-80z" />
    <glyph glyph-name="zero" unicode="0" horiz-adv-x="610" 
d="M55 347q0 178 70 263t182 85t180 -89q68 -91 68 -259q0 -183 -67 -272q-68 -90 -181 -90q-114 0 -183 87q-69 86 -69 275zM151 349q0 -151 45 -215q44 -66 112 -66q151 0 151 281q0 126 -42 195q-44 68 -114 68q-65 0 -109 -66q-43 -65 -43 -197z" />
    <glyph glyph-name="one" unicode="1" horiz-adv-x="470" 
d="M83 661l204 26l17 -12v-675h-92v594l-123 -14z" />
    <glyph glyph-name="two" unicode="2" horiz-adv-x="560" 
d="M43 0l-10 35q192 164 277 275q82 107 82 179q0 61 -33 92q-32 31 -90 31q-86 0 -176 -60l-6 88q24 17 74 36t114 19q97 0 156 -46q59 -47 59 -142q0 -182 -293 -415l2 -6l301 9v-95h-457z" />
    <glyph glyph-name="three" unicode="3" horiz-adv-x="540" 
d="M49 106l3 3q92 -42 180 -42q61 0 102 35q40 34 40 97q0 49 -35 81q-36 31 -97 30l-125 -4l8 87l113 -4q51 -1 88 34q36 35 36 84q0 50 -37 80q-38 29 -101 29q-58 0 -136 -35l-4 3l8 80q68 31 145 31q97 0 159 -45t62 -129q0 -59 -32 -102q-32 -42 -86 -56v-10
q62 -13 96 -60q34 -46 34 -102q0 -62 -26 -106q-28 -45 -69 -64q-46 -21 -78 -28q-40 -8 -74 -8q-96 0 -171 37z" />
    <glyph glyph-name="four" unicode="4" horiz-adv-x="570" 
d="M44 236l304 444h98v-402l78 2v-80h-78v-200h-91v200h-295zM161 282l6 -11l188 5v276h-13z" />
    <glyph glyph-name="five" unicode="5" horiz-adv-x="560" 
d="M64 -4l16 81q40 -10 95 -10q105 0 167 45q61 45 61 122q0 72 -62 110q-61 36 -173 36q-24 0 -86 -5l-4 3l38 302h363l-11 -87l-279 10l-21 -153q54 2 56 2q134 0 205 -60q71 -62 71 -154q0 -118 -96 -185q-97 -68 -235 -68q-66 0 -105 11z" />
    <glyph glyph-name="six" unicode="6" horiz-adv-x="560" 
d="M60 261q0 101 35 185q34 82 95 135q58 51 134 82q75 29 156 32l-13 -80q-124 -8 -203 -75q-81 -68 -94 -161l7 -6q49 27 112 27q89 0 156 -53q65 -54 65 -158q0 -93 -65 -149q-65 -55 -146 -55q-121 0 -180 78q-59 79 -59 198zM155 244q0 -82 39 -131q39 -50 103 -50
q52 0 86 32q33 31 33 87q0 78 -43 112t-111 34q-58 0 -101 -28q-6 -26 -6 -56z" />
    <glyph glyph-name="seven" unicode="7" horiz-adv-x="520" 
d="M46 590l9 90h420l10 -12q-199 -367 -216 -668h-110q25 160 81 318q54 158 126 276l-4 5z" />
    <glyph glyph-name="eight" unicode="8" horiz-adv-x="550" 
d="M50 170q0 56 38 105q38 47 96 75v6q-114 76 -114 168q0 72 60 121q59 50 153 50q82 0 140 -44q57 -43 57 -116q0 -121 -123 -179v-6q74 -42 110 -89q33 -46 33 -101q0 -76 -64 -125q-65 -50 -163 -50q-100 0 -161 52q-62 53 -62 133zM139 170q0 -50 39 -80q38 -30 99 -30
q57 0 93 30q36 28 36 71q0 46 -38 82q-42 37 -109 70l-7 3q-113 -50 -113 -146zM164 528q0 -39 30 -71q30 -33 93 -69q105 62 105 137q0 42 -31 70t-83 28q-55 0 -84 -28q-30 -29 -30 -67z" />
    <glyph glyph-name="nine" unicode="9" horiz-adv-x="560" 
d="M50 491q0 84 60 144q58 60 151 60q121 0 180 -78q59 -79 59 -198q0 -328 -331 -434l-35 64l1 5q238 82 257 247l-7 6q-49 -27 -114 -27q-91 0 -155 54q-66 53 -66 157zM143 498q0 -70 45 -106q44 -37 110 -37q60 0 103 28q4 17 4 53q0 82 -39 132t-103 50q-52 0 -86 -32
q-34 -31 -34 -88z" />
    <glyph glyph-name="colon" unicode=":" horiz-adv-x="360" 
d="M120 53q0 25 18 43q17 17 42 17q24 0 43 -17q17 -19 17 -43q0 -25 -17 -42q-18 -18 -43 -18q-26 0 -42 18q-18 17 -18 42zM120 373q0 25 18 43q17 17 42 17q24 0 43 -17q17 -19 17 -43q0 -25 -17 -42q-18 -18 -43 -18q-26 0 -42 18q-18 17 -18 42z" />
    <glyph glyph-name="semicolon" unicode=";" horiz-adv-x="380" 
d="M76 -151l85 239h106v-5l-127 -239h-64v5zM139 373q0 25 18 43q17 17 42 17q24 0 43 -17q17 -19 17 -43q0 -25 -17 -42q-18 -18 -43 -18t-42 18q-18 17 -18 42z" />
    <glyph glyph-name="less" unicode="&#x3c;" horiz-adv-x="530" 
d="M50 290v62l404 190l25 -65l-343 -156l343 -156l-25 -65z" />
    <glyph glyph-name="equal" unicode="=" horiz-adv-x="530" 
d="M43 163v68h444v-68h-444zM43 363v68h444v-68h-444z" />
    <glyph glyph-name="greater" unicode="&#x3e;" horiz-adv-x="530" 
d="M51 165l343 156l-343 156l25 65l404 -190v-62l-404 -190z" />
    <glyph glyph-name="question" unicode="?" horiz-adv-x="540" 
d="M114 593l9 79q52 23 115 23q102 0 159 -51q56 -51 56 -134q0 -48 -18 -87q-20 -40 -50 -63q-31 -25 -65 -40q-33 -16 -72 -22v-86h-82v149q192 18 192 154q0 46 -35 75q-34 28 -96 28q-55 0 -104 -25h-9zM149 53q0 25 18 43q17 17 42 17q24 0 43 -17q17 -19 17 -43
q0 -25 -17 -42q-18 -18 -43 -18t-42 18q-18 17 -18 42z" />
    <glyph glyph-name="at" unicode="@" horiz-adv-x="780" 
d="M115 295q0 78 21 150q21 71 60 129q40 58 102 92q61 34 139 34q101 0 157 -46q57 -46 51 -138l-19 -277q-3 -45 26 -72l-1 -10l-78 -24l-18 44h-15q-46 -36 -113 -36q-53 0 -89 39q-37 37 -37 107q0 76 47 126q46 49 114 49q52 0 97 -8l5 54q6 65 -28 92t-101 27
q-105 0 -172 -93q-68 -95 -68 -240q0 -150 62 -226q61 -76 161 -76q80 0 124 36h5l28 -59q-62 -53 -158 -53q-148 0 -225 101t-77 278zM380 287q0 -74 71 -74q48 0 94 24l10 149q-32 7 -81 7q-42 0 -67 -28q-27 -29 -27 -78z" />
    <glyph glyph-name="A" unicode="A" horiz-adv-x="730" 
d="M48 0l306 700h20l308 -700h-100l-75 177h-286l-73 -177h-100zM255 259h218l-106 251h-7z" />
    <glyph glyph-name="B" unicode="B" horiz-adv-x="630" 
d="M118 0v680h186q106 0 159 -46q53 -47 53 -119q0 -44 -26 -91q-27 -47 -72 -62v-5q66 -17 100 -60t34 -102q0 -93 -62 -144q-63 -51 -174 -51h-198zM212 79h109q25 0 48 6q20 4 43 17q21 12 34 37q12 24 12 58q0 56 -40 87t-99 31h-107v-236zM212 393h109q43 0 72 29
t29 78q0 50 -33 75q-34 26 -90 26h-87v-208z" />
    <glyph glyph-name="C" unicode="C" horiz-adv-x="720" 
d="M78 329q0 166 101 267q101 99 244 99q63 0 123 -20q59 -21 95 -48l-22 -83q-97 66 -195 66h-3q-103 -2 -174 -72q-71 -73 -71 -205q0 -115 69 -189q68 -74 178 -74q94 0 207 71l25 -80q-44 -33 -106 -54q-62 -22 -128 -22q-150 0 -246 100q-97 98 -97 244z" />
    <glyph glyph-name="D" unicode="D" horiz-adv-x="740" 
d="M118 0v680h191q152 0 253 -95q100 -94 100 -251q0 -151 -98 -243q-97 -91 -254 -91h-192zM212 82h102q116 0 184 69q66 69 66 185q0 130 -74 196q-75 66 -177 66h-101v-516z" />
    <glyph glyph-name="E" unicode="E" horiz-adv-x="600" 
d="M118 0v680h385v-82h-291v-203h261v-82h-261v-231h301v-82h-395z" />
    <glyph glyph-name="F" unicode="F" horiz-adv-x="570" 
d="M118 0v680h374v-82h-280v-203h250v-82h-250v-313h-94z" />
    <glyph glyph-name="G" unicode="G" horiz-adv-x="770" 
d="M78 329q0 159 96 262q95 104 249 104q63 0 123 -21q60 -23 97 -49l-24 -83q-82 68 -198 68q-103 0 -174 -71q-71 -73 -71 -206q0 -119 70 -190q70 -73 181 -73q107 0 149 49v162h-182v82h278v-281q-103 -97 -250 -97q-154 0 -248 102q-96 102 -96 242z" />
    <glyph glyph-name="H" unicode="H" horiz-adv-x="770" 
d="M118 0v680h94v-285h346v285h94v-680h-94v313h-346v-313h-94z" />
    <glyph glyph-name="I" unicode="I" horiz-adv-x="350" 
d="M128 0v680h94v-680h-94z" />
    <glyph glyph-name="J" unicode="J" horiz-adv-x="500" 
d="M60 11l25 82q35 -25 78 -25q125 0 125 168v444h94v-459q0 -118 -58 -176q-58 -60 -156 -60q-62 0 -108 26z" />
    <glyph glyph-name="K" unicode="K" horiz-adv-x="670" 
d="M118 0v680h94v-310h10l270 310h104v-10l-276 -318l312 -342v-10h-113l-279 306l-28 -28v-278h-94z" />
    <glyph glyph-name="L" unicode="L" horiz-adv-x="560" 
d="M118 0v680h94v-598h290v-82h-384z" />
    <glyph glyph-name="M" unicode="M" horiz-adv-x="940" 
d="M93 0l100 690h20l258 -519h4l252 519h20l100 -690h-96l-53 430h-7l-216 -440h-10l-216 440h-7l-53 -430h-96z" />
    <glyph glyph-name="N" unicode="N" horiz-adv-x="830" 
d="M118 0v690h30l462 -497h8v487h94v-690h-30l-462 496h-8v-486h-94z" />
    <glyph glyph-name="O" unicode="O" horiz-adv-x="830" 
d="M78 335q0 158 101 259t237 101q140 0 238 -99q98 -101 98 -261q0 -144 -95 -247q-96 -103 -241 -103q-142 0 -240 101t-98 249zM176 337q0 -108 67 -187q66 -80 175 -80q104 0 170 79t66 188q0 120 -69 197q-70 76 -174 76q-96 0 -165 -75q-70 -74 -70 -198z" />
    <glyph glyph-name="P" unicode="P" horiz-adv-x="580" 
d="M118 0v680h168q103 0 168 -53q63 -52 63 -143q0 -96 -66 -154q-65 -57 -170 -57h-4h-65v-273h-94zM212 352h70q59 0 99 32q38 32 38 98q0 56 -36 87q-37 32 -96 32h-75v-249z" />
    <glyph glyph-name="Q" unicode="Q" horiz-adv-x="830" 
d="M78 347q0 142 95 246q94 102 238 102q150 0 246 -100q95 -101 95 -248q0 -91 -38 -170q-39 -79 -116 -129q-79 -50 -181 -53h-22l-4 -5q44 -38 121 -70q72 -29 133 -29h12l-27 -94q-55 0 -108 19q-59 21 -99 47q-37 25 -85 58q-50 34 -85 52q-46 24 -81 28l34 65
q-63 50 -95 124q-33 74 -33 157zM176 349q0 -110 64 -189q65 -80 172 -80q111 0 177 80q65 80 65 189q0 44 -15 89q-18 47 -44 83q-28 38 -77 64q-47 25 -107 25q-107 0 -171 -79t-64 -182z" />
    <glyph glyph-name="R" unicode="R" horiz-adv-x="650" 
d="M118 0v680h188q108 0 167 -51q59 -53 59 -147q0 -73 -43 -125q-43 -53 -120 -66l213 -278v-13h-106l-210 282h-54v-282h-94zM212 360h100q124 0 124 123q0 59 -36 89q-37 29 -98 29h-90v-241z" />
    <glyph glyph-name="S" unicode="S" horiz-adv-x="590" 
d="M78 48l24 87q85 -67 183 -67q63 0 94 29q30 29 30 74q0 39 -26 68q-25 28 -95 69q-111 64 -150 105q-40 40 -40 104q0 73 55 125q56 53 158 53q101 0 180 -57l-22 -82q-77 57 -156 57q-121 0 -121 -89q0 -35 28 -62q30 -28 110 -72q94 -51 135 -102q41 -52 41 -112
q0 -92 -60 -142q-61 -49 -162 -49q-66 0 -122 19q-59 20 -84 44z" />
    <glyph glyph-name="T" unicode="T" horiz-adv-x="630" 
d="M48 598v82h534v-82h-220v-598h-94v598h-220z" />
    <glyph glyph-name="U" unicode="U" horiz-adv-x="770" 
d="M118 237v443h94v-426q0 -186 173 -186q81 0 127 45q46 43 46 141v426h94v-438q0 -106 -68 -182q-69 -75 -199 -75q-60 0 -108 14q-48 16 -76 39q-29 22 -49 57q-18 30 -26 68q-8 37 -8 74z" />
    <glyph glyph-name="V" unicode="V" horiz-adv-x="710" 
d="M58 680h101l195 -480h10l187 480h101l-287 -695h-20z" />
    <glyph glyph-name="W" unicode="W" horiz-adv-x="970" 
d="M58 680h101l162 -464h8l143 474h26l149 -474h8l156 464h101l-250 -695h-30l-141 454h-8l-145 -454h-30z" />
    <glyph glyph-name="X" unicode="X" horiz-adv-x="700" 
d="M63 0l233 343l-227 337h109l173 -261l174 261h106l-227 -335l233 -345h-109l-179 270l-180 -270h-106z" />
    <glyph glyph-name="Y" unicode="Y" horiz-adv-x="670" 
d="M48 680h104l181 -286h8l177 286h104l-240 -377v-303h-94v303z" />
    <glyph glyph-name="Z" unicode="Z" horiz-adv-x="690" 
d="M64 10l409 582l-5 6h-365v82h528l5 -5l-413 -587l5 -6h389v-82h-547z" />
    <glyph glyph-name="bracketleft" unicode="[" horiz-adv-x="460" 
d="M150 -164l8 454l-8 434l244 -4v-70l-144 4l-6 -367l6 -381l150 4v-70z" />
    <glyph glyph-name="backslash" unicode="\" horiz-adv-x="550" 
d="M55 700h80l360 -860h-80z" />
    <glyph glyph-name="bracketright" unicode="]" horiz-adv-x="460" 
d="M60 -90l150 -4l6 381l-6 367l-144 -4v70l244 4l-8 -434l8 -454l-250 4v70z" />
    <glyph glyph-name="asciicircum" unicode="^" horiz-adv-x="530" 
d="M30 314l222 377h27l221 -377l-58 -33l-172 300h-8l-175 -300z" />
    <glyph glyph-name="underscore" unicode="_" horiz-adv-x="530" 
d="M-25 -140h580v-70h-580v70z" />
    <glyph glyph-name="grave" unicode="`" horiz-adv-x="500" 
d="M125 610v10h84l96 -164v-8h-61z" />
    <glyph glyph-name="a" unicode="a" horiz-adv-x="570" 
d="M38 0l236 505h20l238 -505h-95l-49 108h-207l-47 -108h-96zM214 185h140l-67 150h-7z" />
    <glyph glyph-name="b" unicode="b" horiz-adv-x="520" 
d="M93 0v500h171q83 0 124 -38q40 -37 40 -92q0 -78 -71 -107v-4q46 -8 74 -42t28 -78q0 -65 -48 -102q-49 -37 -135 -37h-183zM185 76h106q31 0 53 19q21 18 21 52q0 33 -22 52t-56 19h-102v-142zM185 291h82q67 0 67 69q0 32 -18 48q-19 16 -50 16h-81v-133z" />
    <glyph glyph-name="c" unicode="c" horiz-adv-x="570" 
d="M58 244q0 119 80 193q79 73 190 73q102 0 176 -53l-30 -78q-71 48 -145 48h-3q-73 -2 -123 -46q-52 -46 -52 -135q0 -76 50 -124q49 -49 127 -49q79 0 147 53l35 -75q-82 -61 -184 -61q-116 0 -192 74q-76 73 -76 180z" />
    <glyph glyph-name="d" unicode="d" horiz-adv-x="580" 
d="M93 0v500h166q111 0 187 -69t76 -177q0 -120 -72 -187q-73 -67 -190 -67h-167zM185 79h79q77 0 121 47q43 46 43 130q0 72 -51 118q-53 47 -114 47h-78v-342z" />
    <glyph glyph-name="e" unicode="e" horiz-adv-x="520" 
d="M93 0v500h335v-79h-243v-127h213v-79h-213v-136h253v-79h-345z" />
    <glyph glyph-name="f" unicode="f" horiz-adv-x="490" 
d="M93 0v500h340v-79h-248v-132h218v-79h-218v-210h-92z" />
    <glyph glyph-name="g" unicode="g" horiz-adv-x="610" 
d="M58 244q0 119 80 193q79 73 190 73q54 0 99 -16q46 -16 74 -37l-27 -83q-76 53 -145 53h-3q-73 -2 -123 -46q-52 -46 -52 -135q0 -76 50 -124q49 -49 127 -49q67 0 108 26v102h-127v79h221v-229q-35 -27 -91 -44q-57 -17 -113 -17q-116 0 -192 74q-76 73 -76 180z" />
    <glyph glyph-name="h" unicode="h" horiz-adv-x="610" 
d="M93 0v500h92v-206h240v206h92v-500h-92v215h-240v-215h-92z" />
    <glyph glyph-name="i" unicode="i" 
d="M109 0v500h92v-500h-92z" />
    <glyph glyph-name="j" unicode="j" horiz-adv-x="450" 
d="M35 16l25 82q35 -25 78 -25q64 0 95 34q32 35 32 109v284h92v-299q0 -105 -57 -158q-59 -53 -157 -53q-62 0 -108 26z" />
    <glyph glyph-name="k" unicode="k" horiz-adv-x="560" 
d="M93 0v500h92v-226h4l215 226h107v-5l-227 -237l243 -253v-5h-118l-196 208l-28 -30v-178h-92z" />
    <glyph glyph-name="l" unicode="l" horiz-adv-x="460" 
d="M93 0v500h92v-421h222v-79h-314z" />
    <glyph glyph-name="m" unicode="m" horiz-adv-x="740" 
d="M73 0l80 505h20l199 -357h3l192 357h20l80 -505h-93l-40 282h-3l-157 -287h-8l-157 287h-3l-40 -282h-93z" />
    <glyph glyph-name="n" unicode="n" horiz-adv-x="650" 
d="M93 0v505h30l334 -330h8v325h92v-505h-30l-334 329h-8v-324h-92z" />
    <glyph glyph-name="o" unicode="o" horiz-adv-x="650" 
d="M58 244q0 117 79 192q80 74 189 74q108 0 187 -73t79 -193q0 -102 -76 -178t-190 -76q-113 0 -190 74q-78 74 -78 180zM152 246q0 -71 48 -122q47 -51 128 -51q75 0 123 52q47 52 47 121q0 78 -50 130q-50 51 -123 51t-122 -48q-51 -49 -51 -133z" />
    <glyph glyph-name="p" unicode="p" horiz-adv-x="510" 
d="M93 0v500h183q78 0 127 -43t49 -115q0 -60 -45 -110t-140 -50h-82v-182h-92zM185 258h85q43 0 65 22q23 23 23 63t-23 61q-25 20 -63 20h-87v-166z" />
    <glyph glyph-name="q" unicode="q" horiz-adv-x="650" 
d="M58 249q0 115 79 188t189 73q108 0 187 -72q79 -73 79 -189q0 -101 -76 -174q-76 -75 -190 -75h-7l-2 -4q36 -27 92 -43q50 -14 97 -14h17l-27 -91q-57 0 -114 23q-56 23 -93 51t-84 54q-47 27 -87 33l28 53q-88 72 -88 187zM152 251q0 -69 48 -118q47 -50 128 -50
q75 0 123 51q47 50 47 117q0 77 -50 127q-49 49 -123 49q-72 0 -122 -47q-51 -46 -51 -129z" />
    <glyph glyph-name="r" unicode="r" horiz-adv-x="560" 
d="M93 0v500h193q78 0 127 -42q49 -43 49 -111q0 -57 -30 -95q-32 -38 -88 -51l163 -188v-13h-104l-160 192h-58v-192h-92zM185 265h95q42 0 65 22q23 21 23 61q0 38 -23 58q-25 20 -63 20h-97v-161z" />
    <glyph glyph-name="s" unicode="s" horiz-adv-x="520" 
d="M68 43l24 81q81 -54 158 -54q50 0 77 18q27 16 27 43q0 29 -27 50q-30 22 -94 47q-78 32 -111 63q-34 31 -34 81q0 57 46 97q47 41 130 41q97 0 167 -47l-23 -77q-64 45 -143 45q-42 0 -65 -14q-23 -15 -23 -38q0 -25 24 -43q21 -17 98 -50q80 -34 113 -70q34 -37 34 -89
q0 -67 -53 -102q-55 -35 -144 -35q-60 0 -108 16q-52 17 -73 37z" />
    <glyph glyph-name="t" unicode="t" horiz-adv-x="550" 
d="M58 421v79h434v-79h-172v-421h-92v421h-170z" />
    <glyph glyph-name="u" unicode="u" horiz-adv-x="630" 
d="M93 212v288h92v-271q0 -156 130 -156q59 0 95 39q36 38 35 117v271h92v-283q0 -94 -57 -160q-57 -67 -165 -67q-119 0 -170 63q-52 62 -52 159z" />
    <glyph glyph-name="v" unicode="v" horiz-adv-x="550" 
d="M38 500h98l138 -317h4l136 317h98l-230 -505h-14z" />
    <glyph glyph-name="w" unicode="w" horiz-adv-x="790" 
d="M38 500h98l128 -312h4l114 317h26l120 -317h4l122 312h98l-213 -505h-26l-112 302h-8l-116 -302h-26z" />
    <glyph glyph-name="x" unicode="x" horiz-adv-x="550" 
d="M38 0l186 253l-180 247h108l124 -173l125 173h105l-180 -245l186 -255h-108l-130 180l-131 -180h-105z" />
    <glyph glyph-name="y" unicode="y" horiz-adv-x="530" 
d="M28 500h98l138 -215h4l136 215h98l-191 -297v-203h-92v203z" />
    <glyph glyph-name="z" unicode="z" horiz-adv-x="560" 
d="M56 10l289 406l-3 5h-265v79h422l5 -5l-293 -412l3 -4h286v-79h-438z" />
    <glyph glyph-name="braceleft" unicode="{" horiz-adv-x="460" 
d="M80 247v80q53 0 89 27q36 26 36 63q0 32 -15 88q-16 54 -16 87q0 72 49 100q47 28 177 28v-65q-72 0 -102 -15q-31 -16 -31 -64q0 -36 18 -94q17 -60 17 -80q0 -40 -36 -65q-36 -26 -91 -36v-25q53 -4 91 -32q36 -27 36 -69q0 -23 -17 -83q-18 -58 -18 -94q0 -50 25 -72
q26 -21 108 -21v-65q-70 0 -118 8q-45 9 -70 29q-24 20 -32 44q-8 26 -8 62q0 27 17 86q16 55 16 84q0 45 -34 70q-35 24 -91 24z" />
    <glyph glyph-name="bar" unicode="|" horiz-adv-x="530" 
d="M231 -230v980h68v-980h-68z" />
    <glyph glyph-name="braceright" unicode="}" horiz-adv-x="460" 
d="M60 -160v65q82 0 108 21q25 22 25 72q0 34 -17 94q-18 59 -18 83q0 42 37 69q37 28 90 32v25q-55 10 -91 36q-36 25 -36 65q0 22 18 80q17 60 17 94q0 48 -30 64q-32 15 -103 15v65q129 0 178 -28q48 -28 48 -100q0 -32 -15 -87q-16 -54 -16 -88q0 -37 36 -63
q36 -27 89 -27v-80q-56 0 -90 -24q-35 -26 -35 -70q0 -25 17 -84q16 -55 16 -86q0 -36 -8 -62q-8 -24 -32 -44q-25 -20 -69 -29q-50 -8 -119 -8z" />
    <glyph glyph-name="asciitilde" unicode="~" horiz-adv-x="530" 
d="M96 203h-64q0 77 41 123q41 45 98 45q31 0 61 -15q30 -17 48 -34q18 -18 42 -34q22 -16 43 -16q31 0 50 28t19 69h68q0 -73 -38 -120q-38 -48 -100 -48q-32 0 -60 16q-30 16 -47 33q-17 16 -42 34q-23 15 -44 15q-33 0 -54 -27q-21 -28 -21 -69z" />
    <glyph glyph-name="uni00A0" unicode="&#xa0;" horiz-adv-x="280" 
 />
    <glyph glyph-name="exclamdown" unicode="&#xa1;" horiz-adv-x="400" 
d="M140 510q0 25 18 43q17 17 42 17q24 0 43 -17q17 -19 17 -43q0 -25 -17 -42q-18 -18 -43 -18q-26 0 -42 18q-18 16 -18 42zM149 -117l14 235l10 247h58l11 -246l17 -236h-110z" />
    <glyph glyph-name="cent" unicode="&#xa2;" horiz-adv-x="450" 
d="M61 320q0 103 58 173q57 71 138 78l12 110l51 -5l-11 -106q45 -8 100 -46l-30 -69q-39 35 -78 39l-34 -321h8q54 0 107 41l20 -70q-57 -48 -133 -48h-10l-10 -96l-51 5l10 99q-67 19 -107 77q-40 56 -40 139zM153 322q0 -103 64 -136l32 305q-43 -13 -69 -59
q-27 -45 -27 -110z" />
    <glyph glyph-name="sterling" unicode="&#xa3;" horiz-adv-x="520" 
d="M83 -10l-35 65q95 84 95 210q0 23 -5 58h-80v55h70q-23 118 -23 144q0 86 54 130q53 43 132 43q63 0 111 -17q45 -18 63 -33l-21 -75q-57 42 -140 42q-47 0 -76 -26q-30 -26 -30 -80q0 -38 21 -128h158v-55h-147q6 -37 6 -55q0 -98 -82 -159l8 -10q24 18 58 18
q38 0 86 -20q46 -21 82 -21q41 0 77 27l6 -2l16 -76q-40 -35 -99 -35q-35 0 -86 21q-52 21 -92 21q-54 0 -127 -42z" />
    <glyph glyph-name="currency" unicode="&#xa4;" horiz-adv-x="640" 
d="M92 473q9 19 25 26q15 7 28 -1l46 -47q59 42 129 42t126 -39l43 45q10 10 29 0q20 -11 30 -30t0 -30l-45 -43q38 -56 38 -124q0 -70 -42 -130l48 -46q11 -11 2 -29q-9 -20 -25 -27q-17 -8 -28 1l-50 50q-55 -40 -126 -40q-68 0 -124 36l-42 -44q-11 -13 -31 -2
q-20 9 -29 27q-9 17 1 30l44 43q-40 55 -40 131q0 69 40 127l-45 44q-11 11 -2 30zM169 271q0 -70 42 -115q42 -46 110 -46q63 0 106 46q42 46 42 115q0 71 -42 117q-43 45 -107 45q-70 0 -110 -46q-41 -47 -41 -116z" />
    <glyph glyph-name="yen" unicode="&#xa5;" horiz-adv-x="600" 
d="M23 680h104l171 -286h8l167 286h104l-230 -377v-36h119v-55h-119v-49h119v-55h-119v-108h-94v108h-119v55h119v49h-119v55h119v36z" />
    <glyph glyph-name="brokenbar" unicode="&#xa6;" horiz-adv-x="530" 
d="M231 120h68v-350h-68v350zM231 400v350h68v-350h-68z" />
    <glyph glyph-name="section" unicode="&#xa7;" horiz-adv-x="660" 
d="M126 -108l24 87q86 -57 178 -57q57 0 83 22q26 23 26 56q0 35 -26 61q-27 25 -95 51q-98 38 -144 84t-46 110q0 67 56 132q-56 42 -56 104q0 63 51 108t147 45t175 -47l-22 -82q-76 47 -151 47q-106 0 -106 -64q0 -24 29 -45q27 -22 109 -54q181 -70 181 -204
q0 -68 -59 -124q54 -50 54 -117q0 -82 -56 -124t-151 -42q-65 0 -119 16q-58 17 -82 37zM220 313q0 -67 138 -119q25 -9 57 -26q27 27 27 73q0 41 -27 69q-28 28 -99 58q-38 15 -67 30q-29 -40 -29 -85z" />
    <glyph glyph-name="dieresis" unicode="&#xa8;" horiz-adv-x="500" 
d="M123 507q0 20 15 35q14 14 34 14q19 0 35 -14q14 -16 14 -35q0 -20 -14 -34q-15 -15 -35 -15t-34 15q-15 13 -15 34zM279 507q0 20 15 35q14 14 34 14q19 0 35 -14q14 -16 14 -35q0 -20 -14 -34q-15 -15 -35 -15t-34 15q-15 13 -15 34z" />
    <glyph glyph-name="copyright" unicode="&#xa9;" horiz-adv-x="880" 
d="M133 323q0 127 90 217q89 90 218 90q133 0 220 -89q86 -91 86 -218q0 -129 -86 -218q-85 -90 -220 -90q-131 0 -220 87q-88 85 -88 221zM182 321q0 -113 74 -187t186 -74q110 0 184 74q72 74 72 187q0 118 -73 192q-74 74 -184 74q-107 0 -183 -76t-76 -190zM273 320
q0 83 50 133t122 50q70 0 119 -34l-11 -51q-53 32 -109 32q-48 0 -79 -33q-33 -33 -33 -95q0 -52 32 -87q31 -34 81 -34q55 0 113 35l13 -50q-53 -38 -127 -38q-75 0 -123 50t-48 122z" />
    <glyph glyph-name="ordfeminine" unicode="&#xaa;" horiz-adv-x="470" 
d="M48 308l179 382h15l180 -382h-84l-31 72h-146l-29 -72h-84zM187 443h93l-44 105h-5z" />
    <glyph glyph-name="guillemotleft" unicode="&#xab;" horiz-adv-x="640" 
d="M85 222v13l197 224l51 -36l-136 -188v-10l136 -192l-51 -37zM295 222v13l197 224l51 -36l-136 -188v-10l136 -192l-51 -37z" />
    <glyph glyph-name="logicalnot" unicode="&#xac;" horiz-adv-x="530" 
d="M33 245v68h457v-261h-68v193h-389z" />
    <glyph glyph-name="uni00AD" unicode="&#xad;" horiz-adv-x="430" 
d="M85 198v84h260v-84h-260z" />
    <glyph glyph-name="registered" unicode="&#xae;" horiz-adv-x="650" 
d="M111 481q0 91 63 153q61 61 151 61q92 0 153 -61t61 -153q0 -90 -62 -152q-64 -62 -152 -62q-91 0 -152 60q-62 59 -62 154zM153 480q0 -78 49 -126q48 -48 124 -48q72 0 121 49q50 50 50 125q0 77 -50 127q-49 49 -122 49q-78 0 -125 -50q-47 -52 -47 -126zM247 364v249
h73q42 0 64 -19q23 -20 23 -53q0 -27 -16 -46q-17 -19 -45 -24l82 -103v-4h-44l-80 104h-18v-104h-39zM286 501h35q47 0 47 40q0 39 -50 39h-32v-79z" />
    <glyph glyph-name="macron" unicode="&#xaf;" horiz-adv-x="500" 
d="M128 448v55h244v-55h-244z" />
    <glyph glyph-name="degree" unicode="&#xb0;" horiz-adv-x="390" 
d="M52 551q0 59 42 102q42 42 101 42t102 -42q42 -43 42 -102t-42 -101q-43 -42 -102 -42t-101 42t-42 101zM120 551q0 -34 21 -58t53 -24q33 0 55 24q21 24 21 58q0 35 -21 60q-22 24 -55 24q-32 0 -53 -24q-21 -25 -21 -60z" />
    <glyph glyph-name="plusminus" unicode="&#xb1;" horiz-adv-x="530" 
d="M43 40v68h444v-68h-444zM43 357v68h188v198h68v-198h188v-68h-188v-198h-68v198h-188z" />
    <glyph glyph-name="two.sups" unicode="&#xb2;" 
d="M25 415l-6 22q188 167 188 247q0 53 -57 53q-51 0 -92 -28l-8 58q39 30 103 30q55 0 89 -25t34 -78q0 -93 -140 -209l3 -8l143 5v-67h-257z" />
    <glyph glyph-name="three.sups" unicode="&#xb3;" 
d="M41 427l-1 64q51 -24 100 -24q30 0 49 15t19 42q0 25 -17 40q-19 14 -50 13l-67 -2l5 58l60 -2q25 -1 45 17q18 16 18 41q0 24 -17 38q-17 12 -44 12q-38 0 -83 -21l5 62q37 17 87 17q51 0 85 -25q35 -26 35 -70q0 -33 -19 -58q-19 -24 -51 -32v-6q37 -8 56 -31
q20 -25 20 -55q0 -56 -41 -85q-41 -28 -95 -28t-99 20z" />
    <glyph glyph-name="acute" unicode="&#xb4;" horiz-adv-x="500" 
d="M195 448v8l96 164h84v-10l-119 -162h-61z" />
    <glyph glyph-name="paragraph" unicode="&#xb6;" horiz-adv-x="730" 
d="M112 459q0 100 73 161q73 60 183 60h284v-72h-59v-765h-80v765h-60v-765h-80v400q-115 0 -188 59q-73 58 -73 157zM210 460q0 -64 43 -101q43 -39 120 -39v288q-72 0 -118 -41q-45 -41 -45 -107z" />
    <glyph glyph-name="periodcentered" unicode="&#xb7;" horiz-adv-x="360" 
d="M120 260q0 25 18 43q17 17 42 17q24 0 43 -17q17 -19 17 -43q0 -25 -17 -42q-18 -18 -43 -18q-26 0 -42 18q-18 16 -18 42z" />
    <glyph glyph-name="cedilla" unicode="&#xb8;" horiz-adv-x="500" 
d="M170 -95l58 115h53l-41 -80q44 0 73 -17q27 -17 27 -47q0 -38 -40 -65q-42 -26 -103 -35l-8 39q40 4 68 19q25 13 25 34q0 32 -77 32q-12 0 -30 -2z" />
    <glyph glyph-name="one.sups" unicode="&#xb9;" 
d="M66 778l130 15l9 -7v-374h-65v316l-71 -6z" />
    <glyph glyph-name="ordmasculine" unicode="&#xba;" horiz-adv-x="500" 
d="M49 495q0 89 60 144q61 56 142 56q82 0 141 -55q59 -56 59 -145q0 -77 -57 -134q-58 -57 -143 -57q-86 0 -144 55t-58 136zM130 496q0 -50 33 -84q33 -36 89 -36q52 0 85 36t33 84q0 54 -35 91q-35 36 -85 36t-84 -34q-36 -35 -36 -93z" />
    <glyph glyph-name="guillemotright" unicode="&#xbb;" horiz-adv-x="640" 
d="M97 33l136 192v10l-136 188l51 36l197 -224v-13l-197 -226zM307 33l136 192v10l-136 188l51 36l197 -224v-13l-197 -226z" />
    <glyph glyph-name="onequarter" unicode="&#xbc;" horiz-adv-x="760" 
d="M82 678l130 15l9 -7v-374h-65v316l-71 -6zM115 -24l245 370l220 353l46 -26l-237 -349l-228 -376zM392 89l159 245h66v-212l43 1v-58h-43v-105h-63v105h-153zM469 123l3 -6l82 2v131h-7z" />
    <glyph glyph-name="onehalf" unicode="&#xbd;" horiz-adv-x="760" 
d="M82 678l130 15l9 -7v-374h-65v316l-71 -6zM115 -24l245 370l220 353l46 -26l-237 -349l-228 -376zM442 -40l-6 22q188 167 188 247q0 53 -57 53q-51 0 -92 -28l-8 58q39 30 103 30q55 0 89 -25t34 -78q0 -93 -140 -209l3 -8l143 5v-67h-257z" />
    <glyph glyph-name="threequarters" unicode="&#xbe;" horiz-adv-x="760" 
d="M57 327l-1 64q51 -24 100 -24q30 0 49 15t19 42q0 25 -17 40q-19 14 -50 13l-67 -2l5 58l60 -2q25 -1 45 17q18 16 18 41q0 24 -17 38q-16 12 -44 12q-38 0 -83 -21l5 62q37 17 87 17q51 0 85 -25q35 -26 35 -70q0 -34 -19 -57q-19 -25 -51 -33v-6q37 -8 56 -31
q20 -25 20 -55q0 -56 -41 -85q-41 -28 -95 -28t-99 20zM115 -24l245 370l220 353l46 -26l-237 -349l-228 -376zM392 89l159 245h66v-212l43 1v-58h-43v-105h-63v105h-153zM469 123l3 -6l82 2v131h-7z" />
    <glyph glyph-name="questiondown" unicode="&#xbf;" horiz-adv-x="540" 
d="M87 68q0 49 19 87q18 39 49 64q30 23 66 40q35 15 71 21v86h82v-149q-192 -18 -192 -154q0 -46 35 -75q34 -28 96 -28q55 0 104 25h9l-9 -79q-52 -23 -115 -23q-102 0 -158 51q-57 51 -57 134zM271 525q0 25 18 43q17 17 42 17q24 0 43 -17q17 -19 17 -43q0 -25 -17 -42
q-18 -18 -43 -18t-42 18q-18 17 -18 42z" />
    <glyph glyph-name="Agrave" unicode="&#xc0;" horiz-adv-x="730" 
d="M48 0l306 700h20l308 -700h-100l-75 177h-286l-73 -177h-100zM230 862v10h89l106 -124v-8h-61zM255 259h218l-106 251h-7z" />
    <glyph glyph-name="Aacute" unicode="&#xc1;" horiz-adv-x="730" 
d="M48 0l306 700h20l308 -700h-100l-75 177h-286l-73 -177h-100zM255 259h218l-106 251h-7zM305 740v8l106 124h89v-10l-134 -122h-61z" />
    <glyph glyph-name="Acircumflex" unicode="&#xc2;" horiz-adv-x="730" 
d="M48 0l306 700h20l308 -700h-100l-75 177h-286l-73 -177h-100zM230 740v8l121 124h28l121 -124v-8h-56l-79 64l-79 -64h-56zM255 259h218l-106 251h-7z" />
    <glyph glyph-name="Atilde" unicode="&#xc3;" horiz-adv-x="730" 
d="M48 0l306 700h20l308 -700h-100l-75 177h-286l-73 -177h-100zM276 747h-50q0 57 25 88q24 32 59 32q28 0 60 -32t46 -32q16 0 26 18q9 18 9 44h52q0 -47 -23 -84q-24 -36 -60 -36q-23 0 -42 16q-19 15 -34 31t-28 16q-18 0 -29 -17q-11 -19 -11 -44zM255 259h218
l-106 251h-7z" />
    <glyph glyph-name="Adieresis" unicode="&#xc4;" horiz-adv-x="730" 
d="M48 0l306 700h20l308 -700h-100l-75 177h-286l-73 -177h-100zM238 789q0 20 15 35q14 14 34 14q19 0 35 -14q14 -16 14 -35q0 -20 -14 -34q-15 -15 -35 -15q-21 0 -34 15q-15 13 -15 34zM255 259h218l-106 251h-7zM394 789q0 20 15 35q14 14 34 14q19 0 35 -14
q14 -16 14 -35q0 -20 -14 -34q-15 -15 -35 -15q-21 0 -34 15q-15 13 -15 34z" />
    <glyph glyph-name="Aring" unicode="&#xc5;" horiz-adv-x="730" 
d="M48 0l306 700h20l308 -700h-100l-75 177h-286l-73 -177h-100zM255 259h218l-106 251h-7zM271 809q0 39 28 67q27 27 66 27t67 -27q27 -28 27 -67t-27 -66q-28 -28 -67 -28t-66 28q-28 27 -28 66zM317 808q0 -23 13 -36q14 -15 34 -15q22 0 35 15q13 13 13 36q0 22 -13 38
q-13 15 -35 15q-20 0 -34 -15q-13 -16 -13 -38z" />
    <glyph glyph-name="AE" unicode="&#xc6;" horiz-adv-x="980" 
d="M41 0l445 680h397v-82h-291v-203h261v-82h-261v-231h301v-82h-395v177h-242l-115 -177h-100zM309 259h189v281h-6z" />
    <glyph glyph-name="Ccedilla" unicode="&#xc7;" horiz-adv-x="720" 
d="M78 329q0 166 101 267q101 99 244 99q63 0 123 -20q59 -21 95 -48l-22 -83q-99 68 -198 66q-103 -2 -174 -72q-71 -73 -71 -205q0 -115 69 -189q68 -74 178 -74q94 0 207 71l25 -80q-43 -32 -102 -53t-124 -23l-23 -45q44 0 73 -17q27 -17 27 -47q0 -38 -40 -65
q-42 -26 -103 -35l-8 39q40 4 68 19q25 13 25 34q0 32 -77 32q-12 0 -30 -2l-5 7l41 83q-134 15 -216 112q-83 97 -83 229z" />
    <glyph glyph-name="Egrave" unicode="&#xc8;" horiz-adv-x="600" 
d="M118 0v680h385v-82h-291v-203h261v-82h-261v-231h301v-82h-395zM180 862v10h89l106 -124v-8h-61z" />
    <glyph glyph-name="Eacute" unicode="&#xc9;" horiz-adv-x="600" 
d="M118 0v680h385v-82h-291v-203h261v-82h-261v-231h301v-82h-395zM255 740v8l106 124h89v-10l-134 -122h-61z" />
    <glyph glyph-name="Ecircumflex" unicode="&#xca;" horiz-adv-x="600" 
d="M118 0v680h385v-82h-291v-203h261v-82h-261v-231h301v-82h-395zM180 740v8l121 124h28l121 -124v-8h-56l-79 64l-79 -64h-56z" />
    <glyph glyph-name="Edieresis" unicode="&#xcb;" horiz-adv-x="600" 
d="M118 0v680h385v-82h-291v-203h261v-82h-261v-231h301v-82h-395zM188 789q0 20 15 35q14 14 34 14q19 0 35 -14q14 -16 14 -35q0 -20 -14 -34q-15 -15 -35 -15q-21 0 -34 15q-15 13 -15 34zM344 789q0 20 15 35q14 14 34 14q19 0 35 -14q14 -16 14 -35q0 -20 -14 -34
q-15 -15 -35 -15q-21 0 -34 15q-15 13 -15 34z" />
    <glyph glyph-name="Igrave" unicode="&#xcc;" horiz-adv-x="350" 
d="M40 862v10h89l106 -124v-8h-61zM128 0v680h94v-680h-94z" />
    <glyph glyph-name="Iacute" unicode="&#xcd;" horiz-adv-x="350" 
d="M115 740v8l106 124h89v-10l-134 -122h-61zM128 0v680h94v-680h-94z" />
    <glyph glyph-name="Icircumflex" unicode="&#xce;" horiz-adv-x="350" 
d="M40 740v8l121 124h28l121 -124v-8h-56l-79 64l-79 -64h-56zM128 0v680h94v-680h-94z" />
    <glyph glyph-name="Idieresis" unicode="&#xcf;" horiz-adv-x="350" 
d="M48 789q0 20 15 35q14 14 34 14q19 0 35 -14q14 -16 14 -35q0 -20 -14 -34q-15 -15 -35 -15q-21 0 -34 15q-15 13 -15 34zM128 0v680h94v-680h-94zM204 789q0 20 15 35q14 14 34 14q19 0 35 -14q14 -16 14 -35q0 -20 -14 -34q-15 -15 -35 -15t-34 15q-15 13 -15 34z" />
    <glyph glyph-name="Eth" unicode="&#xd0;" horiz-adv-x="740" 
d="M35 303v61h83v316h191q152 0 253 -95q100 -94 100 -251q0 -151 -98 -243q-97 -91 -254 -91h-192v303h-83zM212 82h102q116 0 184 69q66 69 66 185q0 130 -74 196q-75 66 -177 66h-101v-234h151v-61h-151v-221z" />
    <glyph glyph-name="Ntilde" unicode="&#xd1;" horiz-adv-x="830" 
d="M118 0v690h30l462 -497h8v487h94v-690h-30l-462 496h-8v-486h-94zM326 727h-50q0 57 25 88q24 32 59 32q28 0 60 -32t46 -32q15 0 26 18q9 18 9 44h52q0 -47 -23 -84q-24 -36 -60 -36q-23 0 -42 16q-19 15 -34 31t-28 16q-18 0 -29 -17q-11 -19 -11 -44z" />
    <glyph glyph-name="Ograve" unicode="&#xd2;" horiz-adv-x="830" 
d="M78 335q0 158 101 259t237 101q140 0 238 -99q98 -101 98 -261q0 -144 -95 -247q-96 -103 -241 -103q-142 0 -240 101t-98 249zM176 337q0 -108 67 -187q66 -80 175 -80q104 0 170 79t66 188q0 120 -69 197q-70 76 -174 76q-96 0 -165 -75q-70 -74 -70 -198zM280 862v10
h89l106 -124v-8h-61z" />
    <glyph glyph-name="Oacute" unicode="&#xd3;" horiz-adv-x="830" 
d="M78 335q0 158 101 259t237 101q140 0 238 -99q98 -101 98 -261q0 -144 -95 -247q-96 -103 -241 -103q-142 0 -240 101t-98 249zM176 337q0 -108 67 -187q66 -80 175 -80q104 0 170 79t66 188q0 120 -69 197q-70 76 -174 76q-96 0 -165 -75q-70 -74 -70 -198zM355 740v8
l106 124h89v-10l-134 -122h-61z" />
    <glyph glyph-name="Ocircumflex" unicode="&#xd4;" horiz-adv-x="830" 
d="M78 335q0 158 101 259t237 101q140 0 238 -99q98 -101 98 -261q0 -144 -95 -247q-96 -103 -241 -103q-142 0 -240 101t-98 249zM176 337q0 -108 67 -187q66 -80 175 -80q104 0 170 79t66 188q0 120 -69 197q-70 76 -174 76q-96 0 -165 -75q-70 -74 -70 -198zM280 740v8
l121 124h28l121 -124v-8h-56l-79 64l-79 -64h-56z" />
    <glyph glyph-name="Otilde" unicode="&#xd5;" horiz-adv-x="830" 
d="M78 335q0 158 101 259t237 101q140 0 238 -99q98 -101 98 -261q0 -144 -95 -247q-96 -103 -241 -103q-142 0 -240 101t-98 249zM176 337q0 -108 67 -187q66 -80 175 -80q104 0 170 79t66 188q0 120 -69 197q-70 76 -174 76q-96 0 -165 -75q-70 -74 -70 -198zM326 747h-50
q0 57 25 88q24 32 59 32q28 0 60 -32t46 -32q15 0 26 18q9 18 9 44h52q0 -47 -23 -84q-24 -36 -60 -36q-23 0 -42 16q-19 15 -34 31t-28 16q-18 0 -29 -17q-11 -19 -11 -44z" />
    <glyph glyph-name="Odieresis" unicode="&#xd6;" horiz-adv-x="830" 
d="M78 335q0 158 101 259t237 101q140 0 238 -99q98 -101 98 -261q0 -144 -95 -247q-96 -103 -241 -103q-142 0 -240 101t-98 249zM176 337q0 -108 67 -187q66 -80 175 -80q104 0 170 79t66 188q0 120 -69 197q-70 76 -174 76q-96 0 -165 -75q-70 -74 -70 -198zM288 789
q0 20 15 35q14 14 34 14q19 0 35 -14q14 -16 14 -35q0 -20 -14 -34q-15 -15 -35 -15q-21 0 -34 15q-15 13 -15 34zM444 789q0 20 15 35q14 14 34 14q19 0 35 -14q14 -16 14 -35q0 -20 -14 -34q-15 -15 -35 -15q-21 0 -34 15q-15 13 -15 34z" />
    <glyph glyph-name="multiply" unicode="&#xd7;" horiz-adv-x="530" 
d="M53 132l164 164l-164 164l48 48l164 -164l164 164l48 -48l-164 -164l164 -164l-48 -48l-164 164l-164 -164z" />
    <glyph glyph-name="Oslash" unicode="&#xd8;" horiz-adv-x="830" 
d="M78 335q0 158 101 259t237 101q110 0 198 -65l68 84l39 -31l-69 -86q100 -103 100 -262q0 -144 -95 -247q-96 -103 -241 -103q-112 0 -201 66l-70 -88l-39 31l72 90q-100 100 -100 251zM176 337q0 -106 60 -181l322 403q-64 51 -147 51q-96 0 -165 -75q-70 -74 -70 -198z
M593 523l-322 -402q61 -51 147 -51q104 0 170 79t66 188q0 112 -61 186z" />
    <glyph glyph-name="Ugrave" unicode="&#xd9;" horiz-adv-x="770" 
d="M118 237v443h94v-426q0 -186 173 -186q81 0 127 45q46 43 46 141v426h94v-438q0 -106 -68 -182q-69 -75 -199 -75q-60 0 -108 14q-48 16 -76 39q-29 22 -49 57q-18 30 -26 68q-8 37 -8 74zM251 852v10h89l106 -124v-8h-61z" />
    <glyph glyph-name="Uacute" unicode="&#xda;" horiz-adv-x="770" 
d="M118 237v443h94v-426q0 -186 173 -186q81 0 127 45q46 43 46 141v426h94v-438q0 -106 -68 -182q-69 -75 -199 -75q-60 0 -108 14q-48 16 -76 39q-29 22 -49 57q-18 30 -26 68q-8 37 -8 74zM326 730v8l106 124h89v-10l-134 -122h-61z" />
    <glyph glyph-name="Ucircumflex" unicode="&#xdb;" horiz-adv-x="770" 
d="M118 237v443h94v-426q0 -186 173 -186q81 0 127 45q46 43 46 141v426h94v-438q0 -106 -68 -182q-69 -75 -199 -75q-60 0 -108 14q-48 16 -76 39q-29 22 -49 57q-18 30 -26 68q-8 37 -8 74zM251 730v8l121 124h28l121 -124v-8h-56l-79 64l-79 -64h-56z" />
    <glyph glyph-name="Udieresis" unicode="&#xdc;" horiz-adv-x="770" 
d="M118 237v443h94v-426q0 -186 173 -186q81 0 127 45q46 43 46 141v426h94v-438q0 -106 -68 -182q-69 -75 -199 -75q-60 0 -108 14q-48 16 -76 39q-29 22 -49 57q-18 30 -26 68q-8 37 -8 74zM259 779q0 20 15 35q14 14 34 14q19 0 35 -14q14 -16 14 -35q0 -20 -14 -34
q-15 -15 -35 -15t-34 15q-15 13 -15 34zM415 779q0 20 15 35q14 14 34 14q19 0 35 -14q14 -16 14 -35q0 -20 -14 -34q-15 -15 -35 -15t-34 15q-15 13 -15 34z" />
    <glyph glyph-name="Yacute" unicode="&#xdd;" horiz-adv-x="670" 
d="M48 680h104l181 -286h8l177 286h104l-240 -377v-303h-94v303zM276 730v8l106 124h89v-10l-134 -122h-61z" />
    <glyph glyph-name="Thorn" unicode="&#xde;" horiz-adv-x="580" 
d="M118 0v680h94v-131h74q103 0 168 -53q63 -53 63 -143q0 -95 -66 -154t-174 -57h-65v-142h-94zM212 221h70q59 0 99 32q38 32 38 98q0 55 -36 87q-37 32 -96 32h-75v-249z" />
    <glyph glyph-name="germandbls" unicode="&#xdf;" horiz-adv-x="620" 
d="M93 0v422q26 36 79 62q54 26 124 26q92 0 145 -36q51 -38 51 -87q0 -26 -14 -46q-15 -19 -32 -30q-19 -12 -31 -24q-15 -13 -15 -29q0 -15 27 -30q24 -14 58 -27q32 -12 58 -37q26 -26 26 -58q0 -58 -51 -86q-51 -30 -121 -30q-102 0 -141 33l24 79q53 -29 118 -29
q37 0 57 10q20 9 20 23q0 15 -26 32q-28 16 -58 27q-31 10 -58 34q-27 22 -27 53q0 22 14 42q13 18 31 30q20 13 31 26q14 16 14 31q0 22 -28 34q-30 11 -68 11q-82 0 -115 -43v-383h-92z" />
    <glyph glyph-name="agrave" unicode="&#xe0;" horiz-adv-x="570" 
d="M38 0l236 505h20l238 -505h-95l-49 108h-207l-47 -108h-96zM160 712v10h84l96 -164v-8h-61zM214 185h140l-67 150h-7z" />
    <glyph glyph-name="aacute" unicode="&#xe1;" horiz-adv-x="570" 
d="M38 0l236 505h20l238 -505h-95l-49 108h-207l-47 -108h-96zM214 185h140l-67 150h-7zM230 550v8l96 164h84v-10l-119 -162h-61z" />
    <glyph glyph-name="acircumflex" unicode="&#xe2;" horiz-adv-x="570" 
d="M38 0l236 505h20l238 -505h-95l-49 108h-207l-47 -108h-96zM150 550v8l121 164h28l121 -164v-8h-56l-79 94l-79 -94h-56zM214 185h140l-67 150h-7z" />
    <glyph glyph-name="atilde" unicode="&#xe3;" horiz-adv-x="570" 
d="M38 0l236 505h20l238 -505h-95l-49 108h-207l-47 -108h-96zM196 567h-50q0 57 25 88q24 32 59 32q28 0 60 -32t46 -32q16 0 26 18q9 18 9 44h52q0 -47 -23 -84q-24 -36 -60 -36q-23 0 -42 16q-19 15 -34 31t-28 16q-18 0 -29 -17q-11 -19 -11 -44zM214 185h140l-67 150
h-7z" />
    <glyph glyph-name="adieresis" unicode="&#xe4;" horiz-adv-x="570" 
d="M38 0l236 505h20l238 -505h-95l-49 108h-207l-47 -108h-96zM158 609q0 20 15 35q14 14 34 14q19 0 35 -14q14 -16 14 -35q0 -20 -14 -34q-15 -15 -35 -15q-21 0 -34 15q-15 13 -15 34zM214 185h140l-67 150h-7zM314 609q0 20 15 35q14 14 34 14q19 0 35 -14
q14 -16 14 -35q0 -20 -14 -34q-15 -15 -35 -15q-21 0 -34 15q-15 13 -15 34z" />
    <glyph glyph-name="aring" unicode="&#xe5;" horiz-adv-x="570" 
d="M38 0l236 505h20l238 -505h-95l-49 108h-207l-47 -108h-96zM191 629q0 39 28 67q27 27 66 27t67 -27q27 -28 27 -67t-27 -66q-28 -28 -67 -28t-66 28q-28 27 -28 66zM214 185h140l-67 150h-7zM237 628q0 -23 13 -36q14 -15 34 -15q22 0 35 15q13 13 13 36q0 22 -13 38
q-13 15 -35 15q-20 0 -34 -15q-13 -16 -13 -38z" />
    <glyph glyph-name="ae" unicode="&#xe6;" horiz-adv-x="800" 
d="M28 0l344 500h336v-79h-243v-127h213v-79h-213v-136h253v-79h-345v108h-174l-73 -108h-98zM251 185h122v173h-4z" />
    <glyph glyph-name="ccedilla" unicode="&#xe7;" horiz-adv-x="570" 
d="M58 244q0 119 80 193q79 73 190 73q102 0 176 -53l-30 -78q-72 49 -148 48q-73 -2 -123 -46q-52 -46 -52 -135q0 -76 50 -124q49 -49 127 -49q79 0 147 53l35 -75q-75 -55 -170 -60l-26 -51q44 0 73 -17q27 -17 27 -47q0 -38 -40 -65q-42 -26 -103 -35l-8 39q40 4 68 19
q25 13 25 34q0 32 -77 32q-12 0 -30 -2l-5 7l44 88q-101 12 -166 83q-64 70 -64 168z" />
    <glyph glyph-name="egrave" unicode="&#xe8;" horiz-adv-x="520" 
d="M93 0v500h335v-79h-243v-127h213v-79h-213v-136h253v-79h-345zM138 712v10h84l96 -164v-8h-61z" />
    <glyph glyph-name="eacute" unicode="&#xe9;" horiz-adv-x="520" 
d="M93 0v500h335v-79h-243v-127h213v-79h-213v-136h253v-79h-345zM208 550v8l96 164h84v-10l-119 -162h-61z" />
    <glyph glyph-name="ecircumflex" unicode="&#xea;" horiz-adv-x="520" 
d="M93 0v500h335v-79h-243v-127h213v-79h-213v-136h253v-79h-345zM128 550v8l121 164h28l121 -164v-8h-56l-79 94l-79 -94h-56z" />
    <glyph glyph-name="edieresis" unicode="&#xeb;" horiz-adv-x="520" 
d="M93 0v500h335v-79h-243v-127h213v-79h-213v-136h253v-79h-345zM136 609q0 20 15 35q14 14 34 14q19 0 35 -14q14 -16 14 -35q0 -20 -14 -34q-15 -15 -35 -15q-21 0 -34 15q-15 13 -15 34zM292 609q0 20 15 35q14 14 34 14q19 0 35 -14q14 -16 14 -35q0 -20 -14 -34
q-15 -15 -35 -15q-21 0 -34 15q-15 13 -15 34z" />
    <glyph glyph-name="igrave" unicode="&#xec;" 
d="M25 712v10h84l96 -164v-8h-61zM109 0v500h92v-500h-92z" />
    <glyph glyph-name="iacute" unicode="&#xed;" 
d="M95 550v8l96 164h84v-10l-119 -162h-61zM109 0v500h92v-500h-92z" />
    <glyph glyph-name="icircumflex" unicode="&#xee;" 
d="M15 550v8l121 164h28l121 -164v-8h-56l-79 94l-79 -94h-56zM109 0v500h92v-500h-92z" />
    <glyph glyph-name="idieresis" unicode="&#xef;" 
d="M23 609q0 20 15 35q14 14 34 14q19 0 35 -14q14 -16 14 -35q0 -20 -14 -34q-15 -15 -35 -15t-34 15q-15 13 -15 34zM109 0v500h92v-500h-92zM179 609q0 20 15 35q14 14 34 14q19 0 35 -14q14 -16 14 -35q0 -20 -14 -34q-15 -15 -35 -15t-34 15q-15 13 -15 34z" />
    <glyph glyph-name="eth" unicode="&#xf0;" horiz-adv-x="580" 
d="M25 222v61h68v217h166q111 0 187 -69t76 -177q0 -120 -72 -187q-73 -67 -190 -67h-167v222h-68zM185 79h79q77 0 121 47q43 46 43 130q0 72 -51 118q-53 47 -114 47h-78v-138h102v-61h-102v-143z" />
    <glyph glyph-name="ntilde" unicode="&#xf1;" horiz-adv-x="650" 
d="M93 0v505h30l334 -330h8v325h92v-505h-30l-334 329h-8v-324h-92zM236 567h-50q0 57 25 88q24 32 59 32q28 0 60 -32t46 -32q16 0 26 18q9 18 9 44h52q0 -47 -23 -84q-24 -36 -60 -36q-23 0 -42 16q-19 15 -34 31t-28 16q-18 0 -29 -17q-11 -19 -11 -44z" />
    <glyph glyph-name="ograve" unicode="&#xf2;" horiz-adv-x="650" 
d="M58 244q0 117 79 192q80 74 189 74q108 0 187 -73t79 -193q0 -102 -76 -178t-190 -76q-113 0 -190 74q-78 74 -78 180zM152 246q0 -71 48 -122q47 -51 128 -51q75 0 123 52q47 52 47 121q0 78 -50 130q-50 51 -123 51t-122 -48q-51 -49 -51 -133zM200 712v10h84l96 -164
v-8h-61z" />
    <glyph glyph-name="oacute" unicode="&#xf3;" horiz-adv-x="650" 
d="M58 244q0 117 79 192q80 74 189 74q108 0 187 -73t79 -193q0 -102 -76 -178t-190 -76q-113 0 -190 74q-78 74 -78 180zM152 246q0 -71 48 -122q47 -51 128 -51q75 0 123 52q47 52 47 121q0 78 -50 130q-50 51 -123 51t-122 -48q-51 -49 -51 -133zM270 550v8l96 164h84
v-10l-119 -162h-61z" />
    <glyph glyph-name="ocircumflex" unicode="&#xf4;" horiz-adv-x="650" 
d="M58 244q0 117 79 192q80 74 189 74q108 0 187 -73t79 -193q0 -102 -76 -178t-190 -76q-113 0 -190 74q-78 74 -78 180zM152 246q0 -71 48 -122q47 -51 128 -51q75 0 123 52q47 52 47 121q0 78 -50 130q-50 51 -123 51t-122 -48q-51 -49 -51 -133zM190 550v8l121 164h28
l121 -164v-8h-56l-79 94l-79 -94h-56z" />
    <glyph glyph-name="otilde" unicode="&#xf5;" horiz-adv-x="650" 
d="M58 244q0 117 79 192q80 74 189 74q108 0 187 -73t79 -193q0 -102 -76 -178t-190 -76q-113 0 -190 74q-78 74 -78 180zM152 246q0 -71 48 -122q47 -51 128 -51q75 0 123 52q47 52 47 121q0 78 -50 130q-50 51 -123 51t-122 -48q-51 -49 -51 -133zM236 567h-50q0 57 25 88
q24 32 59 32q28 0 60 -32t46 -32q16 0 26 18q9 18 9 44h52q0 -47 -23 -84q-24 -36 -60 -36q-23 0 -42 16q-19 15 -34 31t-28 16q-18 0 -29 -17q-11 -19 -11 -44z" />
    <glyph glyph-name="odieresis" unicode="&#xf6;" horiz-adv-x="650" 
d="M58 244q0 117 79 192q80 74 189 74q108 0 187 -73t79 -193q0 -102 -76 -178t-190 -76q-113 0 -190 74q-78 74 -78 180zM152 246q0 -71 48 -122q47 -51 128 -51q75 0 123 52q47 52 47 121q0 78 -50 130q-50 51 -123 51t-122 -48q-51 -49 -51 -133zM198 609q0 20 15 35
q14 14 34 14q19 0 35 -14q14 -16 14 -35q0 -20 -14 -34q-15 -15 -35 -15q-21 0 -34 15q-15 13 -15 34zM354 609q0 20 15 35q14 14 34 14q19 0 35 -14q14 -16 14 -35q0 -20 -14 -34q-15 -15 -35 -15q-21 0 -34 15q-15 13 -15 34z" />
    <glyph glyph-name="divide" unicode="&#xf7;" horiz-adv-x="530" 
d="M33 267v68h464v-68h-464zM205 137q0 25 18 43q17 17 42 17q24 0 43 -17q17 -19 17 -43q0 -25 -17 -42q-18 -18 -43 -18t-42 18q-18 17 -18 42zM205 465q0 25 18 43q17 17 42 17q24 0 43 -17q17 -19 17 -43q0 -25 -17 -42q-18 -18 -43 -18t-42 18q-18 17 -18 42z" />
    <glyph glyph-name="oslash" unicode="&#xf8;" horiz-adv-x="650" 
d="M58 244q0 117 79 192q80 74 189 74q83 0 154 -47l47 55l36 -27l-49 -56q78 -77 78 -191q0 -102 -76 -178t-190 -76q-88 0 -155 45l-52 -61l-36 27l53 62q-78 72 -78 181zM152 246q0 -69 41 -116l230 267q-44 30 -98 30q-73 0 -122 -48q-51 -49 -51 -133zM456 366
l-228 -265q41 -28 100 -28q75 0 123 52q47 52 47 121q0 70 -42 120z" />
    <glyph glyph-name="ugrave" unicode="&#xf9;" horiz-adv-x="630" 
d="M93 212v288h92v-271q0 -156 130 -156q59 0 95 39q36 38 35 117v271h92v-283q0 -94 -57 -160q-57 -67 -165 -67q-119 0 -170 63q-52 62 -52 159zM190 712v10h84l96 -164v-8h-61z" />
    <glyph glyph-name="uacute" unicode="&#xfa;" horiz-adv-x="630" 
d="M93 212v288h92v-271q0 -156 130 -156q59 0 95 39q36 38 35 117v271h92v-283q0 -94 -57 -160q-57 -67 -165 -67q-119 0 -170 63q-52 62 -52 159zM260 550v8l96 164h84v-10l-119 -162h-61z" />
    <glyph glyph-name="ucircumflex" unicode="&#xfb;" horiz-adv-x="630" 
d="M93 212v288h92v-271q0 -156 130 -156q59 0 95 39q36 38 35 117v271h92v-283q0 -94 -57 -160q-57 -67 -165 -67q-119 0 -170 63q-52 62 -52 159zM180 550v8l121 164h28l121 -164v-8h-56l-79 94l-79 -94h-56z" />
    <glyph glyph-name="udieresis" unicode="&#xfc;" horiz-adv-x="630" 
d="M93 212v288h92v-271q0 -156 130 -156q59 0 95 39q36 38 35 117v271h92v-283q0 -94 -57 -160q-57 -67 -165 -67q-119 0 -170 63q-52 62 -52 159zM188 609q0 20 15 35q14 14 34 14q19 0 35 -14q14 -16 14 -35q0 -20 -14 -34q-15 -15 -35 -15q-21 0 -34 15q-15 13 -15 34z
M344 609q0 20 15 35q14 14 34 14q19 0 35 -14q14 -16 14 -35q0 -20 -14 -34q-15 -15 -35 -15q-21 0 -34 15q-15 13 -15 34z" />
    <glyph glyph-name="yacute" unicode="&#xfd;" horiz-adv-x="530" 
d="M28 500h98l138 -215h4l136 215h98l-191 -297v-203h-92v203zM210 550v8l96 164h84v-10l-119 -162h-61z" />
    <glyph glyph-name="thorn" unicode="&#xfe;" horiz-adv-x="500" 
d="M93 0v500h92v-80h91q78 0 127 -43t49 -115q0 -60 -45 -110t-140 -50h-82v-102h-92zM185 178h85q43 0 65 22q23 23 23 63t-23 61q-25 20 -63 20h-87v-166z" />
    <glyph glyph-name="ydieresis" unicode="&#xff;" horiz-adv-x="530" 
d="M28 500h98l138 -215h4l136 215h98l-191 -297v-203h-92v203zM138 609q0 20 15 35q14 14 34 14q19 0 35 -14q14 -16 14 -35q0 -20 -14 -34q-15 -15 -35 -15q-21 0 -34 15q-15 13 -15 34zM294 609q0 20 15 35q14 14 34 14q19 0 35 -14q14 -16 14 -35q0 -20 -14 -34
q-15 -15 -35 -15q-21 0 -34 15q-15 13 -15 34z" />
    <glyph glyph-name="Abreve" unicode="&#x102;" horiz-adv-x="730" 
d="M354 700h20l308 -700h-100l-75 177h-286l-73 -177h-100zM360 510l-105 -251h218l-106 251h-7zM277 912h-47q0 -83 39 -127q37 -45 95 -45q57 0 97 45q39 45 39 127h-47q0 -50 -25 -81q-26 -32 -63 -32q-39 0 -63 35q-25 34 -25 78z" />
    <glyph glyph-name="abreve" unicode="&#x103;" horiz-adv-x="570" 
d="M274 505h20l238 -505h-95l-49 108h-207l-47 -108h-96zM280 335l-66 -150h140l-67 150h-7zM197 682h-47q0 -65 39 -98q37 -34 95 -34q57 0 97 34q39 33 39 98h-47q0 -32 -26 -55t-62 -23q-39 0 -63 24q-25 22 -25 54z" />
    <glyph glyph-name="dotlessi" unicode="&#x131;" 
d="M109 0v500h92v-500h-92z" />
    <glyph glyph-name="Lslash" unicode="&#x141;" horiz-adv-x="560" 
d="M28 243l90 58v379h94v-317l140 91l33 -48l-173 -113v-211h290v-82h-384v232l-57 -37z" />
    <glyph glyph-name="lslash" unicode="&#x142;" horiz-adv-x="460" 
d="M26 209l67 45v246h92v-184l65 44l25 -38l-90 -61v-182h222v-79h-314v199l-42 -28z" />
    <glyph glyph-name="OE" unicode="&#x152;" horiz-adv-x="1000" 
d="M78 335q0 158 101 259t237 101q52 0 102 -15h385v-82h-291v-203h261v-82h-261v-231h301v-82h-395q-52 -15 -102 -15q-142 0 -240 101t-98 249zM176 337q0 -108 67 -187q66 -80 175 -80q52 0 100 23v492q-49 25 -107 25q-96 0 -165 -75q-70 -74 -70 -198z" />
    <glyph glyph-name="oe" unicode="&#x153;" horiz-adv-x="830" 
d="M58 244q0 117 79 192q80 74 189 74q43 0 77 -10h335v-79h-243v-127h213v-79h-213v-136h253v-79h-345v1q-39 -11 -77 -11q-113 0 -190 74q-78 74 -78 180zM152 246q0 -71 48 -122q47 -51 128 -51q39 0 75 17v319q-36 18 -78 18q-73 0 -122 -48q-51 -49 -51 -133z" />
    <glyph glyph-name="Scaron" unicode="&#x160;" horiz-adv-x="590" 
d="M78 48l24 87q85 -67 183 -67q63 0 94 29q30 29 30 74q0 39 -26 68q-25 28 -95 69q-111 64 -150 105q-40 40 -40 104q0 73 55 125q56 53 158 53q101 0 180 -57l-22 -82q-77 57 -156 57q-121 0 -121 -89q0 -35 28 -62q30 -28 110 -72q94 -51 135 -102q41 -52 41 -112
q0 -92 -60 -142q-61 -49 -162 -49q-66 0 -122 19q-59 20 -84 44zM174 864v8h56l79 -64l79 64h56v-8l-121 -124h-28z" />
    <glyph glyph-name="scaron" unicode="&#x161;" horiz-adv-x="520" 
d="M68 43l24 81q81 -54 158 -54q50 0 77 18q27 16 27 43q0 29 -27 50q-30 22 -94 47q-78 32 -111 63q-34 31 -34 81q0 57 46 97q47 41 130 41q97 0 167 -47l-23 -77q-64 45 -143 45q-42 0 -65 -14q-23 -15 -23 -38q0 -25 24 -43q21 -17 98 -50q80 -34 113 -70q34 -37 34 -89
q0 -67 -53 -102q-55 -35 -144 -35q-60 0 -108 16q-52 17 -73 37zM125 714v8h56l79 -94l79 94h56v-8l-121 -164h-28z" />
    <glyph glyph-name="Ydieresis" unicode="&#x178;" horiz-adv-x="670" 
d="M48 680h104l181 -286h8l177 286h104l-240 -377v-303h-94v303zM209 779q0 20 15 35q14 14 34 14q19 0 35 -14q14 -16 14 -35q0 -20 -14 -34q-15 -15 -35 -15t-34 15q-15 13 -15 34zM365 779q0 20 15 35q14 14 34 14q19 0 35 -14q14 -16 14 -35q0 -20 -14 -34
q-15 -15 -35 -15t-34 15q-15 13 -15 34z" />
    <glyph glyph-name="Zcaron" unicode="&#x17d;" horiz-adv-x="690" 
d="M64 10l409 582l-5 6h-365v82h528l5 -5l-413 -587l5 -6h389v-82h-547zM215 864v8h56l79 -64l79 64h56v-8l-121 -124h-28z" />
    <glyph glyph-name="zcaron" unicode="&#x17e;" horiz-adv-x="560" 
d="M56 10l289 406l-3 5h-265v79h422l5 -5l-293 -412l3 -4h286v-79h-438zM155 714v8h56l79 -94l79 94h56v-8l-121 -164h-28z" />
    <glyph glyph-name="florin" unicode="&#x192;" horiz-adv-x="530" 
d="M-77 -81q0 19 10 32t27 13q14 0 25 -11q12 -12 17 -23q6 -14 16 -24q9 -10 20 -10q33 0 64 130l86 340h-99l14 49h94l25 100q16 68 68 125q51 55 125 55q55 0 90 -21q35 -23 35 -52q0 -19 -11 -33t-34 -14q-17 0 -28 12q-13 11 -17 24q-4 12 -17 25q-14 11 -32 11
q-31 0 -50 -34q-21 -38 -40 -105l-26 -93h120l-14 -49h-117l-88 -327q-22 -83 -65 -137q-43 -52 -100 -52q-42 0 -70 19t-28 50z" />
    <glyph glyph-name="Scommaaccent" unicode="&#x218;" horiz-adv-x="590" 
d="M102 135l-24 -87q25 -24 84 -44q56 -19 122 -19q101 0 162 49q60 49 60 142q0 60 -41 112q-41 51 -135 102q-80 44 -110 72q-28 27 -28 62q0 89 121 89q79 0 156 -57l22 82q-79 57 -180 57q-102 0 -158 -53q-55 -52 -55 -125q0 -64 40 -104q39 -41 150 -105
q70 -41 95 -69q26 -29 26 -68q0 -45 -30 -74q-31 -29 -94 -29q-98 0 -183 67zM251 -60l-96 -164v-8h61l119 162v10h-84z" />
    <glyph glyph-name="scommaaccent" unicode="&#x219;" horiz-adv-x="520" 
d="M92 124l-24 -81q21 -20 73 -37q48 -16 108 -16q89 0 144 35q53 35 53 102q0 52 -34 89q-33 36 -113 70q-77 33 -98 50q-24 18 -24 43q0 23 23 38q23 14 65 14q79 0 143 -45l23 77q-70 47 -167 47q-83 0 -130 -41q-46 -40 -46 -97q0 -50 34 -81q33 -31 111 -63
q64 -25 94 -47q27 -21 27 -50q0 -27 -27 -43q-27 -18 -77 -18q-77 0 -158 54zM214 -50l-106 -124v-8h61l134 122v10h-89z" />
    <glyph glyph-name="Tcommaaccent" unicode="&#x21a;" horiz-adv-x="630" 
d="M582 680h-534v-82h220v-598h94v598h220v82zM269 -60l-96 -164v-8h61l119 162v10h-84z" />
    <glyph glyph-name="tcommaaccent" unicode="&#x21b;" horiz-adv-x="550" 
d="M492 500h-434v-79h170v-420h92v420h172v79zM229 -49l-106 -124v-8h61l134 122v10h-89z" />
    <glyph glyph-name="circumflex" unicode="&#x2c6;" horiz-adv-x="500" 
d="M115 448v8l121 164h28l121 -164v-8h-56l-79 94l-79 -94h-56z" />
    <glyph glyph-name="caron" unicode="&#x2c7;" horiz-adv-x="500" 
d="M115 612v8h56l79 -94l79 94h56v-8l-121 -164h-28z" />
    <glyph glyph-name="breve" unicode="&#x2d8;" horiz-adv-x="500" 
d="M115 620h47q0 -44 25 -78q24 -35 63 -35q37 0 63 32q25 31 25 81h47q0 -82 -39 -127q-40 -45 -97 -45t-95 45q-39 43 -39 127z" />
    <glyph glyph-name="dotaccent" unicode="&#x2d9;" horiz-adv-x="500" 
d="M185 512q0 27 19 46q18 19 45 19q28 0 47 -19t19 -46t-19 -45q-19 -19 -47 -19q-27 0 -45 19q-19 18 -19 45z" />
    <glyph glyph-name="ring" unicode="&#x2da;" horiz-adv-x="500" 
d="M156 527q0 39 28 67q27 27 66 27q38 0 67 -27q27 -28 27 -67t-27 -66q-28 -28 -67 -28t-66 28q-28 27 -28 66zM202 526q0 -23 13 -36q13 -15 34 -15t35 15q13 13 13 36q0 22 -13 38q-14 15 -35 15t-34 -15q-13 -16 -13 -38z" />
    <glyph glyph-name="ogonek" unicode="&#x2db;" horiz-adv-x="500" 
d="M158 -121q0 41 33 81q34 41 78 59l41 1v-7q-40 -18 -69 -53t-29 -67q0 -41 43 -41t70 31l16 -14q-43 -63 -107 -63q-30 0 -53 18q-23 20 -23 55z" />
    <glyph glyph-name="tilde" unicode="&#x2dc;" horiz-adv-x="500" 
d="M161 465h-50q0 57 25 88q24 32 59 32q23 0 42 -16q26 -22 36 -32q15 -16 28 -16q15 0 26 18q9 18 9 44h52q0 -47 -23 -84q-24 -36 -60 -36q-23 0 -42 16q-19 15 -34 31t-28 16q-18 0 -29 -17q-11 -19 -11 -44z" />
    <glyph glyph-name="hungarumlaut" unicode="&#x2dd;" horiz-adv-x="500" 
d="M95 448v8l86 164h94v-10l-129 -162h-51zM225 448v8l86 164h94v-10l-129 -162h-51z" />
    <glyph glyph-name="Delta" unicode="&#x394;" horiz-adv-x="590" 
d="M15 0l258 695h25l277 -695h-560zM127 82h317l-166 421z" />
    <glyph glyph-name="Omega" unicode="&#x3a9;" horiz-adv-x="590" 
d="M26 0v82h115v5q-45 50 -74 130q-30 79 -30 165q0 143 70 228t188 85q117 0 188 -87q70 -86 70 -226q0 -84 -29 -165q-31 -81 -75 -130v-5h115v-82h-238v63q53 17 91 109q37 90 37 212q0 97 -41 162q-40 64 -119 64q-82 0 -119 -64q-39 -64 -39 -169q0 -116 38 -207
t90 -107v-63h-238z" />
    <glyph glyph-name="mu" unicode="&#x3bc;" horiz-adv-x="530" 
d="M70 -157q0 9 6 125q5 130 5 188l-1 292h90v-278q0 -60 18 -81q16 -22 55 -22q36 0 70 25q33 23 47 59v297h90v-347q0 -43 21 -43t34 34l28 -11q-15 -47 -41 -68q-26 -22 -53 -22q-31 0 -48 15q-18 14 -26 46h-10q-57 -66 -135 -66q-48 0 -82 25q18 -151 18 -160
q0 -60 -44 -60q-42 0 -42 52z" />
    <glyph glyph-name="pi" unicode="&#x3c0;" horiz-adv-x="550" 
d="M96 340l-32 5q13 55 33 79q19 24 52 24h352v-72h-86l-21 -258q-4 -61 27 -61q23 0 40 42l40 -8q-19 -51 -43 -75q-25 -23 -59 -23q-43 0 -63 29t-15 79l26 275h-98q-3 -123 -17 -209q-15 -84 -55 -145q-27 -41 -67 -31q-30 8 -34 31q-4 20 17 40q51 51 71 123
q18 71 18 191h-26q-50 0 -60 -36z" />
    <glyph glyph-name="uni1e9e" unicode="&#x1e9e;" horiz-adv-x="720" 
d="M118 0v607q27 35 83 62q57 26 130 26q103 0 159 -43q57 -44 57 -105q0 -36 -20 -65q-23 -31 -46 -43q-25 -15 -45 -36q-21 -23 -21 -48q0 -23 25 -39q25 -19 59 -32q23 -9 71 -31q34 -16 60 -47q24 -30 24 -70q0 -73 -57 -112q-59 -39 -135 -39q-116 0 -166 33l24 83
q68 -33 143 -33q45 0 70 19q24 18 24 44q0 30 -37 52q-36 21 -81 37q-44 15 -81 49t-37 83q0 38 21 67q19 28 44 42q22 12 45 37q20 23 20 50q0 32 -34 50t-82 18q-42 0 -78 -14q-35 -15 -45 -34v-568h-94z" />
    <glyph glyph-name="uni2000" unicode="&#x2000;" horiz-adv-x="451" 
 />
    <glyph glyph-name="uni2001" unicode="&#x2001;" horiz-adv-x="903" 
 />
    <glyph glyph-name="uni2002" unicode="&#x2002;" horiz-adv-x="451" 
 />
    <glyph glyph-name="uni2003" unicode="&#x2003;" horiz-adv-x="903" 
 />
    <glyph glyph-name="uni2004" unicode="&#x2004;" horiz-adv-x="301" 
 />
    <glyph glyph-name="uni2005" unicode="&#x2005;" horiz-adv-x="225" 
 />
    <glyph glyph-name="uni2006" unicode="&#x2006;" horiz-adv-x="150" 
 />
    <glyph glyph-name="uni2007" unicode="&#x2007;" horiz-adv-x="150" 
 />
    <glyph glyph-name="uni2008" unicode="&#x2008;" horiz-adv-x="112" 
 />
    <glyph glyph-name="uni2009" unicode="&#x2009;" horiz-adv-x="180" 
 />
    <glyph glyph-name="uni200A" unicode="&#x200a;" horiz-adv-x="50" 
 />
    <glyph glyph-name="uni2010" unicode="&#x2010;" horiz-adv-x="430" 
d="M85 198v84h260v-84h-260z" />
    <glyph glyph-name="uni2011" unicode="&#x2011;" horiz-adv-x="430" 
d="M85 198v84h260v-84h-260z" />
    <glyph glyph-name="figuredash" unicode="&#x2012;" horiz-adv-x="430" 
d="M85 198v84h260v-84h-260z" />
    <glyph glyph-name="endash" unicode="&#x2013;" horiz-adv-x="570" 
d="M85 198v84h400v-84h-400z" />
    <glyph glyph-name="emdash" unicode="&#x2014;" horiz-adv-x="1090" 
d="M137 204v73h816v-73h-816z" />
    <glyph glyph-name="quoteleft" unicode="&#x2018;" horiz-adv-x="300" 
d="M61 434l112 246h63l-69 -246h-106z" />
    <glyph glyph-name="quoteright" unicode="&#x2019;" horiz-adv-x="300" 
d="M64 434l69 246h106l-112 -246h-63z" />
    <glyph glyph-name="quotesinglbase" unicode="&#x201a;" horiz-adv-x="300" 
d="M64 -131l69 246h106l-112 -246h-63z" />
    <glyph glyph-name="quotedblleft" unicode="&#x201c;" horiz-adv-x="490" 
d="M61 434l112 246h63l-69 -246h-106zM251 434l112 246h63l-69 -246h-106z" />
    <glyph glyph-name="quotedblright" unicode="&#x201d;" horiz-adv-x="490" 
d="M64 434l69 246h106l-112 -246h-63zM254 434l69 246h106l-112 -246h-63z" />
    <glyph glyph-name="quotedblbase" unicode="&#x201e;" horiz-adv-x="490" 
d="M64 -131l69 246h106l-112 -246h-63zM254 -131l69 246h106l-112 -246h-63z" />
    <glyph glyph-name="dagger" unicode="&#x2020;" horiz-adv-x="560" 
d="M115 514v68l132 -8l-5 149h76l-5 -149l132 8v-68l-134 8l-11 -330h-40l-11 330z" />
    <glyph glyph-name="daggerdbl" unicode="&#x2021;" horiz-adv-x="560" 
d="M115 514v68l132 -8l-5 149h76l-5 -149l132 8v-68l-134 8l-4 -100l123 9v-68l-124 8l-6 -179h-40l-6 179l-124 -8v68l122 -8l-3 99z" />
    <glyph glyph-name="bullet" unicode="&#x2022;" horiz-adv-x="570" 
d="M149 264q0 56 40 96t96 40t96 -40t40 -96t-40 -96t-96 -40t-96 40t-40 96z" />
    <glyph glyph-name="ellipsis" unicode="&#x2026;" horiz-adv-x="1000" 
d="M120 53q0 25 18 43q17 17 42 17q24 0 43 -17q17 -19 17 -43q0 -25 -17 -42q-18 -18 -43 -18q-26 0 -42 18q-18 17 -18 42zM440 53q0 25 18 43q17 17 42 17q24 0 43 -17q17 -19 17 -43q0 -25 -17 -42q-18 -18 -43 -18q-26 0 -42 18q-18 17 -18 42zM760 53q0 25 18 43
q17 17 42 17q24 0 43 -17q17 -19 17 -43q0 -25 -17 -42q-18 -18 -43 -18q-26 0 -42 18q-18 17 -18 42z" />
    <glyph glyph-name="uni202F" unicode="&#x202f;" horiz-adv-x="180" 
 />
    <glyph glyph-name="perthousand" unicode="&#x2030;" horiz-adv-x="1010" 
d="M55 528q0 71 40 117q39 46 98 46q65 0 105 -45q39 -46 39 -118q0 -68 -41 -112q-40 -45 -100 -45t-100 45q-41 44 -41 112zM72 17l271 345l228 327l57 -25l-255 -323l-245 -350zM128 529q0 -43 20 -69t51 -26q27 0 47 26q18 26 18 69q0 45 -18 72q-20 27 -50 27t-49 -28
t-19 -71zM363 146q0 71 40 117q39 46 98 46q65 0 105 -45q39 -46 39 -118q0 -68 -41 -112q-40 -45 -100 -45t-100 45q-41 44 -41 112zM436 147q0 -43 20 -69t51 -26q27 0 47 26q18 26 18 69q0 45 -18 72q-20 27 -50 27t-49 -28t-19 -71zM673 146q0 71 40 117q39 46 98 46
q65 0 105 -45q39 -46 39 -118q0 -68 -41 -112q-40 -45 -100 -45t-100 45q-41 44 -41 112zM746 147q0 -43 20 -69t51 -26q27 0 47 26q18 26 18 69q0 45 -18 72q-19 27 -50 27q-30 0 -49 -28t-19 -71z" />
    <glyph glyph-name="uni2032" unicode="&#x2032;" horiz-adv-x="300" 
d="M63 422l70 266l96 -34l-114 -250z" />
    <glyph glyph-name="uni2033" unicode="&#x2033;" horiz-adv-x="490" 
d="M63 422l70 266l96 -34l-114 -250zM253 422l70 266l96 -34l-114 -250z" />
    <glyph glyph-name="guilsinglleft" unicode="&#x2039;" horiz-adv-x="430" 
d="M85 222v13l197 224l51 -36l-136 -188v-10l136 -192l-51 -37z" />
    <glyph glyph-name="guilsinglright" unicode="&#x203a;" horiz-adv-x="430" 
d="M97 33l136 192v10l-136 188l51 36l197 -224v-13l-197 -226z" />
    <glyph glyph-name="uni2042" unicode="&#x2042;" horiz-adv-x="860" 
d="M78 161l25 80l112 -53l-21 151h91l-32 -152l116 63l24 -84l-132 -15l118 -100l-65 -56l-78 134l-78 -139l-64 60l110 98zM276 524l25 80l112 -53l-21 151h91l-32 -152l116 63l24 -84l-132 -15l118 -100l-65 -56l-78 134l-78 -139l-64 60l110 98zM468 166l25 80l112 -53
l-21 151h91l-32 -152l116 63l24 -84l-132 -15l118 -100l-65 -56l-78 134l-78 -139l-64 60l110 98z" />
    <glyph glyph-name="fraction" unicode="&#x2044;" horiz-adv-x="760" 
d="M115 -24l245 370l220 353l46 -26l-237 -349l-228 -376z" />
    <glyph glyph-name="uni205F" unicode="&#x205f;" horiz-adv-x="225" 
 />
    <glyph glyph-name="zero.sups" unicode="&#x2070;" 
d="M24 606q0 98 37 144q38 47 96 47q59 0 95 -49q35 -50 35 -142q0 -99 -35 -149q-36 -50 -95 -50q-60 0 -96 48q-37 46 -37 151zM90 607q0 -70 20 -105t47 -35q64 0 64 140q0 61 -18 95q-18 35 -48 35q-27 0 -46 -33q-19 -34 -19 -97z" />
    <glyph glyph-name="four.sups" unicode="&#x2074;" 
d="M24 544l159 245h66v-212l43 1v-58h-43v-105h-63v105h-153zM101 578l3 -6l82 2v131h-7z" />
    <glyph glyph-name="five.sups" unicode="&#x2075;" 
d="M37 413l9 58q15 -5 52 -5q55 0 86 23q29 23 29 55q0 57 -122 57q-21 0 -44 -3l-2 2l21 189h199l-6 -63l-145 6l-10 -77q7 1 31 1q74 0 111 -31q36 -31 36 -79q0 -67 -53 -103q-54 -36 -134 -36q-38 0 -58 6z" />
    <glyph glyph-name="six.sups" unicode="&#x2076;" 
d="M30 559q0 109 69 172q69 61 167 66l-7 -54q-66 -5 -105 -35q-42 -32 -49 -75l4 -3q24 15 57 15q47 0 84 -31t37 -90q0 -54 -37 -85q-38 -32 -84 -32q-69 0 -102 43q-34 43 -34 109zM100 580q-8 -54 10 -86q18 -34 55 -34q26 0 41 17t15 48q0 33 -20 52q-21 18 -50 18
q-27 0 -51 -15z" />
    <glyph glyph-name="seven.sups" unicode="&#x2077;" 
d="M41 724l5 65h236l5 -7q-110 -200 -119 -367h-75q30 177 114 312l-2 2z" />
    <glyph glyph-name="eight.sups" unicode="&#x2078;" 
d="M30 509q0 61 77 94v3q-66 44 -66 97q0 39 33 67q33 27 86 27q47 0 79 -24t32 -64q0 -64 -71 -94v-3q82 -48 82 -109q0 -42 -35 -69q-36 -27 -92 -27q-55 0 -90 29t-35 73zM94 514q0 -24 18 -37q17 -14 45 -14q24 0 41 14q16 13 16 32q0 39 -62 71q-1 0 -2 1q-2 0 -3 1
q-53 -26 -53 -68zM109 700q0 -35 48 -65q50 29 50 64q0 18 -13 31t-37 13t-36 -12q-12 -13 -12 -31z" />
    <glyph glyph-name="nine.sups" unicode="&#x2079;" 
d="M30 680q0 49 34 83t87 34q69 0 103 -43q33 -44 33 -109q0 -181 -187 -238l-20 52q126 39 136 117l-4 3q-20 -15 -53 -15q-53 0 -90 30q-39 28 -39 86zM96 684q0 -34 22 -52t53 -18q27 0 47 17q9 43 -8 77q-18 32 -58 32q-25 0 -40 -15q-16 -15 -16 -41z" />
    <glyph glyph-name="Euro" unicode="&#x20ac;" horiz-adv-x="630" 
d="M35 257l14 55h44v17q0 25 1 32h-59l14 55h51q22 129 108 204t195 75q79 0 159 -33l-22 -83q-68 32 -139 31q-73 -2 -127 -50q-56 -49 -76 -144h299l-14 -55h-291q-1 -6 -1 -28v-21h280l-14 -55h-259q16 -84 70 -136q52 -51 125 -51q77 0 147 37l32 -76q-83 -46 -181 -46
q-112 0 -192 77q-81 78 -100 195h-64z" />
    <glyph glyph-name="uni2117" unicode="&#x2117;" horiz-adv-x="880" 
d="M133 323q0 127 90 217q89 90 218 90q133 0 220 -89q86 -91 86 -218q0 -129 -86 -218q-85 -90 -220 -90q-131 0 -220 87q-88 85 -88 221zM182 321q0 -113 74 -187t186 -74q110 0 184 74q72 74 72 187q0 118 -73 192q-74 74 -184 74q-107 0 -183 -76t-76 -190zM353 150v350
h102q53 0 84 -28t31 -79q0 -49 -34 -77q-36 -29 -85 -28h-46v-138h-52zM405 337h47q25 0 45 14q19 13 19 43q0 28 -16 43q-17 14 -45 14h-50v-114z" />
    <glyph glyph-name="trademark" unicode="&#x2122;" horiz-adv-x="780" 
d="M119 635v45h234v-45h-93v-215h-48v215h-93zM360 420l43 262h22l77 -170h4l75 170h22l43 -262h-47l-24 145h-5l-65 -149h-5l-65 149h-4l-25 -145h-46z" />
    <glyph glyph-name="onethird" unicode="&#x2153;" horiz-adv-x="760" 
d="M82 678l130 15l9 -7v-374h-65v316l-71 -6zM115 -24l245 370l220 353l46 -26l-237 -349l-228 -376zM458 -28l-1 64q51 -24 100 -24q29 0 49 15q19 15 19 42q0 25 -17 40q-19 14 -50 13l-67 -2l5 58l60 -2q25 -1 45 17q18 16 18 41q0 24 -17 38q-17 12 -44 12
q-38 0 -83 -21l5 62q37 17 87 17q51 0 85 -25q35 -26 35 -70q0 -33 -19 -58q-19 -24 -51 -32v-6q37 -8 56 -31q20 -25 20 -55q0 -56 -41 -85q-41 -28 -95 -28t-99 20z" />
    <glyph glyph-name="twothirds" unicode="&#x2154;" horiz-adv-x="760" 
d="M23 315l-6 22q188 167 188 247q0 53 -57 53q-51 0 -92 -28l-8 58q39 30 103 30q55 0 89 -25t34 -78q0 -93 -140 -209l3 -8l143 5v-67h-257zM115 -24l245 370l220 353l46 -26l-237 -349l-228 -376zM458 -28l-1 64q51 -24 100 -24q29 0 49 15q19 15 19 42q0 25 -17 40
q-19 14 -50 13l-67 -2l5 58l60 -2q25 -1 45 17q18 16 18 41q0 24 -17 38q-17 12 -44 12q-38 0 -83 -21l5 62q37 17 87 17q51 0 85 -25q35 -26 35 -70q0 -33 -19 -58q-19 -24 -51 -32v-6q37 -8 56 -31q20 -25 20 -55q0 -56 -41 -85q-41 -28 -95 -28t-99 20z" />
    <glyph glyph-name="uni2155" unicode="&#x2155;" horiz-adv-x="760" 
d="M82 678l130 15l9 -7v-374h-65v316l-71 -6zM115 -24l245 370l220 353l46 -26l-237 -349l-228 -376zM454 -42l9 58q15 -5 52 -5q55 0 86 23q29 23 29 55q0 57 -122 57q-21 0 -44 -3l-2 2l21 189h199l-6 -63l-145 6l-10 -77q7 1 31 1q74 0 111 -31q36 -32 36 -79
q0 -67 -53 -103q-54 -36 -134 -36q-38 0 -58 6z" />
    <glyph glyph-name="uni2156" unicode="&#x2156;" horiz-adv-x="760" 
d="M23 315l-6 22q188 167 188 247q0 53 -57 53q-51 0 -92 -28l-8 58q39 30 103 30q55 0 89 -25t34 -78q0 -93 -140 -209l3 -8l143 5v-67h-257zM115 -24l245 370l220 353l46 -26l-237 -349l-228 -376zM454 -42l9 58q15 -5 52 -5q55 0 86 23q29 23 29 55q0 57 -122 57
q-21 0 -44 -3l-2 2l21 189h199l-6 -63l-145 6l-10 -77q7 1 31 1q74 0 111 -31q36 -32 36 -79q0 -67 -53 -103q-54 -36 -134 -36q-38 0 -58 6z" />
    <glyph glyph-name="uni2157" unicode="&#x2157;" horiz-adv-x="760" 
d="M57 327l-1 64q51 -24 100 -24q30 0 49 15t19 42q0 25 -17 40q-19 14 -50 13l-67 -2l5 58l60 -2q25 -1 45 17q18 16 18 41q0 24 -17 38q-16 12 -44 12q-38 0 -83 -21l5 62q37 17 87 17q51 0 85 -25q35 -26 35 -70q0 -34 -19 -57q-19 -25 -51 -33v-6q37 -8 56 -31
q20 -25 20 -55q0 -56 -41 -85q-41 -28 -95 -28t-99 20zM115 -24l245 370l220 353l46 -26l-237 -349l-228 -376zM454 -42l9 58q15 -5 52 -5q55 0 86 23q29 23 29 55q0 57 -122 57q-21 0 -44 -3l-2 2l21 189h199l-6 -63l-145 6l-10 -77q7 1 31 1q74 0 111 -31q36 -32 36 -79
q0 -67 -53 -103q-54 -36 -134 -36q-38 0 -58 6z" />
    <glyph glyph-name="uni2158" unicode="&#x2158;" horiz-adv-x="760" 
d="M40 444l159 245h66v-212l43 1v-58h-43v-105h-63v105h-153zM115 -24l245 370l220 353l46 -26l-237 -349l-228 -376zM117 478l3 -6l82 2v131h-7zM454 -42l9 58q15 -5 52 -5q55 0 86 23q29 23 29 55q0 57 -122 57q-21 0 -44 -3l-2 2l21 189h199l-6 -63l-145 6l-10 -77
q7 1 31 1q74 0 111 -31q36 -32 36 -79q0 -67 -53 -103q-54 -36 -134 -36q-38 0 -58 6z" />
    <glyph glyph-name="uni2159" unicode="&#x2159;" horiz-adv-x="760" 
d="M82 678l130 15l9 -7v-374h-65v316l-71 -6zM115 -24l245 370l220 353l46 -26l-237 -349l-228 -376zM406 104q0 109 69 172q69 61 167 66l-7 -54q-66 -5 -105 -35q-42 -32 -49 -75l4 -3q24 15 57 15q47 0 84 -31t37 -90q0 -53 -37 -86q-37 -31 -84 -31q-69 0 -102 43
q-34 43 -34 109zM476 125q-8 -54 10 -86q18 -34 55 -34q26 0 41 17q15 16 15 48q0 33 -20 52q-21 18 -50 18q-27 0 -51 -15z" />
    <glyph glyph-name="uni215A" unicode="&#x215a;" horiz-adv-x="760" 
d="M53 313l9 58q15 -5 52 -5q55 0 86 23q29 23 29 55q0 57 -122 57q-21 0 -44 -3l-2 2l21 189h199l-6 -63l-145 6l-10 -77q7 1 31 1q74 0 111 -31q36 -31 36 -79q0 -67 -53 -103q-54 -36 -134 -36q-39 0 -58 6zM115 -24l245 370l220 353l46 -26l-237 -349l-228 -376z
M406 104q0 109 69 172q69 61 167 66l-7 -54q-66 -5 -105 -35q-42 -32 -49 -75l4 -3q24 15 57 15q47 0 84 -31t37 -90q0 -53 -37 -86q-37 -31 -84 -31q-69 0 -102 43q-34 43 -34 109zM476 125q-8 -54 10 -86q18 -34 55 -34q26 0 41 17q15 16 15 48q0 33 -20 52q-21 18 -50 18
q-27 0 -51 -15z" />
    <glyph glyph-name="oneeighth" unicode="&#x215b;" horiz-adv-x="760" 
d="M82 678l130 15l9 -7v-374h-65v316l-71 -6zM115 -24l245 370l220 353l46 -26l-237 -349l-228 -376zM447 54q0 61 77 94v3q-66 44 -66 97q0 38 33 67q33 27 86 27q47 0 79 -24t32 -64q0 -64 -71 -94v-3q82 -48 82 -109q0 -42 -35 -69q-36 -27 -92 -27t-90 28q-35 29 -35 74
zM511 59q0 -23 18 -37q17 -14 45 -14q24 0 41 14q16 13 16 32q0 39 -62 71q-1 0 -2 1q-2 0 -3 1q-53 -27 -53 -68zM526 245q0 -35 48 -65q50 29 50 64q0 18 -13 31t-37 13t-36 -12q-12 -14 -12 -31z" />
    <glyph glyph-name="threeeighths" unicode="&#x215c;" horiz-adv-x="760" 
d="M57 327l-1 64q51 -24 100 -24q30 0 49 15t19 42q0 25 -17 40q-19 14 -50 13l-67 -2l5 58l60 -2q25 -1 45 17q18 16 18 41q0 24 -17 38q-16 12 -44 12q-38 0 -83 -21l5 62q37 17 87 17q51 0 85 -25q35 -26 35 -70q0 -34 -19 -57q-19 -25 -51 -33v-6q37 -8 56 -31
q20 -25 20 -55q0 -56 -41 -85q-41 -28 -95 -28t-99 20zM115 -24l245 370l220 353l46 -26l-237 -349l-228 -376zM447 54q0 61 77 94v3q-66 44 -66 97q0 38 33 67q33 27 86 27q47 0 79 -24t32 -64q0 -64 -71 -94v-3q82 -48 82 -109q0 -42 -35 -69q-36 -27 -92 -27t-90 28
q-35 29 -35 74zM511 59q0 -23 18 -37q17 -14 45 -14q24 0 41 14q16 13 16 32q0 39 -62 71q-1 0 -2 1q-2 0 -3 1q-53 -27 -53 -68zM526 245q0 -35 48 -65q50 29 50 64q0 18 -13 31t-37 13t-36 -12q-12 -14 -12 -31z" />
    <glyph glyph-name="fiveeighths" unicode="&#x215d;" horiz-adv-x="760" 
d="M53 313l9 58q15 -5 52 -5q55 0 86 23q29 23 29 55q0 57 -122 57q-21 0 -44 -3l-2 2l21 189h199l-6 -63l-145 6l-10 -77q7 1 31 1q74 0 111 -31q36 -31 36 -79q0 -67 -53 -103q-54 -36 -134 -36q-39 0 -58 6zM115 -24l245 370l220 353l46 -26l-237 -349l-228 -376zM447 54
q0 61 77 94v3q-66 44 -66 97q0 38 33 67q33 27 86 27q47 0 79 -24t32 -64q0 -64 -71 -94v-3q82 -48 82 -109q0 -42 -35 -69q-36 -27 -92 -27t-90 28q-35 29 -35 74zM511 59q0 -23 18 -37q17 -14 45 -14q24 0 41 14q16 13 16 32q0 39 -62 71q-1 0 -2 1q-2 0 -3 1
q-53 -27 -53 -68zM526 245q0 -35 48 -65q50 29 50 64q0 18 -13 31t-37 13t-36 -12q-12 -14 -12 -31z" />
    <glyph glyph-name="seveneighths" unicode="&#x215e;" horiz-adv-x="760" 
d="M57 624l5 65h236l5 -7q-110 -200 -119 -367h-75q30 177 114 312l-2 2zM115 -24l245 370l220 353l46 -26l-237 -349l-228 -376zM447 54q0 61 77 94v3q-66 44 -66 97q0 38 33 67q33 27 86 27q47 0 79 -24t32 -64q0 -64 -71 -94v-3q82 -48 82 -109q0 -42 -35 -69
q-36 -27 -92 -27t-90 28q-35 29 -35 74zM511 59q0 -23 18 -37q17 -14 45 -14q24 0 41 14q16 13 16 32q0 39 -62 71q-1 0 -2 1q-2 0 -3 1q-53 -27 -53 -68zM526 245q0 -35 48 -65q50 29 50 64q0 18 -13 31t-37 13t-36 -12q-12 -14 -12 -31z" />
    <glyph glyph-name="uni2190" unicode="&#x2190;" horiz-adv-x="700" 
d="M74 259v13l237 264l61 -46l-163 -183h420v-84h-420l163 -183l-61 -47z" />
    <glyph glyph-name="uni2191" unicode="&#x2191;" horiz-adv-x="700" 
d="M78 368l266 237h13l264 -237l-46 -61l-183 163v-420h-84v420l-183 -163z" />
    <glyph glyph-name="uni2192" unicode="&#x2192;" horiz-adv-x="700" 
d="M71 223v84h420l-163 183l61 46l237 -264v-13l-237 -266l-61 47l163 183h-420z" />
    <glyph glyph-name="uni2193" unicode="&#x2193;" horiz-adv-x="700" 
d="M78 287l47 61l183 -163v420h84v-420l183 163l46 -61l-264 -237h-13z" />
    <glyph glyph-name="partialdiff" unicode="&#x2202;" horiz-adv-x="530" 
d="M49 205q0 97 61 176q60 78 151 78q79 0 126 -59l5 3v29q0 94 -33 143t-81 49q-40 0 -69 -19t-40 -41h-35l17 73q18 25 58 43q39 18 80 18q93 0 143 -90q49 -89 49 -234q0 -192 -68 -290q-68 -99 -178 -99q-84 0 -135 60q-51 59 -51 160zM140 204q0 -68 28 -106
q27 -40 77 -40q61 0 106 73q45 74 38 194q-14 29 -44 48q-31 19 -73 19q-54 0 -93 -51q-39 -53 -39 -137z" />
    <glyph glyph-name="product" unicode="&#x220f;" horiz-adv-x="610" 
d="M17 598v82h576v-82h-88v-598h-91v598h-218v-598h-91v598h-88z" />
    <glyph glyph-name="summation" unicode="&#x2211;" horiz-adv-x="580" 
d="M14 10l278 320v7l-264 336l5 7h506v-82h-330l-5 -3l201 -252v-11l-217 -245l3 -5h348v-82h-521z" />
    <glyph glyph-name="minus" unicode="&#x2212;" horiz-adv-x="530" 
d="M33 267v68h464v-68h-464z" />
    <glyph glyph-name="radical" unicode="&#x221a;" horiz-adv-x="530" 
d="M-4 391l175 59l141 -389h13l152 695l49 -10l-184 -883h-37l-195 526l-98 -35z" />
    <glyph glyph-name="infinity" unicode="&#x221e;" horiz-adv-x="530" 
d="M3 276q0 55 37 93q38 38 87 38q41 0 73 -23q29 -22 62 -69q37 47 67 69q31 23 68 23q56 0 93 -35q36 -34 36 -92q0 -54 -36 -92q-38 -39 -88 -39q-76 0 -137 87q-35 -45 -66 -66t-71 -21q-59 0 -92 39t-33 88zM54 276q0 -34 23 -57q22 -22 52 -22q29 0 51 18q20 16 56 64
q-54 78 -107 78q-31 0 -53 -22t-22 -59zM290 272q52 -73 108 -73q32 0 55 23q22 22 22 58q0 34 -23 57q-22 22 -54 22q-28 0 -50 -17q-18 -14 -58 -70z" />
    <glyph glyph-name="integral" unicode="&#x222b;" horiz-adv-x="530" 
d="M60 -138q0 21 13 37q12 17 36 17q50 0 57 -64l26 -7q19 17 31 63q12 45 10 92l-12 487q-2 95 48 154t125 59q33 0 55 -16t22 -49q0 -21 -13 -37q-14 -17 -37 -17q-49 0 -56 64l-26 7q-44 -41 -41 -155l12 -487q1 -94 -48 -154q-50 -60 -127 -60q-30 0 -53 17
q-22 16 -22 49z" />
    <glyph glyph-name="approxequal" unicode="&#x2248;" horiz-adv-x="530" 
d="M87 260l-44 32q16 32 54 61q35 28 80 28q33 0 89 -35t81 -35q27 0 50 23q21 22 27 54l53 -22q-16 -49 -48 -82q-33 -34 -83 -34q-35 0 -89 36q-55 36 -80 36q-24 0 -43 -10q-18 -10 -26 -21q-11 -15 -21 -31zM105 117l-46 30q53 93 118 93q31 0 90 -35t91 -35q29 0 52 17
q21 17 30 42l47 -23q-13 -39 -51 -68q-37 -28 -78 -28q-43 0 -100 36q-59 35 -81 35q-39 0 -72 -64z" />
    <glyph glyph-name="notequal" unicode="&#x2260;" horiz-adv-x="530" 
d="M43 163v68h162l61 132h-223v68h254l63 136l56 -30l-49 -106h120v-68h-151l-61 -132h212v-68h-244l-67 -146l-56 30l53 116h-130z" />
    <glyph glyph-name="lessequal" unicode="&#x2264;" horiz-adv-x="530" 
d="M43 40v68h444v-68h-444zM50 350v62l404 190l25 -65l-343 -156l343 -156l-25 -65z" />
    <glyph glyph-name="greaterequal" unicode="&#x2265;" horiz-adv-x="530" 
d="M43 40v68h444v-68h-444zM51 225l343 156l-343 156l25 65l404 -190v-62l-404 -190z" />
    <glyph glyph-name="lozenge" unicode="&#x25ca;" horiz-adv-x="530" 
d="M19 275l245 375l246 -375l-246 -373zM103 275l161 -246l162 246l-162 248z" />
    <glyph glyph-name="uni2605" unicode="&#x2605;" horiz-adv-x="570" 
d="M23 299l2 5l201 -7l57 193h6l58 -193l199 5l1 -4l-163 -117l66 -188l-3 -1l-161 118l-159 -118l-4 3l66 186z" />
    <glyph glyph-name="uniE000" unicode="&#xe000;" horiz-adv-x="500" 
d="M0 0v500h500v-500h-500z" />
    <glyph glyph-name="fi" unicode="&#xfb01;" horiz-adv-x="800" 
d="M93 0v500h340v-79h-248v-132h218v-79h-218v-210h-92zM599 0v500h92v-500h-92z" />
    <glyph glyph-name="fl" unicode="&#xfb02;" horiz-adv-x="950" 
d="M93 0v500h340v-79h-248v-132h218v-79h-218v-210h-92zM583 0v500h92v-421h222v-79h-314z" />
    <glyph glyph-name="E.alt" horiz-adv-x="640" 
d="M78 329q0 167 93 267q91 99 222 99q48 0 93 -14q47 -16 70 -34l-22 -83q-69 47 -143 46q-80 -2 -137 -56q-61 -56 -74 -159h303l-10 -82h-297q6 -108 67 -175q62 -68 155 -68q67 0 137 41l25 -80q-62 -46 -164 -46q-140 0 -228 100q-90 99 -90 244z" />
    <glyph glyph-name="Eacute.alt" horiz-adv-x="640" 
d="M78 329q0 167 93 267q91 99 222 99q48 0 93 -14q47 -16 70 -34l-22 -83q-69 47 -143 46q-80 -2 -137 -56q-61 -56 -74 -159h303l-10 -82h-297q6 -108 67 -175q62 -68 155 -68q67 0 137 41l25 -80q-62 -46 -164 -46q-140 0 -228 100q-90 99 -90 244zM321 740v8l106 124h89
v-10l-134 -122h-61z" />
    <glyph glyph-name="Ecircumflex.alt" horiz-adv-x="640" 
d="M78 329q0 167 93 267q91 99 222 99q48 0 93 -14q47 -16 70 -34l-22 -83q-69 47 -143 46q-80 -2 -137 -56q-61 -56 -74 -159h303l-10 -82h-297q6 -108 67 -175q62 -68 155 -68q67 0 137 41l25 -80q-62 -46 -164 -46q-140 0 -228 100q-90 99 -90 244zM246 740v8l121 124h28
l121 -124v-8h-56l-79 64l-79 -64h-56z" />
    <glyph glyph-name="Edieresis.alt" horiz-adv-x="640" 
d="M78 329q0 167 93 267q91 99 222 99q48 0 93 -14q47 -16 70 -34l-22 -83q-69 47 -143 46q-80 -2 -137 -56q-61 -56 -74 -159h303l-10 -82h-297q6 -108 67 -175q62 -68 155 -68q67 0 137 41l25 -80q-62 -46 -164 -46q-140 0 -228 100q-90 99 -90 244zM254 789q0 20 15 35
q14 14 34 14q19 0 35 -14q14 -16 14 -35q0 -20 -14 -34q-15 -15 -35 -15q-21 0 -34 15q-15 13 -15 34zM410 789q0 20 15 35q14 14 34 14q19 0 35 -14q14 -16 14 -35q0 -20 -14 -34q-15 -15 -35 -15q-21 0 -34 15q-15 13 -15 34z" />
    <glyph glyph-name="Egrave.alt" horiz-adv-x="640" 
d="M78 329q0 167 93 267q91 99 222 99q48 0 93 -14q47 -16 70 -34l-22 -83q-69 47 -143 46q-80 -2 -137 -56q-61 -56 -74 -159h303l-10 -82h-297q6 -108 67 -175q62 -68 155 -68q67 0 137 41l25 -80q-62 -46 -164 -46q-140 0 -228 100q-90 99 -90 244zM246 862v10h89
l106 -124v-8h-61z" />
    <glyph glyph-name="M.alt" horiz-adv-x="890" 
d="M118 0v680h76l252 -509h4l246 509h76v-680h-94v437h-9l-218 -447h-12l-221 447h-6v-437h-94z" />
    <glyph glyph-name="Q.alt" horiz-adv-x="830" 
d="M78 335q0 158 101 259t237 101q140 0 238 -99q98 -101 98 -261q0 -131 -80 -229q-79 -99 -205 -117v-155h-97v154q-127 17 -209 114q-83 98 -83 233zM176 337q0 -94 53 -170t141 -92v147h97v-147q83 18 136 93q51 73 51 169q0 120 -69 197q-70 76 -174 76q-96 0 -165 -75
q-70 -74 -70 -198z" />
    <glyph glyph-name="W.alt" horiz-adv-x="970" 
d="M58 680h101l195 -480h10l73 190l-119 290h101l67 -181l65 181h101l-117 -285l79 -195h10l187 480h101l-287 -695h-20l-121 307l-119 -307h-20z" />
    <glyph glyph-name="M.br" horiz-adv-x="870" 
d="M118 0v680h60l257 -344h6l254 344h57v-680h-94v481h-6l-212 -282h-10l-212 282h-6v-481h-94z" />
    <glyph glyph-name="Q.br" horiz-adv-x="830" 
d="M78 335q0 158 101 259t237 101q140 0 238 -99q98 -101 98 -261q0 -155 -105 -257l102 -118h-117l-56 65q-74 -40 -160 -40q-142 0 -240 101t-98 249zM176 337q0 -108 67 -187q66 -80 175 -80q51 0 99 23l-142 164h117l94 -110q68 80 68 190q0 120 -69 197q-70 76 -174 76
q-96 0 -165 -75q-70 -74 -70 -198z" />
    <glyph glyph-name="R.br" horiz-adv-x="670" 
d="M118 0v680h173q101 0 159 -49q57 -50 57 -124q0 -132 -138 -162v-2q44 -17 91 -76q45 -58 99 -143q53 -85 73 -111v-13h-101q-13 17 -40 62q-24 39 -54 85q-22 34 -58 80q-31 40 -65 66q-34 24 -63 24h-39v-317h-94zM212 395h80q50 0 85 26q34 25 34 77q0 44 -32 74
q-34 29 -87 29h-80v-206z" />
    <glyph glyph-name="G.de" horiz-adv-x="790" 
d="M78 329q0 158 95 262t245 104q79 0 146 -33q68 -33 111 -100l-70 -48q-73 96 -190 96q-99 0 -169 -72q-70 -71 -70 -205q0 -113 67 -187q67 -76 164 -76t149 58q51 56 56 158h-203v82h301q11 -174 -71 -278q-83 -105 -235 -105q-145 0 -235 103q-91 103 -91 241z" />
    <glyph glyph-name="e.alt" horiz-adv-x="520" 
d="M58 244q0 120 78 193q76 73 182 73q83 0 133 -33l-26 -80q-41 32 -109 30q-61 -2 -104 -34q-45 -35 -57 -99h213l-7 -79h-208q11 -65 56 -103q45 -39 109 -39q66 0 112 33l35 -75q-68 -41 -149 -41q-111 0 -185 74q-73 73 -73 180z" />
    <glyph glyph-name="eacute.alt" horiz-adv-x="520" 
d="M58 244q0 120 78 193q76 73 182 73q83 0 133 -33l-26 -80q-41 32 -109 30q-61 -2 -104 -34q-45 -35 -57 -99h213l-7 -79h-208q11 -65 56 -103q45 -39 109 -39q66 0 112 33l35 -75q-68 -41 -149 -41q-111 0 -185 74q-73 73 -73 180zM238 550v8l96 164h84v-10l-119 -162
h-61z" />
    <glyph glyph-name="ecircumflex.alt" horiz-adv-x="520" 
d="M58 244q0 120 78 193q76 73 182 73q83 0 133 -33l-26 -80q-41 32 -109 30q-61 -2 -104 -34q-45 -35 -57 -99h213l-7 -79h-208q11 -65 56 -103q45 -39 109 -39q66 0 112 33l35 -75q-68 -41 -149 -41q-111 0 -185 74q-73 73 -73 180zM158 550v8l121 164h28l121 -164v-8h-56
l-79 94l-79 -94h-56z" />
    <glyph glyph-name="edieresis.alt" horiz-adv-x="520" 
d="M58 244q0 120 78 193q76 73 182 73q83 0 133 -33l-26 -80q-41 32 -109 30q-61 -2 -104 -34q-45 -35 -57 -99h213l-7 -79h-208q11 -65 56 -103q45 -39 109 -39q66 0 112 33l35 -75q-68 -41 -149 -41q-111 0 -185 74q-73 73 -73 180zM166 609q0 20 15 35q14 14 34 14
q19 0 35 -14q14 -16 14 -35q0 -20 -14 -34q-15 -15 -35 -15q-21 0 -34 15q-15 13 -15 34zM322 609q0 20 15 35q14 14 34 14q19 0 35 -14q14 -16 14 -35q0 -20 -14 -34q-15 -15 -35 -15q-21 0 -34 15q-15 13 -15 34z" />
    <glyph glyph-name="egrave.alt" horiz-adv-x="520" 
d="M58 244q0 120 78 193q76 73 182 73q83 0 133 -33l-26 -80q-41 32 -109 30q-61 -2 -104 -34q-45 -35 -57 -99h213l-7 -79h-208q11 -65 56 -103q45 -39 109 -39q66 0 112 33l35 -75q-68 -41 -149 -41q-111 0 -185 74q-73 73 -73 180zM168 712v10h84l96 -164v-8h-61z" />
    <glyph glyph-name="m.alt" horiz-adv-x="720" 
d="M93 0v500h84l182 -346h4l184 346h80v-500h-92v307h-7l-161 -312h-14l-162 312h-6v-307h-92z" />
    <glyph glyph-name="q.alt" horiz-adv-x="650" 
d="M58 244q0 117 79 192q80 74 189 74q108 0 187 -73t79 -193q0 -91 -61 -161q-61 -71 -156 -88v-126h-91v124q-98 13 -162 84q-64 70 -64 167zM152 246q0 -60 35 -107q34 -47 97 -61v124h91v-123q55 15 90 62q33 47 33 105q0 78 -50 130q-50 51 -123 51t-122 -48
q-51 -49 -51 -133z" />
    <glyph glyph-name="w.alt" horiz-adv-x="780" 
d="M38 500h98l153 -324h4l52 117l-97 207h96l48 -114l44 114h96l-95 -201l58 -123h4l145 324h98l-240 -505h-16l-96 215l-96 -215h-16z" />
    <glyph glyph-name="m.br" horiz-adv-x="700" 
d="M93 0v500h51l207 -284h4l204 284h48v-500h-92v303h-6l-155 -214h-8l-155 214h-6v-303h-92z" />
    <glyph glyph-name="q.br" horiz-adv-x="650" 
d="M58 244q0 117 79 192q80 74 189 74q108 0 187 -73t79 -193q0 -110 -86 -187l90 -98h-107l-50 54q-57 -23 -113 -23q-113 0 -190 74q-78 74 -78 180zM152 246q0 -71 48 -122q47 -51 128 -51q23 0 50 7l-109 120h107l71 -78q51 51 51 124q0 78 -50 130q-50 51 -123 51
t-122 -48q-51 -49 -51 -133z" />
    <glyph glyph-name="r.br" horiz-adv-x="540" 
d="M93 0v500h178q70 0 116 -38q45 -38 45 -98q0 -50 -27 -81q-27 -33 -74 -42v-5q30 -8 65 -50q30 -37 70 -104q35 -63 46 -77v-5h-104l-20 36q-16 30 -33 59q-21 29 -39 53q-26 32 -52 48q-28 16 -56 16h-23v-212h-92zM185 284h85q30 0 49 18t19 52t-21 52t-55 18h-77v-140
z" />
    <glyph glyph-name="g.de" horiz-adv-x="610" 
d="M58 244q0 120 78 193q77 73 180 73q129 0 209 -89l-59 -59q-59 66 -151 65q-66 -2 -114 -47q-50 -47 -50 -134q0 -75 49 -124q48 -49 119 -49q64 0 102 32q36 32 35 96h-147v79h238q14 -131 -43 -210q-59 -80 -188 -80q-110 0 -184 74t-74 180z" />
    <glyph glyph-name="ordfeminine.onum" horiz-adv-x="420" 
d="M43 180l160 330h13l161 -330h-74l-26 58h-134l-24 -58h-76zM168 297h82l-40 82h-4z" />
    <glyph glyph-name="ordmasculine.onum" horiz-adv-x="450" 
d="M51 342q0 76 52 125q51 48 123 48q70 0 122 -48q51 -48 51 -125q0 -65 -50 -115t-123 -50q-74 0 -124 48q-51 47 -51 117zM126 343q0 -41 27 -69q27 -30 73 -30q43 0 70 30q27 28 27 69q0 47 -28 76q-29 29 -70 29q-42 0 -70 -28q-29 -29 -29 -77z" />
    <glyph glyph-name="zero.onum" horiz-adv-x="560" 
d="M50 247q0 123 67 196q66 72 165 72q100 0 165 -71q63 -72 63 -197q0 -127 -62 -195q-63 -67 -166 -67q-99 0 -165 71q-67 70 -67 191zM141 249q0 -89 42 -136t100 -47q65 0 101 47q35 47 35 136q0 87 -39 136t-102 49q-59 0 -98 -46t-39 -139z" />
    <glyph glyph-name="one.onum" horiz-adv-x="410" 
d="M76 479l182 26l17 -12v-493h-90v415l-103 -15z" />
    <glyph glyph-name="two.onum" horiz-adv-x="500" 
d="M43 0l-10 39q167 106 241 182q72 73 72 128q0 43 -30 65q-29 22 -77 22q-71 0 -151 -53l-21 77q16 11 37 21q20 9 63 22q41 12 78 12q85 0 141 -38q54 -37 54 -115q0 -126 -219 -277l3 -6l226 12v-91h-407z" />
    <glyph glyph-name="three.onum" horiz-adv-x="460" 
d="M42 92l2 3q72 -33 151 -33q55 0 91 21q36 19 36 56q0 33 -32 56t-85 21l-100 -4l8 83l88 -4q45 -2 77 20q32 21 32 56q0 33 -31 52t-81 19q-65 0 -128 -31l-3 4l8 78q63 26 138 26q79 0 134 -33q54 -33 54 -101q0 -45 -28 -76q-29 -31 -75 -42v-6q53 -9 85 -45
q30 -38 30 -81q0 -74 -63 -110q-64 -36 -164 -36q-74 0 -141 27z" />
    <glyph glyph-name="four.onum" horiz-adv-x="510" 
d="M40 166l260 334h96v-295l70 2v-77h-70v-130h-86v130h-254zM154 204l4 -6l152 5v194h-8z" />
    <glyph glyph-name="five.onum" horiz-adv-x="480" 
d="M40 -4l16 78q40 -10 95 -10q92 0 139 29t47 71q0 87 -188 87q-57 0 -91 -8l-4 3l33 254h328l-11 -85l-249 7l-15 -106q34 2 65 2q113 0 169 -43q57 -44 57 -107q0 -61 -41 -104t-104 -61t-141 -18q-66 0 -105 11z" />
    <glyph glyph-name="six.onum" horiz-adv-x="500" 
d="M49 176q0 81 31 144q30 65 82 105q50 40 115 64q65 23 132 26l-10 -77q-97 -7 -162 -50q-66 -44 -79 -99l4 -3q53 29 122 29q66 0 118 -40t52 -116q0 -74 -54 -124q-55 -50 -149 -50q-95 0 -148 57q-54 56 -54 134zM139 169q0 -48 33 -78q32 -30 84 -30q47 0 76 25
q30 24 30 66q0 46 -31 71q-32 24 -74 24q-61 0 -114 -30q-4 -15 -4 -48z" />
    <glyph glyph-name="seven.onum" horiz-adv-x="450" 
d="M37 412l9 88h365l10 -12q-183 -252 -203 -488h-106q48 227 184 416l-4 5z" />
    <glyph glyph-name="eight.onum" horiz-adv-x="490" 
d="M43 120q0 46 33 80q34 35 84 53v2q-97 54 -97 119q0 58 51 100q52 41 137 41q74 0 126 -38q50 -38 50 -92q0 -44 -23 -73q-25 -30 -74 -52v-5q67 -31 92 -61q25 -31 25 -69q0 -65 -63 -103q-64 -37 -143 -37q-92 0 -144 40q-54 40 -54 95zM133 129q0 -31 33 -51
q31 -19 77 -19q42 0 76 17q33 16 33 49q0 28 -29 49q-28 21 -86 45l-7 3q-46 -16 -72 -41q-25 -25 -25 -52zM158 376q0 -26 26 -47q25 -22 79 -46q75 37 75 94q0 28 -25 46t-62 18q-43 0 -68 -19t-25 -46z" />
    <glyph glyph-name="nine.onum" horiz-adv-x="500" 
d="M44 341q0 71 57 123q57 51 144 51q100 0 153 -62q51 -63 51 -154q0 -72 -25 -126q-26 -58 -68 -92q-42 -37 -94 -60q-49 -24 -109 -36l-35 64l1 5q95 17 154 59q62 44 81 98l-4 3q-25 -18 -58 -28q-38 -11 -67 -11q-76 0 -128 43q-53 42 -53 123zM135 343q0 -47 34 -69
q33 -24 79 -24q60 0 107 30q4 12 4 38q0 54 -32 89q-33 33 -86 33q-44 0 -75 -26q-31 -27 -31 -71z" />
    <glyph glyph-name="zero.subs" 
d="M24 31q0 98 37 144q38 47 96 47q59 0 95 -49q35 -50 35 -142q0 -100 -35 -150q-36 -49 -95 -49q-60 0 -96 47q-37 47 -37 152zM90 32q0 -70 20 -105t47 -35q64 0 64 140q0 60 -18 95t-48 35q-27 0 -46 -33q-19 -34 -19 -97z" />
    <glyph glyph-name="one.subs" 
d="M66 203l130 15l9 -7v-374h-65v316l-71 -6z" />
    <glyph glyph-name="two.subs" 
d="M25 -160l-6 22q188 167 188 247q0 53 -57 53q-51 0 -92 -28l-8 58q39 30 103 30q55 0 89 -25t34 -78q0 -93 -140 -209l3 -8l143 5v-67h-257z" />
    <glyph glyph-name="three.subs" 
d="M41 -148l-1 64q51 -24 100 -24q30 0 49 15t19 42q0 25 -17 39q-19 15 -50 14l-67 -2l5 58l60 -2q25 -1 45 17q18 17 18 41t-17 38q-16 12 -44 12q-38 0 -83 -21l5 62q37 17 87 17q51 0 85 -25q35 -26 35 -70q0 -33 -19 -58q-19 -24 -51 -32v-6q37 -8 56 -31
q20 -25 20 -55q0 -56 -41 -85q-41 -28 -95 -28t-99 20z" />
    <glyph glyph-name="four.subs" 
d="M24 -31l159 245h66v-212l43 1v-58h-43v-105h-63v105h-153zM101 3l3 -6l82 2v131h-7z" />
    <glyph glyph-name="five.subs" 
d="M37 -162l9 58q15 -5 52 -5q57 0 86 22q29 23 29 56q0 57 -122 57q-21 0 -44 -3l-2 2l21 189h199l-6 -63l-145 6l-10 -77q7 1 31 1q74 0 111 -31q36 -32 36 -79q0 -67 -53 -103q-54 -36 -134 -36q-38 0 -58 6z" />
    <glyph glyph-name="six.subs" 
d="M30 -16q0 109 69 172q69 61 167 66l-7 -54q-66 -5 -105 -35q-42 -32 -49 -75l4 -3q24 15 57 15q47 0 84 -31t37 -90q0 -55 -37 -86t-84 -31q-69 0 -102 43q-34 43 -34 109zM100 5q-8 -53 10 -87q18 -33 55 -33q26 0 41 17q15 16 15 48q0 33 -20 52q-21 18 -50 18
q-27 0 -51 -15z" />
    <glyph glyph-name="seven.subs" 
d="M41 149l5 65h236l5 -7q-110 -200 -119 -367h-75q30 177 114 312l-2 2z" />
    <glyph glyph-name="eight.subs" 
d="M30 -66q0 61 77 94v3q-66 44 -66 97q0 38 33 67q33 27 86 27q47 0 79 -24t32 -64q0 -64 -71 -94v-3q82 -48 82 -109q0 -42 -35 -69q-36 -27 -92 -27t-90 28q-35 29 -35 74zM94 -61q0 -23 18 -37q17 -14 45 -14q25 0 41 13t16 33q0 39 -62 71q-1 0 -2 1q-2 0 -3 1
q-53 -27 -53 -68zM109 125q0 -35 48 -65q50 29 50 64q0 18 -13 31t-37 13t-36 -12q-12 -14 -12 -31z" />
    <glyph glyph-name="nine.subs" 
d="M30 105q0 49 34 83t87 34q69 0 103 -43q33 -44 33 -109q0 -181 -187 -238l-20 52q126 39 136 117l-4 3q-20 -15 -53 -15q-53 0 -90 30q-39 29 -39 86zM96 109q0 -34 22 -52t53 -18q27 0 47 17q9 43 -8 77q-18 32 -58 32q-25 0 -40 -15q-16 -15 -16 -41z" />
    <glyph glyph-name="zero.tnum" horiz-adv-x="550" 
d="M45 347q0 177 65 263q64 85 167 85t166 -89q62 -91 62 -259q0 -181 -62 -272q-61 -90 -166 -90q-103 0 -168 87q-64 85 -64 275zM138 349q0 -141 41 -211q40 -70 99 -70q66 0 100 73q34 71 34 208q0 122 -38 193q-37 70 -101 70q-57 0 -96 -68q-39 -69 -39 -195z" />
    <glyph glyph-name="one.tnum" horiz-adv-x="550" 
d="M125 661l204 26l17 -12v-675h-92v594l-123 -14z" />
    <glyph glyph-name="two.tnum" horiz-adv-x="550" 
d="M32 0l-10 35q192 164 277 275q82 107 82 179q0 61 -33 92q-32 31 -90 31q-86 0 -176 -60l-6 88q24 17 74 36t114 19q97 0 156 -46q59 -47 59 -142q0 -182 -293 -415l2 -6l301 9v-95h-457z" />
    <glyph glyph-name="three.tnum" horiz-adv-x="550" 
d="M57 106l3 3q92 -42 180 -42q61 0 102 35q40 34 40 97q0 49 -35 81q-36 31 -97 30l-125 -4l8 87l113 -4q51 -1 88 34q36 35 36 84q0 50 -37 80q-38 29 -101 29q-58 0 -136 -35l-4 3l8 80q68 31 145 31q97 0 159 -45t62 -129q0 -59 -32 -102q-32 -42 -86 -56v-10
q62 -13 96 -60q34 -46 34 -102q0 -62 -26 -106q-28 -45 -69 -64q-46 -21 -78 -28q-40 -8 -74 -8q-96 0 -171 37z" />
    <glyph glyph-name="four.tnum" horiz-adv-x="550" 
d="M26 236l304 444h98v-402l78 2v-80h-78v-200h-91v200h-295zM143 282l6 -11l188 5v276h-13z" />
    <glyph glyph-name="five.tnum" horiz-adv-x="550" 
d="M56 -4l16 81q40 -10 95 -10q105 0 167 45q61 45 61 122q0 72 -62 110q-62 36 -173 36q-24 0 -86 -5l-4 3l38 302h363l-11 -87l-279 10l-21 -153q54 2 56 2q134 0 205 -60q71 -62 71 -154q0 -118 -96 -185q-97 -68 -235 -68q-66 0 -105 11z" />
    <glyph glyph-name="six.tnum" horiz-adv-x="550" 
d="M54 261q0 101 35 185q34 82 95 135q58 51 134 82q75 29 156 32l-13 -80q-124 -8 -203 -75q-81 -68 -94 -161l7 -6q49 27 112 27q89 0 156 -53q65 -54 65 -158q0 -93 -65 -149q-65 -55 -146 -55q-121 0 -180 78q-59 79 -59 198zM149 244q0 -82 39 -131q39 -50 103 -50
q52 0 86 32q33 31 33 87q0 78 -43 112t-111 34q-58 0 -101 -28q-6 -26 -6 -56z" />
    <glyph glyph-name="seven.tnum" horiz-adv-x="550" 
d="M64 590l9 90h420l10 -12q-199 -367 -216 -668h-110q25 160 81 318q54 158 126 276l-4 5z" />
    <glyph glyph-name="eight.tnum" horiz-adv-x="550" 
d="M50 170q0 56 38 105q38 47 96 75v6q-114 76 -114 168q0 72 60 121q59 50 153 50q82 0 140 -44q57 -43 57 -116q0 -121 -123 -179v-6q74 -42 110 -89q33 -46 33 -101q0 -76 -64 -125q-65 -50 -163 -50q-100 0 -161 52q-62 53 -62 133zM139 170q0 -50 39 -80q38 -30 99 -30
q57 0 93 30q36 28 36 71q0 46 -38 82q-42 37 -109 70l-7 3q-113 -50 -113 -146zM164 528q0 -39 30 -71q30 -33 93 -69q105 62 105 137q0 42 -31 70t-83 28q-55 0 -84 -28q-30 -29 -30 -67z" />
    <glyph glyph-name="nine.tnum" horiz-adv-x="550" 
d="M44 491q0 84 60 144q58 60 151 60q121 0 180 -78q59 -79 59 -198q0 -328 -331 -434l-35 64l1 5q238 82 257 247l-7 6q-49 -27 -114 -27q-91 0 -155 54q-66 53 -66 157zM137 498q0 -70 45 -106q44 -37 110 -37q60 0 103 28q4 17 4 53q0 82 -39 132t-103 50q-52 0 -86 -32
q-34 -31 -34 -88z" />
    <glyph glyph-name="zero.onum.tnum" horiz-adv-x="490" 
d="M30 247q0 122 63 196q61 72 154 72q94 0 154 -71q59 -73 59 -197q0 -128 -58 -195t-155 -67q-94 0 -155 70q-62 71 -62 192zM121 249q0 -89 38 -136t89 -47q58 0 90 47q31 46 31 136q0 86 -35 136q-34 49 -91 49q-53 0 -87 -46q-35 -47 -35 -139z" />
    <glyph glyph-name="one.onum.tnum" horiz-adv-x="490" 
d="M117 479l182 26l17 -12v-493h-90v415l-103 -15z" />
    <glyph glyph-name="two.onum.tnum" horiz-adv-x="490" 
d="M30 0l-10 39q167 106 241 182q72 73 72 128q0 43 -30 65q-29 22 -77 22q-71 0 -151 -53l-21 77q16 11 37 21q20 9 63 22q40 12 78 12q85 0 141 -38q54 -37 54 -115q0 -126 -219 -277l3 -6l226 12v-91h-407z" />
    <glyph glyph-name="three.onum.tnum" horiz-adv-x="490" 
d="M58 92l2 3q72 -33 151 -33q55 0 91 21q36 19 36 56q0 33 -32 56t-85 21l-100 -4l8 83l88 -4q45 -2 77 20q32 21 32 56q0 33 -31 52t-81 19q-65 0 -128 -31l-3 4l8 78q63 26 138 26q79 0 134 -33q54 -33 54 -101q0 -45 -28 -76q-29 -31 -75 -42v-6q53 -9 85 -45
q30 -38 30 -81q0 -74 -63 -110q-64 -36 -164 -36q-74 0 -141 27z" />
    <glyph glyph-name="four.onum.tnum" horiz-adv-x="490" 
d="M24 166l260 334h96v-295l70 2v-77h-70v-130h-86v130h-254zM138 204l4 -6l152 5v194h-8z" />
    <glyph glyph-name="five.onum.tnum" horiz-adv-x="490" 
d="M51 -4l16 78q40 -10 95 -10q92 0 139 29t47 71q0 87 -188 87q-57 0 -91 -8l-4 3l33 254h328l-11 -85l-249 7l-15 -106q34 2 65 2q113 0 169 -43q57 -44 57 -107q0 -61 -41 -104t-104 -61t-141 -18q-66 0 -105 11z" />
    <glyph glyph-name="six.onum.tnum" horiz-adv-x="490" 
d="M48 176q0 81 31 144q30 65 82 105q50 40 115 64q65 23 132 26l-10 -77q-97 -7 -162 -50q-66 -44 -79 -99l4 -3q53 29 122 29q66 0 118 -40t52 -116q0 -74 -54 -124q-55 -50 -149 -50q-96 0 -148 57q-54 56 -54 134zM138 169q0 -48 33 -78q31 -30 84 -30q47 0 76 25
q30 24 30 66q0 46 -31 71q-31 24 -74 24q-62 0 -114 -30q-4 -15 -4 -48z" />
    <glyph glyph-name="seven.onum.tnum" horiz-adv-x="490" 
d="M68 412l9 88h365l10 -12q-183 -252 -203 -488h-106q48 227 184 416l-4 5z" />
    <glyph glyph-name="eight.onum.tnum" horiz-adv-x="490" 
d="M48 120q0 46 33 80q34 35 84 53v2q-97 54 -97 119q0 58 51 100q52 41 137 41q74 0 126 -38q50 -38 50 -92q0 -44 -23 -73q-25 -30 -74 -52v-5q67 -31 92 -61q25 -31 25 -69q0 -65 -63 -103q-64 -37 -143 -37q-92 0 -144 40q-54 40 -54 95zM138 129q0 -31 33 -51
q31 -19 77 -19q42 0 76 17q33 16 33 49q0 28 -29 49q-28 21 -86 45l-7 3q-46 -16 -72 -41q-25 -25 -25 -52zM163 376q0 -26 26 -47q25 -22 79 -46q75 37 75 94q0 28 -25 46q-26 18 -62 18q-43 0 -68 -19t-25 -46z" />
    <glyph glyph-name="nine.onum.tnum" horiz-adv-x="490" 
d="M44 341q0 71 57 123q57 51 144 51q100 0 153 -62q51 -63 51 -154q0 -72 -25 -126q-26 -58 -68 -92q-42 -37 -94 -60q-49 -24 -109 -36l-35 64l1 5q95 17 154 59q62 44 81 98l-4 3q-25 -18 -58 -28q-38 -11 -67 -11q-76 0 -128 43q-53 42 -53 123zM135 343q0 -47 34 -69
q33 -24 79 -24q60 0 107 30q4 12 4 38q0 54 -32 89q-33 33 -86 33q-44 0 -75 -26q-31 -27 -31 -71z" />
    <glyph glyph-name="oneseventh" horiz-adv-x="760" 
d="M82 678l130 15l9 -7v-374h-65v316l-71 -6zM115 -24l245 370l220 353l46 -26l-237 -349l-228 -376zM458 269l5 65h236l5 -7q-110 -200 -119 -367h-75q30 177 114 312l-2 2z" />
    <glyph glyph-name="twosevenths" horiz-adv-x="760" 
d="M23 315l-6 22q188 167 188 247q0 53 -57 53q-51 0 -92 -28l-8 58q39 30 103 30q55 0 89 -25t34 -78q0 -93 -140 -209l3 -8l143 5v-67h-257zM115 -24l245 370l220 353l46 -26l-237 -349l-228 -376zM458 269l5 65h236l5 -7q-110 -200 -119 -367h-75q30 177 114 312l-2 2z
" />
    <glyph glyph-name="threesevenths" horiz-adv-x="760" 
d="M57 327l-1 64q51 -24 100 -24q30 0 49 15t19 42q0 25 -17 40q-19 14 -50 13l-67 -2l5 58l60 -2q25 -1 45 17q18 16 18 41q0 24 -17 38q-16 12 -44 12q-38 0 -83 -21l5 62q37 17 87 17q51 0 85 -25q35 -26 35 -70q0 -34 -19 -57q-19 -25 -51 -33v-6q37 -8 56 -31
q20 -25 20 -55q0 -56 -41 -85q-41 -28 -95 -28t-99 20zM115 -24l245 370l220 353l46 -26l-237 -349l-228 -376zM458 269l5 65h236l5 -7q-110 -200 -119 -367h-75q30 177 114 312l-2 2z" />
    <glyph glyph-name="foursevenths" horiz-adv-x="760" 
d="M40 444l159 245h66v-212l43 1v-58h-43v-105h-63v105h-153zM115 -24l245 370l220 353l46 -26l-237 -349l-228 -376zM117 478l3 -6l82 2v131h-7zM458 269l5 65h236l5 -7q-110 -200 -119 -367h-75q30 177 114 312l-2 2z" />
    <glyph glyph-name="fivesevenths" horiz-adv-x="760" 
d="M53 313l9 58q15 -5 52 -5q55 0 86 23q29 23 29 55q0 57 -122 57q-21 0 -44 -3l-2 2l21 189h199l-6 -63l-145 6l-10 -77q7 1 31 1q74 0 111 -31q36 -31 36 -79q0 -67 -53 -103q-54 -36 -134 -36q-39 0 -58 6zM115 -24l245 370l220 353l46 -26l-237 -349l-228 -376z
M458 269l5 65h236l5 -7q-110 -200 -119 -367h-75q30 177 114 312l-2 2z" />
    <glyph glyph-name="sixsevenths" horiz-adv-x="760" 
d="M46 459q0 109 69 172q69 61 167 66l-7 -54q-66 -5 -105 -35q-42 -32 -49 -75l4 -3q24 15 57 15q47 0 84 -31t37 -90q0 -54 -37 -85q-38 -32 -84 -32q-69 0 -102 43q-34 43 -34 109zM115 -24l245 370l220 353l46 -26l-237 -349l-228 -376zM116 480q-8 -54 10 -86
q18 -34 55 -34q26 0 41 17t15 48q0 33 -20 52q-21 18 -50 18q-27 0 -51 -15zM458 269l5 65h236l5 -7q-110 -200 -119 -367h-75q30 177 114 312l-2 2z" />
    <glyph glyph-name="oneninth" horiz-adv-x="760" 
d="M82 678l130 15l9 -7v-374h-65v316l-71 -6zM115 -24l245 370l220 353l46 -26l-237 -349l-228 -376zM447 225q0 49 34 83t87 34q69 0 103 -43q33 -44 33 -109q0 -181 -187 -238l-20 52q126 39 136 117l-4 3q-19 -15 -53 -15q-52 0 -90 30q-39 29 -39 86zM513 229
q0 -34 22 -52q23 -18 53 -18q27 0 47 17q9 43 -8 77q-18 32 -58 32q-25 0 -40 -15q-16 -15 -16 -41z" />
    <glyph glyph-name="twoninths" horiz-adv-x="760" 
d="M23 315l-6 22q188 167 188 247q0 53 -57 53q-51 0 -92 -28l-8 58q39 30 103 30q55 0 89 -25t34 -78q0 -93 -140 -209l3 -8l143 5v-67h-257zM115 -24l245 370l220 353l46 -26l-237 -349l-228 -376zM447 225q0 49 34 83t87 34q69 0 103 -43q33 -44 33 -109
q0 -181 -187 -238l-20 52q126 39 136 117l-4 3q-19 -15 -53 -15q-52 0 -90 30q-39 29 -39 86zM513 229q0 -34 22 -52q23 -18 53 -18q27 0 47 17q9 43 -8 77q-18 32 -58 32q-25 0 -40 -15q-16 -15 -16 -41z" />
    <glyph glyph-name="fourninths" horiz-adv-x="760" 
d="M40 444l159 245h66v-212l43 1v-58h-43v-105h-63v105h-153zM115 -24l245 370l220 353l46 -26l-237 -349l-228 -376zM117 478l3 -6l82 2v131h-7zM447 225q0 49 34 83t87 34q69 0 103 -43q33 -44 33 -109q0 -181 -187 -238l-20 52q126 39 136 117l-4 3q-19 -15 -53 -15
q-52 0 -90 30q-39 29 -39 86zM513 229q0 -34 22 -52q23 -18 53 -18q27 0 47 17q9 43 -8 77q-18 32 -58 32q-25 0 -40 -15q-16 -15 -16 -41z" />
    <glyph glyph-name="fiveninths" horiz-adv-x="760" 
d="M53 313l9 58q15 -5 52 -5q55 0 86 23q29 23 29 55q0 57 -122 57q-21 0 -44 -3l-2 2l21 189h199l-6 -63l-145 6l-10 -77q7 1 31 1q74 0 111 -31q36 -31 36 -79q0 -67 -53 -103q-54 -36 -134 -36q-39 0 -58 6zM115 -24l245 370l220 353l46 -26l-237 -349l-228 -376z
M447 225q0 49 34 83t87 34q69 0 103 -43q33 -44 33 -109q0 -181 -187 -238l-20 52q126 39 136 117l-4 3q-19 -15 -53 -15q-52 0 -90 30q-39 29 -39 86zM513 229q0 -34 22 -52q23 -18 53 -18q27 0 47 17q9 43 -8 77q-18 32 -58 32q-25 0 -40 -15q-16 -15 -16 -41z" />
    <glyph glyph-name="sevenninths" horiz-adv-x="760" 
d="M57 624l5 65h236l5 -7q-110 -200 -119 -367h-75q30 177 114 312l-2 2zM115 -24l245 370l220 353l46 -26l-237 -349l-228 -376zM447 225q0 49 34 83t87 34q69 0 103 -43q33 -44 33 -109q0 -181 -187 -238l-20 52q126 39 136 117l-4 3q-19 -15 -53 -15q-52 0 -90 30
q-39 29 -39 86zM513 229q0 -34 22 -52q23 -18 53 -18q27 0 47 17q9 43 -8 77q-18 32 -58 32q-25 0 -40 -15q-16 -15 -16 -41z" />
    <glyph glyph-name="eightninths" horiz-adv-x="760" 
d="M46 409q0 61 77 94v3q-66 44 -66 97q0 39 33 67q33 27 86 27q48 0 79 -24q32 -24 32 -64q0 -64 -71 -94v-3q82 -48 82 -109q0 -42 -35 -69q-36 -27 -92 -27q-55 0 -90 29t-35 73zM110 414q0 -24 18 -37q17 -14 45 -14q24 0 41 14q16 13 16 32q0 39 -62 71q-1 0 -2 1
q-2 0 -3 1q-53 -26 -53 -68zM115 -24l245 370l220 353l46 -26l-237 -349l-228 -376zM125 600q0 -35 48 -65q50 29 50 64q0 18 -13 31t-37 13t-36 -12q-12 -13 -12 -31zM447 225q0 49 34 83t87 34q69 0 103 -43q33 -44 33 -109q0 -181 -187 -238l-20 52q126 39 136 117l-4 3
q-19 -15 -53 -15q-52 0 -90 30q-39 29 -39 86zM513 229q0 -34 22 -52q23 -18 53 -18q27 0 47 17q9 43 -8 77q-18 32 -58 32q-25 0 -40 -15q-16 -15 -16 -41z" />
    <glyph glyph-name="zero.dnom" 
d="M24 151q0 98 37 144q38 47 96 47q59 0 95 -49q35 -50 35 -142q0 -99 -35 -149t-95 -50t-96 47q-37 47 -37 152zM90 152q0 -70 20 -105t47 -35q64 0 64 140q0 61 -18 95q-18 35 -48 35q-27 0 -46 -33q-19 -34 -19 -97z" />
    <glyph glyph-name="one.dnom" 
d="M66 323l130 15l9 -7v-374h-65v316l-71 -6z" />
    <glyph glyph-name="two.dnom" 
d="M25 -40l-6 22q188 167 188 247q0 53 -57 53q-51 0 -92 -28l-8 58q39 30 103 30q55 0 89 -25t34 -78q0 -93 -140 -209l3 -8l143 5v-67h-257z" />
    <glyph glyph-name="three.dnom" 
d="M41 -28l-1 64q51 -24 100 -24q30 0 49 15t19 42q0 25 -17 40q-19 14 -50 13l-67 -2l5 58l60 -2q25 -1 45 17q18 17 18 41t-17 38q-16 12 -44 12q-38 0 -83 -21l5 62q37 17 87 17q51 0 85 -25q35 -26 35 -70q0 -33 -19 -58q-19 -24 -51 -32v-6q37 -8 56 -31q20 -25 20 -55
q0 -56 -41 -85q-41 -28 -95 -28t-99 20z" />
    <glyph glyph-name="four.dnom" 
d="M24 89l159 245h66v-212l43 1v-58h-43v-105h-63v105h-153zM101 123l3 -6l82 2v131h-7z" />
    <glyph glyph-name="five.dnom" 
d="M37 -42l9 58q15 -5 52 -5q55 0 86 23q29 23 29 55q0 57 -122 57q-21 0 -44 -3l-2 2l21 189h199l-6 -63l-145 6l-10 -77q7 1 31 1q74 0 111 -31q36 -32 36 -79q0 -67 -53 -103q-54 -36 -134 -36q-38 0 -58 6z" />
    <glyph glyph-name="six.dnom" 
d="M30 104q0 109 69 172q69 61 167 66l-7 -54q-66 -5 -105 -35q-42 -32 -49 -75l4 -3q24 15 57 15q47 0 84 -31t37 -90q0 -53 -37 -86q-37 -31 -84 -31q-69 0 -102 43q-34 43 -34 109zM100 125q-8 -54 10 -86q18 -34 55 -34q26 0 41 17q15 16 15 48q0 33 -20 52
q-21 18 -50 18q-27 0 -51 -15z" />
    <glyph glyph-name="seven.dnom" 
d="M41 269l5 65h236l5 -7q-110 -200 -119 -367h-75q30 177 114 312l-2 2z" />
    <glyph glyph-name="eight.dnom" 
d="M30 54q0 61 77 94v3q-66 44 -66 97q0 38 33 67q33 27 86 27q47 0 79 -24t32 -64q0 -64 -71 -94v-3q82 -48 82 -109q0 -42 -35 -69q-36 -27 -92 -27t-90 28q-35 29 -35 74zM94 59q0 -23 18 -37q17 -14 45 -14q24 0 41 14q16 13 16 32q0 39 -62 71q-1 0 -2 1q-2 0 -3 1
q-53 -27 -53 -68zM109 245q0 -35 48 -65q50 29 50 64q0 18 -13 31t-37 13t-36 -12q-12 -14 -12 -31z" />
    <glyph glyph-name="nine.dnom" 
d="M30 225q0 49 34 83t87 34q69 0 103 -43q33 -44 33 -109q0 -181 -187 -238l-20 52q126 39 136 117l-4 3q-20 -15 -53 -15q-53 0 -90 30q-39 29 -39 86zM96 229q0 -34 22 -52t53 -18q27 0 47 17q9 43 -8 77q-18 32 -58 32q-25 0 -40 -15q-16 -15 -16 -41z" />
    <glyph glyph-name="zero.numr" 
d="M24 506q0 98 37 144q38 47 96 47q59 0 95 -49q35 -50 35 -142q0 -99 -35 -149q-36 -50 -95 -50q-60 0 -96 48q-37 46 -37 151zM90 507q0 -70 20 -105t47 -35q64 0 64 140q0 61 -18 95q-18 35 -48 35q-27 0 -46 -33q-19 -34 -19 -97z" />
    <glyph glyph-name="one.numr" 
d="M66 678l130 15l9 -7v-374h-65v316l-71 -6z" />
    <glyph glyph-name="two.numr" 
d="M25 315l-6 22q188 167 188 247q0 53 -57 53q-51 0 -92 -28l-8 58q39 30 103 30q55 0 89 -25t34 -78q0 -93 -140 -209l3 -8l143 5v-67h-257z" />
    <glyph glyph-name="three.numr" 
d="M41 327l-1 64q51 -24 100 -24q30 0 49 15t19 42q0 25 -17 40q-19 14 -50 13l-67 -2l5 58l60 -2q25 -1 45 17q18 16 18 41q0 24 -17 38q-17 12 -44 12q-38 0 -83 -21l5 62q37 17 87 17q51 0 85 -25q35 -26 35 -70q0 -34 -19 -57q-19 -25 -51 -33v-6q37 -8 56 -31
q20 -25 20 -55q0 -56 -41 -85q-41 -28 -95 -28t-99 20z" />
    <glyph glyph-name="four.numr" 
d="M24 444l159 245h66v-212l43 1v-58h-43v-105h-63v105h-153zM101 478l3 -6l82 2v131h-7z" />
    <glyph glyph-name="five.numr" 
d="M37 313l9 58q15 -5 52 -5q55 0 86 23q29 23 29 55q0 57 -122 57q-21 0 -44 -3l-2 2l21 189h199l-6 -63l-145 6l-10 -77q7 1 31 1q74 0 111 -31q36 -31 36 -79q0 -67 -53 -103q-54 -36 -134 -36q-38 0 -58 6z" />
    <glyph glyph-name="six.numr" 
d="M30 459q0 109 69 172q69 61 167 66l-7 -54q-66 -5 -105 -35q-42 -32 -49 -75l4 -3q24 15 57 15q47 0 84 -31t37 -90q0 -54 -37 -85q-38 -32 -84 -32q-69 0 -102 43q-34 43 -34 109zM100 480q-8 -54 10 -86q18 -34 55 -34q26 0 41 17t15 48q0 33 -20 52q-21 18 -50 18
q-27 0 -51 -15z" />
    <glyph glyph-name="seven.numr" 
d="M41 624l5 65h236l5 -7q-110 -200 -119 -367h-75q30 177 114 312l-2 2z" />
    <glyph glyph-name="eight.numr" 
d="M30 409q0 61 77 94v3q-66 44 -66 97q0 39 33 67q33 27 86 27q47 0 79 -24t32 -64q0 -64 -71 -94v-3q82 -48 82 -109q0 -42 -35 -69q-36 -27 -92 -27q-55 0 -90 29t-35 73zM94 414q0 -24 18 -37q17 -14 45 -14q24 0 41 14q16 13 16 32q0 39 -62 71q-1 0 -2 1q-2 0 -3 1
q-53 -26 -53 -68zM109 600q0 -35 48 -65q50 29 50 64q0 18 -13 31t-37 13t-36 -12q-12 -13 -12 -31z" />
    <glyph glyph-name="nine.numr" 
d="M30 580q0 49 34 83t87 34q69 0 103 -43q33 -43 33 -109q0 -181 -187 -238l-20 52q126 39 136 117l-4 3q-20 -15 -53 -15q-53 0 -90 30q-39 28 -39 86zM96 584q0 -34 22 -52t53 -18q27 0 47 17q9 43 -8 77q-18 32 -58 32q-25 0 -40 -15q-16 -15 -16 -41z" />
    <glyph glyph-name="fraction.onum" horiz-adv-x="600" 
d="M70 3l220 263l198 254l42 -26l-215 -251l-203 -267z" />
    <glyph glyph-name="onehalf.onum" horiz-adv-x="760" 
d="M82 598l130 15l9 -7v-374h-65v316l-71 -6zM115 -104l245 370l220 353l46 -26l-237 -349l-228 -376zM442 -120l-6 22q188 167 188 247q0 53 -57 53q-51 0 -92 -28l-8 58q39 30 103 30q55 0 89 -25t34 -78q0 -93 -140 -209l3 -8l143 5v-67h-257z" />
    <glyph glyph-name="onethird.onum" horiz-adv-x="760" 
d="M82 598l130 15l9 -7v-374h-65v316l-71 -6zM115 -104l245 370l220 353l46 -26l-237 -349l-228 -376zM458 -108l-1 64q51 -24 100 -24q29 0 49 15q19 15 19 42q0 25 -17 40q-19 14 -50 13l-67 -2l5 58l60 -2q25 -1 45 17q18 17 18 41t-17 38q-17 12 -44 12q-38 0 -83 -21
l5 62q37 17 87 17q51 0 85 -25q35 -26 35 -70q0 -33 -19 -58q-19 -24 -51 -32v-6q37 -8 56 -31q20 -25 20 -55q0 -56 -41 -85q-41 -28 -95 -28t-99 20z" />
    <glyph glyph-name="twothirds.onum" horiz-adv-x="760" 
d="M23 235l-6 22q188 167 188 247q0 53 -57 53q-51 0 -92 -28l-8 58q39 30 103 30q55 0 89 -25t34 -78q0 -93 -140 -209l3 -8l143 5v-67h-257zM115 -104l245 370l220 353l46 -26l-237 -349l-228 -376zM458 -108l-1 64q51 -24 100 -24q29 0 49 15q19 15 19 42q0 25 -17 40
q-19 14 -50 13l-67 -2l5 58l60 -2q25 -1 45 17q18 17 18 41t-17 38q-17 12 -44 12q-38 0 -83 -21l5 62q37 17 87 17q51 0 85 -25q35 -26 35 -70q0 -33 -19 -58q-19 -24 -51 -32v-6q37 -8 56 -31q20 -25 20 -55q0 -56 -41 -85q-41 -28 -95 -28t-99 20z" />
    <glyph glyph-name="onequarter.onum" horiz-adv-x="760" 
d="M82 598l130 15l9 -7v-374h-65v316l-71 -6zM115 -104l245 370l220 353l46 -26l-237 -349l-228 -376zM392 9l159 245h66v-212l43 1v-58h-43v-105h-63v105h-153zM469 43l3 -6l82 2v131h-7z" />
    <glyph glyph-name="threequarters.onum" horiz-adv-x="760" 
d="M57 247l-1 64q51 -24 100 -24q30 0 49 15t19 42q0 25 -17 40q-19 14 -50 13l-67 -2l5 58l60 -2q25 -1 45 17q18 16 18 41q0 24 -17 38q-16 12 -44 12q-38 0 -83 -21l5 62q37 17 87 17q51 0 85 -25q35 -26 35 -70q0 -34 -19 -57q-19 -25 -51 -33v-6q37 -8 56 -31
q20 -25 20 -55q0 -56 -41 -85q-41 -28 -95 -28t-99 20zM115 -104l245 370l220 353l46 -26l-237 -349l-228 -376zM392 9l159 245h66v-212l43 1v-58h-43v-105h-63v105h-153zM469 43l3 -6l82 2v131h-7z" />
    <glyph glyph-name="onefifth.onum" horiz-adv-x="760" 
d="M82 598l130 15l9 -7v-374h-65v316l-71 -6zM115 -104l245 370l220 353l46 -26l-237 -349l-228 -376zM454 -122l9 58q15 -5 52 -5q57 0 86 22q29 23 29 56q0 57 -122 57q-21 0 -44 -3l-2 2l21 189h199l-6 -63l-145 6l-10 -77q7 1 31 1q74 0 111 -31q36 -31 36 -79
q0 -67 -53 -103q-54 -36 -134 -36q-38 0 -58 6z" />
    <glyph glyph-name="twofifths.onum" horiz-adv-x="760" 
d="M23 235l-6 22q188 167 188 247q0 53 -57 53q-51 0 -92 -28l-8 58q39 30 103 30q55 0 89 -25t34 -78q0 -93 -140 -209l3 -8l143 5v-67h-257zM115 -104l245 370l220 353l46 -26l-237 -349l-228 -376zM454 -122l9 58q15 -5 52 -5q57 0 86 22q29 23 29 56q0 57 -122 57
q-21 0 -44 -3l-2 2l21 189h199l-6 -63l-145 6l-10 -77q7 1 31 1q74 0 111 -31q36 -31 36 -79q0 -67 -53 -103q-54 -36 -134 -36q-38 0 -58 6z" />
    <glyph glyph-name="threefifths.onum" horiz-adv-x="760" 
d="M57 247l-1 64q51 -24 100 -24q30 0 49 15t19 42q0 25 -17 40q-19 14 -50 13l-67 -2l5 58l60 -2q25 -1 45 17q18 16 18 41q0 24 -17 38q-16 12 -44 12q-38 0 -83 -21l5 62q37 17 87 17q51 0 85 -25q35 -26 35 -70q0 -34 -19 -57q-19 -25 -51 -33v-6q37 -8 56 -31
q20 -25 20 -55q0 -56 -41 -85q-41 -28 -95 -28t-99 20zM115 -104l245 370l220 353l46 -26l-237 -349l-228 -376zM454 -122l9 58q15 -5 52 -5q57 0 86 22q29 23 29 56q0 57 -122 57q-21 0 -44 -3l-2 2l21 189h199l-6 -63l-145 6l-10 -77q7 1 31 1q74 0 111 -31q36 -31 36 -79
q0 -67 -53 -103q-54 -36 -134 -36q-38 0 -58 6z" />
    <glyph glyph-name="fourfifths.onum" horiz-adv-x="760" 
d="M40 364l159 245h66v-212l43 1v-58h-43v-105h-63v105h-153zM115 -104l245 370l220 353l46 -26l-237 -349l-228 -376zM117 398l3 -6l82 2v131h-7zM454 -122l9 58q15 -5 52 -5q57 0 86 22q29 23 29 56q0 57 -122 57q-21 0 -44 -3l-2 2l21 189h199l-6 -63l-145 6l-10 -77
q7 1 31 1q74 0 111 -31q36 -31 36 -79q0 -67 -53 -103q-54 -36 -134 -36q-38 0 -58 6z" />
    <glyph glyph-name="onesixth.onum" horiz-adv-x="760" 
d="M82 598l130 15l9 -7v-374h-65v316l-71 -6zM115 -104l245 370l220 353l46 -26l-237 -349l-228 -376zM406 24q0 109 69 172q69 61 167 66l-7 -54q-66 -5 -105 -35q-42 -32 -49 -75l4 -3q24 15 57 15q47 0 84 -31t37 -90q0 -55 -37 -86t-84 -31q-69 0 -102 43
q-34 43 -34 109zM476 45q-8 -53 10 -87q18 -33 55 -33q26 0 41 17q15 16 15 48q0 33 -20 52q-21 18 -50 18q-27 0 -51 -15z" />
    <glyph glyph-name="fivesixths.onum" horiz-adv-x="760" 
d="M53 233l9 58q15 -5 52 -5q55 0 86 23q29 23 29 55q0 57 -122 57q-21 0 -44 -3l-2 2l21 189h199l-6 -63l-145 6l-10 -77q7 1 31 1q74 0 111 -31q36 -31 36 -79q0 -67 -53 -103q-54 -36 -134 -36q-39 0 -58 6zM115 -104l245 370l220 353l46 -26l-237 -349l-228 -376z
M406 24q0 109 69 172q69 61 167 66l-7 -54q-66 -5 -105 -35q-42 -32 -49 -75l4 -3q24 15 57 15q47 0 84 -31t37 -90q0 -55 -37 -86t-84 -31q-69 0 -102 43q-34 43 -34 109zM476 45q-8 -53 10 -87q18 -33 55 -33q26 0 41 17q15 16 15 48q0 33 -20 52q-21 18 -50 18
q-27 0 -51 -15z" />
    <glyph glyph-name="oneseventh.onum" horiz-adv-x="760" 
d="M82 598l130 15l9 -7v-374h-65v316l-71 -6zM115 -104l245 370l220 353l46 -26l-237 -349l-228 -376zM458 189l5 65h236l5 -7q-110 -200 -119 -367h-75q30 177 114 312l-2 2z" />
    <glyph glyph-name="twosevenths.onum" horiz-adv-x="760" 
d="M23 235l-6 22q188 167 188 247q0 53 -57 53q-51 0 -92 -28l-8 58q39 30 103 30q55 0 89 -25t34 -78q0 -93 -140 -209l3 -8l143 5v-67h-257zM115 -104l245 370l220 353l46 -26l-237 -349l-228 -376zM458 189l5 65h236l5 -7q-110 -200 -119 -367h-75q30 177 114 312l-2 2z
" />
    <glyph glyph-name="threesevenths.onum" horiz-adv-x="760" 
d="M57 247l-1 64q51 -24 100 -24q30 0 49 15t19 42q0 25 -17 40q-19 14 -50 13l-67 -2l5 58l60 -2q25 -1 45 17q18 16 18 41q0 24 -17 38q-16 12 -44 12q-38 0 -83 -21l5 62q37 17 87 17q51 0 85 -25q35 -26 35 -70q0 -34 -19 -57q-19 -25 -51 -33v-6q37 -8 56 -31
q20 -25 20 -55q0 -56 -41 -85q-41 -28 -95 -28t-99 20zM115 -104l245 370l220 353l46 -26l-237 -349l-228 -376zM458 189l5 65h236l5 -7q-110 -200 -119 -367h-75q30 177 114 312l-2 2z" />
    <glyph glyph-name="foursevenths.onum" horiz-adv-x="760" 
d="M40 364l159 245h66v-212l43 1v-58h-43v-105h-63v105h-153zM115 -104l245 370l220 353l46 -26l-237 -349l-228 -376zM117 398l3 -6l82 2v131h-7zM458 189l5 65h236l5 -7q-110 -200 -119 -367h-75q30 177 114 312l-2 2z" />
    <glyph glyph-name="fivesevenths.onum" horiz-adv-x="760" 
d="M53 233l9 58q15 -5 52 -5q55 0 86 23q29 23 29 55q0 57 -122 57q-21 0 -44 -3l-2 2l21 189h199l-6 -63l-145 6l-10 -77q7 1 31 1q74 0 111 -31q36 -31 36 -79q0 -67 -53 -103q-54 -36 -134 -36q-39 0 -58 6zM115 -104l245 370l220 353l46 -26l-237 -349l-228 -376z
M458 189l5 65h236l5 -7q-110 -200 -119 -367h-75q30 177 114 312l-2 2z" />
    <glyph glyph-name="sixsevenths.onum" horiz-adv-x="760" 
d="M46 379q0 109 69 172q69 61 167 66l-7 -54q-66 -5 -105 -35q-42 -32 -49 -75l4 -3q24 15 57 15q47 0 84 -31t37 -90q0 -54 -37 -85q-38 -32 -84 -32q-69 0 -102 43q-34 43 -34 109zM115 -104l245 370l220 353l46 -26l-237 -349l-228 -376zM116 400q-8 -54 10 -86
q18 -34 55 -34q26 0 41 17t15 48q0 33 -20 52q-21 18 -50 18q-27 0 -51 -15zM458 189l5 65h236l5 -7q-110 -200 -119 -367h-75q30 177 114 312l-2 2z" />
    <glyph glyph-name="oneeighth.onum" horiz-adv-x="760" 
d="M82 598l130 15l9 -7v-374h-65v316l-71 -6zM115 -104l245 370l220 353l46 -26l-237 -349l-228 -376zM447 -26q0 61 77 94v3q-66 43 -66 97q0 38 33 67q33 27 86 27q47 0 79 -24t32 -64q0 -64 -71 -94v-3q82 -48 82 -109q0 -42 -35 -69q-36 -27 -92 -27t-90 28
q-35 29 -35 74zM511 -21q0 -23 18 -37q17 -14 45 -14q25 0 41 13t16 33q0 39 -62 71q-1 0 -2 1q-2 0 -3 1q-53 -27 -53 -68zM526 165q0 -35 48 -65q50 29 50 64q0 18 -13 31t-37 13t-36 -12q-12 -14 -12 -31z" />
    <glyph glyph-name="threeeighths.onum" horiz-adv-x="760" 
d="M57 247l-1 64q51 -24 100 -24q30 0 49 15t19 42q0 25 -17 40q-19 14 -50 13l-67 -2l5 58l60 -2q25 -1 45 17q18 16 18 41q0 24 -17 38q-16 12 -44 12q-38 0 -83 -21l5 62q37 17 87 17q51 0 85 -25q35 -26 35 -70q0 -34 -19 -57q-19 -25 -51 -33v-6q37 -8 56 -31
q20 -25 20 -55q0 -56 -41 -85q-41 -28 -95 -28t-99 20zM115 -104l245 370l220 353l46 -26l-237 -349l-228 -376zM447 -26q0 61 77 94v3q-66 43 -66 97q0 38 33 67q33 27 86 27q47 0 79 -24t32 -64q0 -64 -71 -94v-3q82 -48 82 -109q0 -42 -35 -69q-36 -27 -92 -27t-90 28
q-35 29 -35 74zM511 -21q0 -23 18 -37q17 -14 45 -14q25 0 41 13t16 33q0 39 -62 71q-1 0 -2 1q-2 0 -3 1q-53 -27 -53 -68zM526 165q0 -35 48 -65q50 29 50 64q0 18 -13 31t-37 13t-36 -12q-12 -14 -12 -31z" />
    <glyph glyph-name="fiveeighths.onum" horiz-adv-x="760" 
d="M53 233l9 58q15 -5 52 -5q55 0 86 23q29 23 29 55q0 57 -122 57q-21 0 -44 -3l-2 2l21 189h199l-6 -63l-145 6l-10 -77q7 1 31 1q74 0 111 -31q36 -31 36 -79q0 -67 -53 -103q-54 -36 -134 -36q-39 0 -58 6zM115 -104l245 370l220 353l46 -26l-237 -349l-228 -376z
M447 -26q0 61 77 94v3q-66 43 -66 97q0 38 33 67q33 27 86 27q47 0 79 -24t32 -64q0 -64 -71 -94v-3q82 -48 82 -109q0 -42 -35 -69q-36 -27 -92 -27t-90 28q-35 29 -35 74zM511 -21q0 -23 18 -37q17 -14 45 -14q25 0 41 13t16 33q0 39 -62 71q-1 0 -2 1q-2 0 -3 1
q-53 -27 -53 -68zM526 165q0 -35 48 -65q50 29 50 64q0 18 -13 31t-37 13t-36 -12q-12 -14 -12 -31z" />
    <glyph glyph-name="seveneighths.onum" horiz-adv-x="760" 
d="M57 544l5 65h236l5 -7q-110 -200 -119 -367h-75q30 177 114 312l-2 2zM115 -104l245 370l220 353l46 -26l-237 -349l-228 -376zM447 -26q0 61 77 94v3q-66 43 -66 97q0 38 33 67q33 27 86 27q47 0 79 -24t32 -64q0 -64 -71 -94v-3q82 -48 82 -109q0 -42 -35 -69
q-36 -27 -92 -27t-90 28q-35 29 -35 74zM511 -21q0 -23 18 -37q17 -14 45 -14q25 0 41 13t16 33q0 39 -62 71q-1 0 -2 1q-2 0 -3 1q-53 -27 -53 -68zM526 165q0 -35 48 -65q50 29 50 64q0 18 -13 31t-37 13t-36 -12q-12 -14 -12 -31z" />
    <glyph glyph-name="oneninth.onum" horiz-adv-x="760" 
d="M82 598l130 15l9 -7v-374h-65v316l-71 -6zM115 -104l245 370l220 353l46 -26l-237 -349l-228 -376zM447 145q0 49 34 83t87 34q69 0 103 -43q33 -43 33 -109q0 -181 -187 -238l-20 52q126 39 136 117l-4 3q-19 -15 -53 -15q-52 0 -90 30q-39 28 -39 86zM513 149
q0 -34 22 -52q23 -18 53 -18q27 0 47 17q9 43 -8 77q-18 32 -58 32q-25 0 -40 -15q-16 -15 -16 -41z" />
    <glyph glyph-name="twoninths.onum" horiz-adv-x="760" 
d="M23 235l-6 22q188 167 188 247q0 53 -57 53q-51 0 -92 -28l-8 58q39 30 103 30q55 0 89 -25t34 -78q0 -93 -140 -209l3 -8l143 5v-67h-257zM115 -104l245 370l220 353l46 -26l-237 -349l-228 -376zM447 145q0 49 34 83t87 34q69 0 103 -43q33 -43 33 -109
q0 -181 -187 -238l-20 52q126 39 136 117l-4 3q-19 -15 -53 -15q-52 0 -90 30q-39 28 -39 86zM513 149q0 -34 22 -52q23 -18 53 -18q27 0 47 17q9 43 -8 77q-18 32 -58 32q-25 0 -40 -15q-16 -15 -16 -41z" />
    <glyph glyph-name="fourninths.onum" horiz-adv-x="760" 
d="M40 364l159 245h66v-212l43 1v-58h-43v-105h-63v105h-153zM115 -104l245 370l220 353l46 -26l-237 -349l-228 -376zM117 398l3 -6l82 2v131h-7zM447 145q0 49 34 83t87 34q69 0 103 -43q33 -43 33 -109q0 -181 -187 -238l-20 52q126 39 136 117l-4 3q-19 -15 -53 -15
q-52 0 -90 30q-39 28 -39 86zM513 149q0 -34 22 -52q23 -18 53 -18q27 0 47 17q9 43 -8 77q-18 32 -58 32q-25 0 -40 -15q-16 -15 -16 -41z" />
    <glyph glyph-name="fiveninths.onum" horiz-adv-x="760" 
d="M53 233l9 58q15 -5 52 -5q55 0 86 23q29 23 29 55q0 57 -122 57q-21 0 -44 -3l-2 2l21 189h199l-6 -63l-145 6l-10 -77q7 1 31 1q74 0 111 -31q36 -31 36 -79q0 -67 -53 -103q-54 -36 -134 -36q-39 0 -58 6zM115 -104l245 370l220 353l46 -26l-237 -349l-228 -376z
M447 145q0 49 34 83t87 34q69 0 103 -43q33 -43 33 -109q0 -181 -187 -238l-20 52q126 39 136 117l-4 3q-19 -15 -53 -15q-52 0 -90 30q-39 28 -39 86zM513 149q0 -34 22 -52q23 -18 53 -18q27 0 47 17q9 43 -8 77q-18 32 -58 32q-25 0 -40 -15q-16 -15 -16 -41z" />
    <glyph glyph-name="sevenninths.onum" horiz-adv-x="760" 
d="M57 544l5 65h236l5 -7q-110 -200 -119 -367h-75q30 177 114 312l-2 2zM115 -104l245 370l220 353l46 -26l-237 -349l-228 -376zM447 145q0 49 34 83t87 34q69 0 103 -43q33 -43 33 -109q0 -181 -187 -238l-20 52q126 39 136 117l-4 3q-19 -15 -53 -15q-52 0 -90 30
q-39 28 -39 86zM513 149q0 -34 22 -52q23 -18 53 -18q27 0 47 17q9 43 -8 77q-18 32 -58 32q-25 0 -40 -15q-16 -15 -16 -41z" />
    <glyph glyph-name="eightninths.onum" horiz-adv-x="760" 
d="M46 329q0 61 77 94v3q-66 44 -66 97q0 39 33 67q33 27 86 27q48 0 79 -24q32 -24 32 -64q0 -64 -71 -94v-3q82 -48 82 -109q0 -42 -35 -69q-36 -27 -92 -27q-55 0 -90 29t-35 73zM110 334q0 -24 18 -37q17 -14 45 -14q24 0 41 14q16 13 16 32q0 39 -62 71q-1 0 -2 1
q-2 0 -3 1q-53 -26 -53 -68zM115 -104l245 370l220 353l46 -26l-237 -349l-228 -376zM125 520q0 -35 48 -65q50 29 50 64q0 18 -13 31t-37 13t-36 -12q-12 -13 -12 -31zM447 145q0 49 34 83t87 34q69 0 103 -43q33 -43 33 -109q0 -181 -187 -238l-20 52q126 39 136 117l-4 3
q-19 -15 -53 -15q-52 0 -90 30q-39 28 -39 86zM513 149q0 -34 22 -52q23 -18 53 -18q27 0 47 17q9 43 -8 77q-18 32 -58 32q-25 0 -40 -15q-16 -15 -16 -41z" />
    <glyph glyph-name="zero.dnom.onum" 
d="M24 71q0 98 37 144q38 47 96 47q59 0 95 -49q35 -50 35 -142q0 -100 -35 -150q-36 -49 -95 -49q-60 0 -96 47q-37 47 -37 152zM90 72q0 -70 20 -105t47 -35q64 0 64 140q0 60 -18 95t-48 35q-27 0 -46 -33q-19 -34 -19 -97z" />
    <glyph glyph-name="one.dnom.onum" 
d="M66 243l130 15l9 -7v-374h-65v316l-71 -6z" />
    <glyph glyph-name="two.dnom.onum" 
d="M25 -120l-6 22q188 167 188 247q0 53 -57 53q-51 0 -92 -28l-8 58q39 30 103 30q55 0 89 -25t34 -78q0 -93 -140 -209l3 -8l143 5v-67h-257z" />
    <glyph glyph-name="three.dnom.onum" 
d="M41 -108l-1 64q51 -24 100 -24q30 0 49 15t19 42q0 25 -17 40q-19 14 -50 13l-67 -2l5 58l60 -2q25 -1 45 17q18 17 18 41t-17 38q-16 12 -44 12q-38 0 -83 -21l5 62q37 17 87 17q51 0 85 -25q35 -26 35 -70q0 -33 -19 -58q-19 -24 -51 -32v-6q37 -8 56 -31
q20 -25 20 -55q0 -56 -41 -85q-41 -28 -95 -28t-99 20z" />
    <glyph glyph-name="four.dnom.onum" 
d="M24 9l159 245h66v-212l43 1v-58h-43v-105h-63v105h-153zM101 43l3 -6l82 2v131h-7z" />
    <glyph glyph-name="five.dnom.onum" 
d="M37 -122l9 58q15 -5 52 -5q57 0 86 22q29 23 29 56q0 57 -122 57q-21 0 -44 -3l-2 2l21 189h199l-6 -63l-145 6l-10 -77q7 1 31 1q74 0 111 -31q36 -32 36 -79q0 -67 -53 -103q-54 -36 -134 -36q-38 0 -58 6z" />
    <glyph glyph-name="six.dnom.onum" 
d="M30 24q0 109 69 172q69 61 167 66l-7 -54q-66 -5 -105 -35q-42 -32 -49 -75l4 -3q24 15 57 15q47 0 84 -31t37 -90q0 -55 -37 -86t-84 -31q-69 0 -102 43q-34 43 -34 109zM100 45q-8 -53 10 -87q18 -33 55 -33q26 0 41 17q15 16 15 48q0 33 -20 52q-21 18 -50 18
q-27 0 -51 -15z" />
    <glyph glyph-name="seven.dnom.onum" 
d="M41 189l5 65h236l5 -7q-110 -200 -119 -367h-75q30 177 114 312l-2 2z" />
    <glyph glyph-name="eight.dnom.onum" 
d="M30 -26q0 61 77 94v3q-66 43 -66 97q0 38 33 67q33 27 86 27q47 0 79 -24t32 -64q0 -64 -71 -94v-3q82 -48 82 -109q0 -42 -35 -69q-36 -27 -92 -27t-90 28q-35 29 -35 74zM94 -21q0 -23 18 -37q17 -14 45 -14q25 0 41 13t16 33q0 39 -62 71q-1 0 -2 1q-2 0 -3 1
q-53 -27 -53 -68zM109 165q0 -35 48 -65q50 29 50 64q0 18 -13 31t-37 13t-36 -12q-12 -14 -12 -31z" />
    <glyph glyph-name="nine.dnom.onum" 
d="M30 145q0 49 34 83t87 34q69 0 103 -43q33 -43 33 -109q0 -181 -187 -238l-20 52q126 39 136 117l-4 3q-20 -15 -53 -15q-53 0 -90 30q-39 29 -39 86zM96 149q0 -34 22 -52t53 -18q27 0 47 17q9 43 -8 77q-18 32 -58 32q-25 0 -40 -15q-16 -15 -16 -41z" />
    <glyph glyph-name="zero.numr.onum" 
d="M24 426q0 98 37 144q38 47 96 47q59 0 95 -49q35 -50 35 -142q0 -99 -35 -149q-36 -50 -95 -50q-60 0 -96 48q-37 46 -37 151zM90 427q0 -70 20 -105t47 -35q64 0 64 140q0 61 -18 95q-18 35 -48 35q-27 0 -46 -33q-19 -34 -19 -97z" />
    <glyph glyph-name="one.numr.onum" 
d="M66 598l130 15l9 -7v-374h-65v316l-71 -6z" />
    <glyph glyph-name="two.numr.onum" 
d="M25 235l-6 22q188 167 188 247q0 53 -57 53q-51 0 -92 -28l-8 58q39 30 103 30q55 0 89 -25t34 -78q0 -93 -140 -209l3 -8l143 5v-67h-257z" />
    <glyph glyph-name="three.numr.onum" 
d="M41 247l-1 64q51 -24 100 -24q30 0 49 15t19 42q0 25 -17 40q-19 14 -50 13l-67 -2l5 58l60 -2q25 -1 45 17q18 16 18 41q0 24 -17 38q-17 12 -44 12q-38 0 -83 -21l5 62q37 17 87 17q51 0 85 -25q35 -26 35 -70q0 -34 -19 -57q-19 -25 -51 -33v-6q37 -8 56 -31
q20 -25 20 -55q0 -56 -41 -85q-41 -28 -95 -28t-99 20z" />
    <glyph glyph-name="four.numr.onum" 
d="M24 364l159 245h66v-212l43 1v-58h-43v-105h-63v105h-153zM101 398l3 -6l82 2v131h-7z" />
    <glyph glyph-name="five.numr.onum" 
d="M37 233l9 58q15 -5 52 -5q55 0 86 23q29 23 29 55q0 57 -122 57q-21 0 -44 -3l-2 2l21 189h199l-6 -63l-145 6l-10 -77q7 1 31 1q74 0 111 -31q36 -31 36 -79q0 -67 -53 -103q-54 -36 -134 -36q-38 0 -58 6z" />
    <glyph glyph-name="six.numr.onum" 
d="M30 379q0 109 69 172q69 61 167 66l-7 -54q-66 -5 -105 -35q-42 -32 -49 -75l4 -3q24 15 57 15q47 0 84 -31t37 -90q0 -54 -37 -85q-38 -32 -84 -32q-69 0 -102 43q-34 43 -34 109zM100 400q-8 -54 10 -86q18 -34 55 -34q26 0 41 17t15 48q0 33 -20 52q-21 18 -50 18
q-27 0 -51 -15z" />
    <glyph glyph-name="seven.numr.onum" 
d="M41 544l5 65h236l5 -7q-110 -200 -119 -367h-75q30 177 114 312l-2 2z" />
    <glyph glyph-name="eight.numr.onum" 
d="M30 329q0 61 77 94v3q-66 44 -66 97q0 39 33 67q33 27 86 27q47 0 79 -24t32 -64q0 -64 -71 -94v-3q82 -48 82 -109q0 -42 -35 -69q-36 -27 -92 -27q-55 0 -90 29t-35 73zM94 334q0 -24 18 -37q17 -14 45 -14q24 0 41 14q16 13 16 32q0 39 -62 71q-1 0 -2 1q-2 0 -3 1
q-53 -26 -53 -68zM109 520q0 -35 48 -65q50 29 50 64q0 18 -13 31t-37 13t-36 -12q-12 -13 -12 -31z" />
    <glyph glyph-name="nine.numr.onum" 
d="M30 500q0 49 34 83t87 34q69 0 103 -43q33 -44 33 -109q0 -181 -187 -238l-20 52q126 39 136 117l-4 3q-20 -15 -53 -15q-53 0 -90 30q-39 28 -39 86zM96 504q0 -34 22 -52t53 -18q27 0 47 17q9 43 -8 77q-18 32 -58 32q-25 0 -40 -15q-16 -15 -16 -41z" />
    <glyph glyph-name="exclam.c2sc" horiz-adv-x="380" 
d="M130 53q0 25 18 43q17 17 42 17q24 0 43 -17q17 -19 17 -43q0 -25 -17 -42q-18 -18 -43 -18q-26 0 -42 18q-18 17 -18 42zM131 540h110l-14 -195l-10 -147h-58l-11 146z" />
    <glyph glyph-name="exclamdown.c2sc" horiz-adv-x="380" 
d="M130 487q0 25 18 43q17 17 42 17q24 0 43 -17q17 -19 17 -43q0 -25 -17 -42q-18 -18 -43 -18q-26 0 -42 18q-18 17 -18 42zM139 0l14 195l10 147h58l11 -146l17 -196h-110z" />
    <glyph glyph-name="question.c2sc" horiz-adv-x="490" 
d="M104 448l9 79q52 23 115 23q87 0 137 -38q48 -39 48 -102q0 -111 -175 -142v-70h-82v133q162 17 162 84q0 27 -27 43q-27 15 -74 15q-55 0 -104 -25h-9zM139 53q0 25 18 43q17 17 42 17q24 0 43 -17q17 -19 17 -43q0 -25 -17 -42q-18 -18 -43 -18t-42 18q-18 17 -18 42z
" />
    <glyph glyph-name="questiondown.c2sc" horiz-adv-x="490" 
d="M77 140q0 111 175 142v70h82v-133q-162 -17 -162 -84q0 -27 27 -42q26 -16 74 -16q55 0 104 25h9l-9 -79q-52 -23 -115 -23q-88 0 -136 39q-49 37 -49 101zM231 497q0 25 18 43q17 17 42 17q24 0 43 -17q17 -19 17 -43q0 -25 -17 -42q-18 -18 -43 -18t-42 18
q-18 17 -18 42z" />
    <glyph glyph-name="exclamdown.case" horiz-adv-x="400" 
d="M140 627q0 25 18 43q17 17 42 17q24 0 43 -17q17 -19 17 -43q0 -25 -17 -42q-18 -18 -43 -18q-26 0 -42 18q-18 17 -18 42zM149 0l14 235l10 247h58l11 -246l17 -236h-110z" />
    <glyph glyph-name="questiondown.case" horiz-adv-x="540" 
d="M87 178q0 49 19 87q18 39 49 64q30 23 66 40q35 15 71 21v86h82v-149q-192 -18 -192 -154q0 -46 35 -75q34 -28 96 -28q55 0 104 25h9l-9 -79q-52 -23 -115 -23q-102 0 -158 51q-57 51 -57 134zM271 635q0 25 18 43q17 17 42 17q24 0 43 -17q17 -19 17 -43q0 -25 -17 -42
q-18 -18 -43 -18t-42 18q-18 17 -18 42z" />
    <glyph glyph-name="numbersign.onum" horiz-adv-x="460" 
d="M26 185l10 53l90 -16l29 123l-79 14l10 53l81 -15l39 166l48 -11l-38 -163l84 -15l45 182l48 -11l-44 -179l85 -15l-10 -53l-88 15l-30 -123l79 -13l-11 -53l-81 14l-49 -201l-48 11l48 198l-82 15l-50 -216l-48 11l50 213zM175 213l82 -14l30 123l-84 14z" />
    <glyph glyph-name="asterisk.short" horiz-adv-x="510" 
d="M97 332l25 80l112 -53l-21 151h92l-32 -152l116 63l24 -84l-128 -17l114 -98l-65 -56l-79 134l-78 -139l-64 60l110 98z" />
    <glyph glyph-name="backslash.short" horiz-adv-x="490" 
d="M55 536h80l300 -593h-80z" />
    <glyph glyph-name="quotedbl.short" horiz-adv-x="420" 
d="M84 500h102l-24 -274h-55zM234 500h102l-24 -274h-55z" />
    <glyph glyph-name="quotesingle.short" horiz-adv-x="270" 
d="M84 500h102l-24 -274h-55z" />
    <glyph glyph-name="slash.short" horiz-adv-x="490" 
d="M55 -57l300 593h80l-300 -593h-80z" />
    <glyph glyph-name="braceleft.short" horiz-adv-x="460" 
d="M89 197v80q53 0 89 27q36 26 36 63q0 26 -15 71q-16 42 -16 69q0 63 49 88q47 25 177 25v-70q-72 0 -102 -12q-31 -13 -31 -52q0 -27 18 -69q17 -45 17 -65q0 -40 -36 -65q-36 -26 -91 -36v-25q53 -4 91 -32q36 -27 36 -69q0 -20 -17 -66q-18 -45 -18 -71q0 -42 25 -60
t108 -18v-70q-97 0 -146 15q-52 17 -66 41q-16 25 -16 72q0 20 17 68q16 45 16 67q0 45 -34 70q-34 24 -91 24z" />
    <glyph glyph-name="braceright.short" horiz-adv-x="460" 
d="M51 -160v70q83 0 108 18t25 60q0 25 -17 71q-18 45 -18 66q0 42 37 69q37 28 90 32v25q-55 10 -91 36q-36 25 -36 65q0 22 18 65q17 43 17 69q0 38 -30 52q-32 12 -103 12v70q129 0 178 -25q48 -25 48 -88q0 -25 -15 -69q-16 -44 -16 -71q0 -37 36 -63q36 -27 89 -27v-80
q-55 0 -90 -24q-35 -26 -35 -70q0 -19 17 -67q16 -45 16 -68q0 -46 -15 -72q-16 -24 -66 -41q-51 -15 -147 -15z" />
    <glyph glyph-name="bracketleft.short" horiz-adv-x="460" 
d="M145 -164l8 389l-8 389l244 -4v-70l-147 4l-6 -322l6 -316l153 4v-70z" />
    <glyph glyph-name="bracketright.short" horiz-adv-x="460" 
d="M65 -90l153 -4l6 316l-6 322l-147 -4v70l244 4l-8 -389l8 -389l-250 4v70z" />
    <glyph glyph-name="parenleft.short" horiz-adv-x="440" 
d="M115 217q0 137 63 237q62 99 166 161l45 -56q-79 -51 -126 -137t-47 -190q0 -214 173 -351l-45 -58q-229 162 -229 394z" />
    <glyph glyph-name="parenright.short" horiz-adv-x="440" 
d="M96 -177l-45 58q173 137 173 351q0 104 -47 190t-126 137l45 56q104 -62 166 -161q63 -100 63 -237q0 -232 -229 -394z" />
    <glyph glyph-name="emdash.case" horiz-adv-x="1090" 
d="M137 264v73h816v-73h-816z" />
    <glyph glyph-name="endash.case" horiz-adv-x="570" 
d="M85 258v84h400v-84h-400z" />
    <glyph glyph-name="hyphen.case" horiz-adv-x="430" 
d="M85 258v84h260v-84h-260z" />
    <glyph glyph-name="guillemotleft.c2sc" horiz-adv-x="610" 
d="M85 242v13l177 184l41 -36l-106 -148v-10l106 -152l-41 -37zM295 242v13l177 184l41 -36l-106 -148v-10l106 -152l-41 -37z" />
    <glyph glyph-name="guillemotright.c2sc" horiz-adv-x="610" 
d="M97 92l106 148v10l-106 152l41 37l177 -186v-13l-177 -184zM307 92l106 148v10l-106 152l41 37l177 -186v-13l-177 -184z" />
    <glyph glyph-name="guilsinglleft.c2sc" horiz-adv-x="400" 
d="M85 242v13l177 184l41 -36l-106 -148v-10l106 -152l-41 -37z" />
    <glyph glyph-name="guilsinglright.c2sc" horiz-adv-x="400" 
d="M97 92l106 148v10l-106 152l41 37l177 -186v-13l-177 -184z" />
    <glyph glyph-name="quotedblbase.c2sc" horiz-adv-x="500" 
d="M74 -151l64 216h101l-102 -216h-63zM264 -151l64 216h101l-102 -216h-63z" />
    <glyph glyph-name="quotedblleft.c2sc" horiz-adv-x="500" 
d="M71 284l102 216h63l-64 -216h-101zM261 284l102 216h63l-64 -216h-101z" />
    <glyph glyph-name="quotedblright.c2sc" horiz-adv-x="500" 
d="M74 284l64 216h101l-102 -216h-63zM264 284l64 216h101l-102 -216h-63z" />
    <glyph glyph-name="quoteleft.c2sc" 
d="M71 284l102 216h63l-64 -216h-101z" />
    <glyph glyph-name="quoteright.c2sc" 
d="M74 284l64 216h101l-102 -216h-63z" />
    <glyph glyph-name="quotesinglbase.c2sc" 
d="M74 -151l64 216h101l-102 -216h-63z" />
    <glyph glyph-name="guillemotleft.case" horiz-adv-x="640" 
d="M85 312v13l197 224l51 -36l-136 -188v-10l136 -192l-51 -37zM295 312v13l197 224l51 -36l-136 -188v-10l136 -192l-51 -37z" />
    <glyph glyph-name="guillemotright.case" horiz-adv-x="640" 
d="M97 123l136 192v10l-136 188l51 36l197 -224v-13l-197 -226zM307 123l136 192v10l-136 188l51 36l197 -224v-13l-197 -226z" />
    <glyph glyph-name="guilsinglleft.case" horiz-adv-x="430" 
d="M85 312v13l197 224l51 -36l-136 -188v-10l136 -192l-51 -37z" />
    <glyph glyph-name="guilsinglright.case" horiz-adv-x="430" 
d="M97 123l136 192v10l-136 188l51 36l197 -224v-13l-197 -226z" />
    <glyph glyph-name="cent.onum" horiz-adv-x="460" 
d="M66 240q0 103 58 173q57 71 138 78l12 110l51 -5l-11 -106q45 -8 100 -46l-30 -69q-39 35 -78 39l-34 -321h8q54 0 107 41l20 -70q-57 -48 -133 -48h-10l-10 -96l-51 5l10 99q-67 19 -107 77q-40 56 -40 139zM158 242q0 -103 64 -136l32 305q-43 -13 -69 -59
q-27 -45 -27 -110z" />
    <glyph glyph-name="dollar.onum" horiz-adv-x="480" 
d="M59 36l19 82q68 -50 129 -57l13 164l-9 5q-31 16 -51 27q-21 11 -43 29q-24 19 -34 41q-11 24 -11 50q0 57 45 97q42 39 127 41l9 103l51 -4l-9 -103q57 -9 112 -41l-14 -76q-53 37 -104 46l-12 -152q144 -69 144 -163q0 -67 -49 -101q-50 -35 -121 -39l-8 -103l-51 5
l8 99q-40 4 -82 20q-41 15 -59 30zM160 385q0 -22 13 -36q13 -15 54 -36l11 130q-32 -1 -56 -16q-22 -15 -22 -42zM269 199l-11 -139q36 4 56 21q18 17 18 39q0 25 -13 41q-15 18 -50 38z" />
    <glyph glyph-name="Euro.onum" horiz-adv-x="560" 
d="M45 184l13 50h37v7q0 25 1 32h-48l13 50h45q26 87 95 137q70 50 154 50q83 0 133 -33l-26 -80q-41 32 -109 30q-52 -2 -92 -27q-40 -27 -60 -77h242l-13 -50h-240q-2 -26 -2 -30v-9h232l-13 -50h-211q16 -53 60 -85q41 -31 99 -31q46 0 112 33l35 -75q-68 -41 -149 -41
q-97 0 -165 56q-69 56 -87 143h-56z" />
    <glyph glyph-name="sterling.onum" horiz-adv-x="480" 
d="M88 -10l-35 65q85 66 85 160q0 10 -1 13h-69v50h59q-17 68 -17 89q0 72 50 110t121 38q81 0 139 -45l-21 -75q-40 37 -105 37q-39 0 -65 -20q-26 -21 -26 -61q0 -25 16 -73h138v-50h-127q1 -3 1 -10q0 -66 -62 -114l8 -10q29 8 48 8q31 0 61 -13t57 -13q41 0 77 27l6 -2
l16 -76q-38 -35 -99 -35q-26 0 -61 16q-36 16 -67 16q-55 0 -127 -32z" />
    <glyph glyph-name="yen.onum" horiz-adv-x="490" 
d="M28 500h98l117 -199h8l113 199h98l-171 -282h85v-50h-85v-39h85v-50h-85v-79h-92v79h-85v50h85v39h-85v50h85z" />
    <glyph glyph-name="divide.onum" horiz-adv-x="530" 
d="M33 197v68h464v-68h-464zM205 67q0 25 18 43q17 17 42 17q24 0 43 -17q17 -19 17 -43q0 -25 -17 -42q-18 -18 -43 -18t-42 18q-18 17 -18 42zM205 395q0 25 18 43q17 17 42 17q24 0 43 -17q17 -19 17 -43q0 -25 -17 -42q-18 -18 -43 -18t-42 18q-18 17 -18 42z" />
    <glyph glyph-name="equal.onum" horiz-adv-x="530" 
d="M43 93v68h444v-68h-444zM43 293v68h444v-68h-444z" />
    <glyph glyph-name="greater.onum" horiz-adv-x="530" 
d="M51 95l343 156l-343 156l25 65l404 -190v-62l-404 -190z" />
    <glyph glyph-name="greaterequal.onum" horiz-adv-x="530" 
d="M43 -30v68h444v-68h-444zM51 155l343 156l-343 156l25 65l404 -190v-62l-404 -190z" />
    <glyph glyph-name="less.onum" horiz-adv-x="530" 
d="M50 220v62l404 190l25 -65l-343 -156l343 -156l-25 -65z" />
    <glyph glyph-name="lessequal.onum" horiz-adv-x="530" 
d="M43 -30v68h444v-68h-444zM50 280v62l404 190l25 -65l-343 -156l343 -156l-25 -65z" />
    <glyph glyph-name="minus.onum" horiz-adv-x="530" 
d="M33 197v68h464v-68h-464z" />
    <glyph glyph-name="multiply.onum" horiz-adv-x="530" 
d="M53 62l164 164l-164 164l48 48l164 -164l164 164l48 -48l-164 -164l164 -164l-48 -48l-164 164l-164 -164z" />
    <glyph glyph-name="notequal.onum" horiz-adv-x="530" 
d="M43 93v68h162l61 132h-223v68h254l63 136l56 -30l-49 -106h120v-68h-151l-61 -132h212v-68h-244l-67 -146l-56 30l53 116h-130z" />
    <glyph glyph-name="percent.onum" horiz-adv-x="690" 
d="M55 367q0 63 35 106q35 42 88 42q58 0 94 -41q35 -43 35 -107q0 -60 -36 -101q-38 -41 -90 -41q-54 0 -90 40q-36 41 -36 102zM103 15l228 243l210 254l47 -26l-232 -251l-206 -247zM118 368q0 -38 18 -61q18 -24 48 -24q26 0 43 23t17 62t-17 65q-16 24 -46 24
q-29 0 -45 -25q-18 -26 -18 -64zM383 127q0 63 35 106q34 42 88 42q58 0 94 -41q35 -43 35 -107q0 -60 -36 -101q-37 -41 -90 -41q-54 0 -90 40q-36 41 -36 102zM446 128q0 -39 18 -61q18 -24 48 -24q26 0 43 23t17 62t-17 65q-17 24 -46 24t-45 -25q-18 -26 -18 -64z" />
    <glyph glyph-name="perthousand.onum" horiz-adv-x="970" 
d="M55 367q0 63 35 106q35 42 88 42q58 0 94 -41q35 -43 35 -107q0 -60 -36 -101q-38 -41 -90 -41q-54 0 -90 40q-36 41 -36 102zM103 15l228 243l210 254l47 -26l-232 -251l-206 -247zM118 368q0 -38 18 -61q18 -24 48 -24q26 0 43 23t17 62t-17 65q-16 24 -46 24
q-29 0 -45 -25q-18 -26 -18 -64zM383 127q0 63 35 106q34 42 88 42q58 0 94 -41q35 -43 35 -107q0 -60 -36 -101q-37 -41 -90 -41q-54 0 -90 40q-36 41 -36 102zM446 128q0 -39 18 -61q18 -24 48 -24q26 0 43 23t17 62t-17 65q-17 24 -46 24t-45 -25q-18 -26 -18 -64z
M663 127q0 63 35 106q34 42 88 42q58 0 94 -41q35 -43 35 -107q0 -60 -36 -101q-37 -41 -90 -41q-54 0 -90 40q-36 41 -36 102zM726 128q0 -39 18 -61q18 -24 48 -24q26 0 43 23t17 62t-17 65q-17 24 -46 24t-45 -25q-18 -26 -18 -64z" />
    <glyph glyph-name="plus.onum" horiz-adv-x="530" 
d="M33 197v68h198v198h68v-198h198v-68h-198v-198h-68v198h-198z" />
    <glyph glyph-name="plusminus.onum" horiz-adv-x="530" 
d="M43 -30v68h444v-68h-444zM43 287v68h188v198h68v-198h188v-68h-188v-198h-68v198h-188z" />
    <glyph glyph-name="uni2191.circle" horiz-adv-x="880" 
d="M58 262q0 160 112 272q111 112 268 112q160 0 272 -112t112 -272q0 -157 -112 -269q-112 -111 -272 -111q-157 0 -268 111q-112 112 -112 269zM168 305l47 -61l183 163v-420h84v420l183 -163l46 61l-264 237h-13z" />
    <glyph glyph-name="uni2192.circle" horiz-adv-x="880" 
d="M58 263q0 159 112 271q111 112 268 112q160 0 272 -112t112 -271q0 -157 -112 -269q-112 -111 -272 -111q-157 0 -268 111q-112 112 -112 269zM163 223h420l-163 -183l61 -47l237 266v13l-237 264l-61 -46l163 -183h-420v-84z" />
    <glyph glyph-name="uni2193.circle" horiz-adv-x="880" 
d="M58 266q0 157 112 269q111 111 268 111q160 0 272 -111q112 -112 112 -269q0 -159 -112 -272q-112 -112 -272 -112q-157 0 -268 112q-112 113 -112 272zM168 223l266 -237h13l264 237l-46 61l-183 -163v420h-84v-420l-183 163z" />
    <glyph glyph-name="uni2190.circle" horiz-adv-x="880" 
d="M58 263q0 158 113 271q112 112 271 112q157 0 269 -112q111 -112 111 -271q0 -157 -111 -269q-113 -111 -269 -111q-158 0 -271 111q-113 113 -113 269zM162 259l237 -266l61 47l-163 183h420v84h-420l163 183l-61 46l-237 -264v-13z" />
    <glyph glyph-name="apple" horiz-adv-x="530" 
d="M52 97l34 95l11 -1l-9 -71l22 -41l37 -33l88 -16l48 3l51 31l3 -4l-7 -21l-40 -43l-68 -23l-97 14l-55 48zM111 436l105 284h11l32 -121l-3 -82l68 -8l64 99l8 99h12l7 -99l-17 -129l36 -85l35 -38l1 -6l-7 -8v-18l8 -4l-1 -9l-17 -36l-36 7l-11 101l-34 56l-13 -2
l26 -60l4 -99l-37 -46l3 -22l26 -37l7 -71l-64 -23l-33 16l-35 57l-75 25l-28 47l-3 42l-30 41l-2 58l4 27zM149 438l9 -9l33 34l11 76h-18zM277 305l36 -14l11 13l-3 14l-11 10l-30 -10zM423 235l14 15l24 4l33 -10l6 -9l-3 -37l-12 -17l-5 -33l23 -8l-3 -10l-23 7l-43 -26
l-5 10l39 23l5 36l-36 14l-13 31z" />
    <glyph glyph-name="ampersand.br" horiz-adv-x="750" 
d="M102 161q0 66 37 110q36 43 102 87q-90 94 -90 177q0 69 46 115q46 45 125 45q81 0 126 -46q44 -47 44 -111q0 -65 -35 -108q-34 -43 -98 -81l146 -157q35 68 35 155h84q0 -125 -60 -219l115 -124v-4h-105l-62 66q-86 -81 -197 -81q-100 0 -156 50q-57 49 -57 126z
M194 160q0 -41 33 -68q31 -28 83 -28q82 0 147 62l-167 179q-45 -29 -71 -63q-25 -34 -25 -82zM236 529q0 -31 18 -58q16 -27 56 -69q46 30 72 60q25 29 25 69q0 39 -24 63q-26 23 -62 23t-60 -25q-25 -25 -25 -63z" />
    <glyph glyph-name="ampersand.short.br" horiz-adv-x="620" 
d="M91 118q0 47 25 78q26 33 69 62q-71 71 -71 125q0 56 38 94t100 38q65 0 101 -36q35 -37 35 -89q0 -49 -24 -80q-25 -31 -70 -58l114 -110q29 52 26 117h75q0 -97 -48 -168l90 -85v-6h-94l-42 40q-65 -55 -154 -55q-80 0 -124 38q-46 37 -46 95zM175 119q0 -26 25 -45
t65 -19q55 0 98 34l-130 124q-58 -42 -58 -94zM193 385q0 -39 52 -88q69 47 69 93q0 24 -17 41t-44 17t-43 -19q-17 -20 -17 -44z" />
    <glyph glyph-name="degree.onum" horiz-adv-x="390" 
d="M52 371q0 59 42 102q42 42 101 42t102 -42q42 -43 42 -102t-42 -101q-43 -42 -102 -42t-101 42t-42 101zM120 371q0 -34 21 -58t53 -24q33 0 55 24q21 24 21 58q0 35 -21 60q-22 24 -55 24q-32 0 -53 -24q-21 -25 -21 -60z" />
    <glyph glyph-name="at.short" horiz-adv-x="600" 
d="M95 206q0 126 66 217q65 92 180 92q76 0 120 -35q43 -36 39 -106l-15 -211q-3 -35 21 -55l-1 -8l-70 -18l-13 33h-12q-33 -27 -76 -27q-44 0 -73 29t-29 82q0 59 38 100q38 39 90 39q46 0 64 -6l4 37q4 43 -19 62q-24 18 -70 18q-73 0 -123 -68q-50 -70 -50 -176
q0 -111 45 -166q43 -55 115 -55q63 0 97 28h3l20 -56q-46 -40 -121 -40q-113 0 -172 77q-58 76 -58 213zM302 199q0 -46 50 -46q32 0 61 18l8 99q-16 6 -53 6q-29 0 -47 -20q-19 -19 -19 -57z" />
    <glyph glyph-name="ampersand.short" horiz-adv-x="640" 
d="M81 139q0 44 26 82t74 56v7q-60 28 -60 98q0 54 51 94q50 39 129 39q71 0 135 -37l-32 -69q-49 31 -102 31q-36 0 -62 -17t-26 -48q0 -27 17 -47q16 -19 49 -19v-63q-55 0 -83 -28q-29 -29 -29 -72q0 -42 39 -64q37 -22 94 -22q56 0 99 26q41 26 41 66q0 28 -12 51
l-71 -18l-16 68l202 52l16 -69l-58 -15q18 -33 18 -76q0 -72 -65 -116t-157 -44q-90 0 -153 39q-64 39 -64 115z" />
    <glyph glyph-name="paragraph.short" horiz-adv-x="650" 
d="M102 334q0 85 65 136q65 50 166 50h244v-67h-54v-565h-72v565h-51v-565h-72v260q-99 0 -162 51q-64 49 -64 135zM187 335q0 -51 38 -83t103 -32v233q-61 0 -101 -34t-40 -84z" />
    <glyph glyph-name="copyright.short" horiz-adv-x="880" 
d="M133 253q0 127 90 217q89 90 218 90q133 0 220 -89q86 -91 86 -218q0 -129 -86 -218q-85 -90 -220 -90q-131 0 -220 87q-88 85 -88 221zM182 251q0 -113 74 -187t186 -74q110 0 184 74q72 73 72 187q0 118 -73 192q-74 74 -184 74q-107 0 -183 -76t-76 -190zM273 250
q0 83 50 133t122 50q70 0 119 -34l-11 -51q-53 32 -109 32q-48 0 -79 -33q-33 -33 -33 -95q0 -52 32 -87q31 -34 81 -34q55 0 113 35l13 -50q-53 -38 -127 -38q-75 0 -123 50t-48 122z" />
    <glyph glyph-name="uni2117.short" horiz-adv-x="880" 
d="M133 253q0 127 90 217q89 90 218 90q133 0 220 -89q86 -91 86 -218q0 -129 -86 -218q-85 -90 -220 -90q-131 0 -220 87q-88 85 -88 221zM182 251q0 -113 74 -187t186 -74q110 0 184 74q72 73 72 187q0 118 -73 192q-74 74 -184 74q-107 0 -183 -76t-76 -190zM353 80v350
h102q53 0 84 -28t31 -79q0 -49 -34 -77q-36 -29 -85 -28h-46v-138h-52zM405 267h47q25 0 45 14q19 13 19 43q0 28 -16 43q-17 14 -45 14h-50v-114z" />
    <glyph glyph-name="section.short" horiz-adv-x="520" 
d="M94 -73l17 76q65 -41 140 -41q37 0 56 13q18 13 18 30q0 39 -77 71q-79 32 -116 69q-38 38 -38 87q0 53 55 101q-50 38 -50 88q0 44 41 77q41 32 113 32q81 0 143 -33l-15 -72q-61 34 -126 34q-31 0 -48 -11q-18 -12 -18 -27q0 -19 19 -35q18 -15 70 -35
q148 -54 148 -156q0 -54 -58 -97q49 -40 49 -90q0 -59 -46 -89t-121 -30q-47 0 -93 11q-43 10 -63 27zM176 238q0 -23 26 -47t76 -44q28 -12 38 -17q26 26 26 61q0 29 -21 48q-23 22 -73 43q-5 2 -45 20q-27 -27 -27 -64z" />
    <glyph glyph-name="uni2032.short" horiz-adv-x="300" 
d="M63 242l70 266l96 -34l-114 -250z" />
    <glyph glyph-name="uni2033.short" horiz-adv-x="490" 
d="M63 242l70 266l96 -34l-114 -250zM253 242l70 266l96 -34l-114 -250z" />
    <glyph glyph-name="acute.case" horiz-adv-x="500" 
d="M190 458v8l106 124h89v-10l-134 -122h-61z" />
    <glyph glyph-name="breve.case" horiz-adv-x="500" 
d="M115 580h47q0 -32 25 -54q24 -24 63 -24q36 0 62 23t26 55h47q0 -65 -39 -98q-40 -34 -97 -34q-58 0 -95 34q-39 33 -39 98z" />
    <glyph glyph-name="caron.case" horiz-adv-x="500" 
d="M115 582v8h56l79 -64l79 64h56v-8l-121 -124h-28z" />
    <glyph glyph-name="circumflex.case" horiz-adv-x="500" 
d="M115 458v8l121 124h28l121 -124v-8h-56l-79 64l-79 -64h-56z" />
    <glyph glyph-name="grave.case" horiz-adv-x="500" 
d="M115 580v10h89l106 -124v-8h-61z" />
    <glyph glyph-name="hungarumlaut.case" horiz-adv-x="500" 
d="M91 458v8l106 124h89v-10l-134 -122h-61zM228 458v8l106 124h89v-10l-134 -122h-61z" />
    <glyph glyph-name="Ethbar.part" horiz-adv-x="500" 
d="M102 252v61h328v-61h-328z" />
    <glyph glyph-name="Lslashbar.part" horiz-adv-x="500" 
d="M114 207l324 211l33 -48l-324 -211z" />
    <glyph glyph-name="lslashbar.part" horiz-adv-x="390" 
d="M58 566l224 151l25 -38l-224 -151z" />
    </font>
</defs>
</svg>
