<svg id="Layer_1" data-name="Layer 1" xmlns="http://www.w3.org/2000/svg" viewBox="0 0 400 100"><defs><style>.cls-1{fill:#2d0f41;}</style></defs><title>Phyramid, Crop, Slate-Transparent</title><g id="phyramid_text_l" data-name="phyramid text l"><path class="cls-1" d="M94.13,74.72V38.9h12.61c7.23,0,12.31,4.3,12.31,10.89a11,11,0,0,1-3.29,8c-2.15,2.22-5.37,3.37-9.67,3.37h-7V74.72Zm5-18.2h7.17c4.65,0,7.44-2.36,7.44-6.66s-2.43-6.37-7.3-6.37H99.14Z"/><path class="cls-1" d="M130.66,74.72V38.9h5V54.16H155V38.9h5V74.72h-5v-16H135.67v16Z"/><path class="cls-1" d="M169.84,39.26l5.08-.72,11.25,17.05h.36l10.89-17.05,5.08.72L188.68,60.68v14h-5v-14Z"/><path class="cls-1" d="M212.32,74.72V38.9h13c7.23,0,12.32,4.37,12.32,10.68,0,5.37-3.37,9.31-8.88,10.52l11.82,13.25v.79l-4.73,1L223.2,60.68h-5.87v14Zm5-18.63h7.59c4.66,0,7.45-2.29,7.45-6.59,0-3.94-2.94-6-7.31-6h-7.73Z"/><path class="cls-1" d="M248.42,74.36l16.76-35.82H266l16.9,35.82-5.16.71-3.94-8.66H257.37l-3.87,8.66Zm11-12.61h12.24l-6-13.25h-.22Z"/><path class="cls-1" d="M291.82,74.36l6-35.6,1.58-.22,13.17,27.22H313l12.82-27.22,1.51.22,6.09,35.6-4.73.71-3.87-23.42-.43-.14L313,75.15h-.71L300.7,51.51l-.43.14-3.72,23.42Z"/><path class="cls-1" d="M347.05,74.72V38.9h5V74.72Z"/><path class="cls-1" d="M367.82,74.72V38.9h12.1A18.08,18.08,0,0,1,392.46,44a16.2,16.2,0,0,1,5.59,12.53c0,5.66-1.72,10.17-5.16,13.4A18.12,18.12,0,0,1,380,74.72Zm5-4.59h7.09a12.7,12.7,0,0,0,9.17-3.58c2.44-2.43,3.66-5.73,3.66-9.81a13.35,13.35,0,0,0-12.83-13.25h-7.09Z"/></g><g id="slash"><polygon class="cls-1" points="36.18 99.38 2.02 99.38 50.18 0.65 84.34 0.65 36.18 99.38"/></g></svg>