<?xml version="1.0" encoding="UTF-8" standalone="no"?>
<!DOCTYPE svg PUBLIC "-//W3C//DTD SVG 1.1//EN" "http://www.w3.org/Graphics/SVG/1.1/DTD/svg11.dtd">
<svg width="100%" height="100%" viewBox="0 0 400 90" version="1.1" xmlns="http://www.w3.org/2000/svg" xmlns:xlink="http://www.w3.org/1999/xlink" xml:space="preserve" xmlns:serif="http://www.serif.com/" style="fill-rule:evenodd;clip-rule:evenodd;stroke-linejoin:round;stroke-miterlimit:2;">
    <path d="M0.69,89.34L0.69,63C0.701,30.222 27.672,3.255 60.45,3.25L60.45,29.58C60.45,62.363 33.473,89.34 0.69,89.34Z" style="fill:rgb(45,15,65);fill-rule:nonzero;"/>
    <g id="phyramid_text_l">
        <path d="M93.74,59.56C98.18,62.56 102.54,64 106.74,64C112.25,64 115.29,61.86 115.29,59C115.29,55.8 112.58,53.9 105.29,51C96.74,47.62 93.36,44.5 93.36,39.15C93.353,36.05 94.747,33.108 97.15,31.15C99.7,28.93 103.23,27.78 107.84,27.78C112.704,27.65 117.495,28.996 121.58,31.64L119.74,38C116.307,35.577 112.202,34.286 108,34.31C103.31,34.31 100.76,36.03 100.76,38.58C100.806,40.037 101.552,41.385 102.76,42.2C105.308,43.796 108.008,45.136 110.82,46.2C119.38,49.82 122.91,53.69 122.91,59.28C122.91,66.6 116.58,70.55 106.71,70.55C100.21,70.55 94.37,68.55 91.82,66.19L93.74,59.56Z" style="fill:rgb(45,15,65);fill-rule:nonzero;"/>
        <path d="M131.25,69.76L150.67,28.22L152.31,28.22L171.89,69.76L164.08,69.76L160.08,60.88L143,60.88L139.13,69.76L131.25,69.76ZM145.73,54.54L157.25,54.54L151.74,42.2L151.16,42.2L145.73,54.54Z" style="fill:rgb(45,15,65);fill-rule:nonzero;"/>
        <path d="M182.67,69.76L182.67,28.63L210.67,28.63L210.67,35.13L190.27,35.13L190.27,46L208.2,46L208.2,52.5L190.24,52.5L190.24,69.76L182.67,69.76Z" style="fill:rgb(45,15,65);fill-rule:nonzero;"/>
        <path d="M222.16,69.76L222.16,28.63L250.16,28.63L250.16,35.13L229.76,35.13L229.76,46L247.7,46L247.7,52.5L229.72,52.5L229.72,69.76L222.16,69.76Z" style="fill:rgb(45,15,65);fill-rule:nonzero;"/>
        <path d="M262.46,69.76L262.46,28.63L278.34,28.63C282.143,28.457 285.875,29.721 288.79,32.17C291.428,34.399 292.903,37.719 292.79,41.17C292.79,47.5 289.33,51.78 283.08,53.17L296.49,68.63L296.49,69.7L288,69.7L274.8,54L270,54L270,69.76L262.46,69.76ZM270,48L277.82,48C282.34,48 285.06,45.53 285.06,41.17C285.06,36.98 282.26,34.76 277.98,34.76L269.98,34.76L270,48Z" style="fill:rgb(45,15,65);fill-rule:nonzero;"/>
        <path d="M311.33,34C319.949,25.849 333.599,25.814 342.26,33.92C346.62,37.92 348.76,43.21 348.76,49.71C348.762,55.254 346.465,60.558 342.42,64.35C338.329,68.49 332.699,70.755 326.88,70.6C321.056,70.752 315.402,68.594 311.16,64.6C307.049,60.752 304.749,55.341 304.83,49.71C304.83,43.27 307,38 311.33,34ZM316.43,59.58C319.057,62.38 322.593,63.78 327.04,63.78C330.824,63.904 334.479,62.369 337.04,59.58C339.6,56.885 341.014,53.297 340.98,49.58C341.113,45.609 339.629,41.749 336.87,38.89C334.241,36.129 330.562,34.605 326.75,34.7C322.977,34.614 319.325,36.058 316.63,38.7C313.92,41.33 312.52,44.95 312.52,49.55C312.491,53.263 313.892,56.849 316.43,59.56L316.43,59.58Z" style="fill:rgb(45,15,65);fill-rule:nonzero;"/>
        <path d="M361.18,69.76L361.18,28.22L363.65,28.22L391.12,55.37L391.78,55.37L391.78,28.63L399.35,28.63L399.35,70.17L396.88,70.17L369.41,43.11L368.75,43.11L368.75,69.76L361.18,69.76Z" style="fill:rgb(45,15,65);fill-rule:nonzero;"/>
    </g>
</svg>
