<svg version="1.1" xmlns="http://www.w3.org/2000/svg" xmlns:xlink="http://www.w3.org/1999/xlink" x="0px" y="0px"
	 width="578.667px" height="501.333px" viewBox="0 0 578.667 501.333" enable-background="new 0 0 578.667 501.333"
	 xml:space="preserve">
<g data-name="rhein">
	<polygon fill-rule="evenodd" clip-rule="evenodd" fill="#008AC3" points="147.91,78.959 147.67,79.199 146.47,81.839 
		145.99,82.799 145.03,84.96 144.07,87.12 143.83,87.12 143.83,87.36 143.35,88.8 142.15,92.16 141.43,94.56 140.95,95.76 
		140.95,96 140.95,96.24 140.23,97.92 137.589,105.12 137.589,105.36 137.349,105.84 137.349,106.32 137.109,107.28 136.869,109.2 
		136.869,110.16 136.869,111.12 136.869,111.36 136.869,111.6 136.869,111.84 137.109,112.08 137.109,112.32 137.109,112.56 
		137.349,112.8 137.349,113.04 137.109,114.24 136.869,115.2 136.629,115.2 136.389,115.2 136.389,115.44 136.149,115.44 
		136.149,115.68 135.909,115.92 135.669,116.64 134.949,119.76 134.949,120.48 134.469,121.68 133.989,124.08 133.509,127.2 
		133.029,131.28 132.789,133.68 132.789,134.64 132.549,135.6 132.549,136.561 132.549,140.161 132.789,144.721 132.789,145.201 
		132.789,147.121 133.029,150.241 133.269,151.441 132.789,152.161 132.789,152.881 132.789,154.321 133.749,159.601 
		133.989,162.481 134.229,162.961 134.949,167.761 135.429,175.441 135.189,177.841 135.189,180.001 135.189,180.721 
		134.949,182.881 134.949,184.081 134.709,186.001 134.229,190.322 133.749,195.602 133.749,198.242 133.749,198.962 
		133.749,201.122 134.229,208.082 134.949,211.442 135.429,214.322 135.669,215.282 136.389,218.162 136.869,219.602 
		137.109,220.322 137.829,222.722 139.509,226.562 139.99,228.002 142.15,232.322 142.39,232.802 142.63,233.282 144.31,236.162 
		145.75,238.802 146.71,240.243 148.87,243.603 149.11,244.083 149.35,244.563 151.03,246.483 151.99,247.923 152.47,248.643 
		155.35,252.723 156.55,253.683 158.23,255.363 158.95,255.843 159.91,256.803 161.11,258.003 162.07,258.963 164.471,260.883 
		168.551,264.003 169.271,264.483 169.991,264.963 170.471,265.443 170.711,265.443 177.671,269.043 179.111,269.763 
		179.351,269.763 181.751,270.243 186.072,270.963 192.312,271.443 193.512,271.443 200.232,270.963 208.152,270.003 
		209.113,270.003 210.073,269.763 211.753,269.283 216.313,268.083 216.793,267.843 218.233,267.363 223.033,265.923 
		228.793,264.483 229.273,264.243 229.993,264.003 230.714,264.003 237.674,261.843 244.634,259.923 246.794,259.203 
		256.395,256.083 259.035,255.363 275.355,249.603 288.316,244.083 294.556,241.443 307.997,235.922 325.518,237.602 
		330.798,238.802 330.798,238.562 332.478,239.282 330.078,244.083 324.318,242.163 322.398,241.683 320.477,241.443 
		318.317,241.203 316.397,240.963 313.997,240.963 312.317,240.963 310.397,240.963 308.477,241.203 306.797,241.443 
		305.117,241.923 304.397,242.163 302.957,242.403 301.757,242.883 300.557,243.123 278.956,252.003 276.556,253.203 
		263.115,258.723 263.595,266.163 262.395,265.203 261.675,264.723 259.995,264.963 258.315,265.203 253.514,265.923 
		248.954,268.323 242.474,271.203 237.434,272.403 235.274,273.123 233.594,273.603 229.993,275.523 222.553,277.683 
		217.273,279.123 210.073,279.603 203.112,280.563 193.272,281.043 187.992,281.043 179.111,279.843 172.871,277.683 
		172.871,277.923 171.671,277.203 171.431,277.203 170.951,276.723 170.231,277.443 169.991,277.443 168.551,276.483 
		168.311,276.003 167.351,275.283 165.431,273.843 164.231,273.123 162.07,269.763 157.51,267.843 155.35,265.923 153.19,264.003 
		152.23,263.283 151.99,263.043 151.75,263.043 151.75,262.803 151.27,262.563 151.03,262.323 150.55,261.843 150.31,261.603 
		150.07,261.363 149.83,261.123 149.59,260.883 149.35,260.403 149.11,260.163 148.63,259.443 148.63,259.683 148.15,258.963 
		148.15,258.723 147.43,257.763 146.95,257.523 146.71,257.283 146.47,257.043 146.47,256.803 146.47,256.323 145.99,255.843 
		146.23,255.603 144.55,253.443 142.39,251.283 139.029,245.763 138.309,244.563 135.669,240.723 135.189,240.002 129.909,231.602 
		126.549,225.362 126.069,224.402 125.829,223.442 126.069,222.722 125.589,221.042 125.109,220.082 124.629,220.322 
		124.389,219.362 124.149,218.402 123.189,214.082 122.949,213.122 122.469,208.802 122.229,203.282 122.229,196.322 
		122.709,187.201 122.949,186.241 123.189,185.761 123.429,184.081 123.429,182.881 123.429,182.641 123.429,182.401 
		123.429,182.161 123.669,181.921 123.669,181.681 123.669,181.441 123.669,181.201 123.669,180.961 123.669,180.721 
		123.669,180.481 123.669,180.241 123.669,180.001 123.669,179.761 123.669,179.521 123.669,179.281 123.909,179.041 
		123.909,178.801 123.909,178.561 123.909,178.321 123.909,178.081 123.909,177.841 123.909,177.601 123.909,177.361 
		123.909,177.121 123.909,176.881 123.909,176.641 123.909,176.401 123.909,176.161 123.909,175.921 123.909,175.681 
		123.909,175.441 123.909,175.201 123.909,174.961 123.909,174.721 123.909,174.481 123.909,174.241 123.909,174.001 
		123.909,173.761 123.669,173.521 123.669,173.281 123.669,173.041 123.669,172.801 123.669,172.561 123.669,172.321 
		123.669,172.081 123.669,171.841 123.669,171.601 123.669,171.361 123.669,171.121 123.669,170.881 123.669,170.641 
		123.429,170.401 123.429,170.161 123.429,169.921 123.429,169.681 123.429,169.441 123.429,169.201 123.429,168.961 
		123.429,168.721 121.749,157.441 121.749,157.201 121.509,156.721 121.269,156.001 127.269,157.921 127.029,154.081 
		126.069,138.721 128.229,121.68 130.389,113.28 132.789,103.68 140.23,86.4 145.27,70.799 151.03,72.479 148.15,78.239 	"/>
</g>
<g>
		<polygon data-name="bruderholz" fill-rule="evenodd" clip-rule="evenodd" fill="#C1C1C1" stroke="#FFFFFF" stroke-miterlimit="10" points="
		212.953,424.326 212.953,423.606 212.713,423.126 212.473,420.966 212.233,418.326 211.753,416.166 211.513,414.486 
		210.793,408.246 210.313,405.366 210.073,402.726 209.833,399.366 209.113,394.325 208.873,393.365 208.633,393.125 
		208.393,392.885 208.152,392.645 208.152,392.405 207.913,392.405 207.432,392.165 207.192,391.925 206.952,391.685 
		206.472,391.445 205.752,391.205 203.112,390.005 199.752,388.565 199.272,388.325 195.912,386.885 193.272,385.685 
		187.512,383.285 185.111,382.325 184.151,381.845 180.311,380.165 175.271,378.005 172.391,376.805 171.431,376.325 
		170.711,376.085 168.551,375.125 165.431,373.685 164.231,373.205 157.03,370.085 152.71,368.165 151.75,367.685 149.11,366.245 
		146.47,365.045 142.63,363.125 140.47,362.165 138.789,361.205 138.549,361.685 136.869,365.525 135.429,370.085 132.309,378.485 
		131.349,381.365 131.349,381.605 131.349,381.845 131.349,382.085 131.349,382.325 131.349,382.565 131.349,382.805 
		131.349,383.045 131.349,383.285 131.349,383.525 131.589,383.765 131.589,384.005 131.589,384.245 131.829,384.485 
		132.069,384.725 132.069,384.965 132.309,385.205 132.789,385.685 133.029,385.925 133.029,386.165 133.269,386.405 
		133.269,386.645 133.509,386.885 133.509,387.125 133.509,387.365 133.509,387.605 133.509,387.845 133.509,388.085 
		133.269,388.325 133.029,388.805 131.829,391.925 129.669,397.446 127.509,402.486 126.309,404.886 126.069,405.606 
		123.909,410.886 123.189,412.806 121.269,415.926 119.829,418.806 120.309,421.686 121.989,424.806 124.629,428.166 
		126.069,427.446 126.309,427.206 126.549,426.966 126.789,426.726 127.029,426.726 127.269,426.486 127.509,426.486 
		127.749,426.246 127.989,426.246 128.229,426.246 128.469,426.006 128.709,426.006 128.949,426.006 129.189,426.006 
		129.429,426.006 129.669,425.766 129.909,425.766 130.149,426.006 132.309,425.766 132.789,429.846 133.269,433.926 
		133.029,438.246 143.59,439.446 143.35,442.326 143.35,442.566 143.35,442.806 143.35,443.046 143.35,443.286 143.59,443.526 
		143.59,443.766 143.59,444.006 143.83,444.246 144.07,444.486 144.31,444.726 144.55,444.966 144.79,445.206 145.03,445.446 
		145.27,445.686 145.51,445.686 145.75,445.926 145.99,445.926 146.23,446.166 146.47,446.166 146.71,446.166 146.95,446.166 
		147.19,446.406 147.43,446.406 147.67,446.406 147.91,446.406 148.15,447.366 149.35,451.447 149.59,453.847 149.59,454.327 
		149.83,456.967 149.83,459.607 148.63,462.967 148.39,467.527 147.67,471.847 147.19,476.407 147.67,480.487 148.63,483.367 
		149.11,486.247 149.59,489.607 151.03,494.887 151.03,495.607 153.19,496.327 161.59,497.527 169.751,498.487 175.991,490.567 
		181.991,482.647 198.312,461.767 203.352,451.927 208.393,441.846 210.313,438.006 210.073,434.886 213.673,434.886 
		213.673,434.406 213.673,433.446 213.673,432.486 213.433,431.766 213.673,431.286 213.913,431.046 213.913,430.566 
		213.673,429.606 213.433,427.926 213.193,426.006 	"/>
	
		<polygon data-name="gundeldingen" fill-rule="evenodd" clip-rule="evenodd" fill="#C1C1C1" stroke="#FFFFFF" stroke-miterlimit="10" points="
		121.989,315.124 122.469,315.364 123.669,316.084 124.869,316.804 125.349,316.324 125.589,316.084 128.709,317.764 
		129.189,318.004 129.429,318.244 129.669,318.244 129.909,318.484 130.149,318.484 130.629,318.724 130.869,318.724 
		131.109,318.724 131.589,318.964 131.829,318.964 133.509,319.204 137.589,319.684 137.829,319.684 137.829,319.924 
		138.069,319.924 138.309,319.924 138.549,319.924 138.789,320.164 139.029,320.164 139.269,320.164 139.99,320.644 145.75,324.004 
		149.11,325.924 151.27,327.124 151.99,327.604 155.35,329.524 157.51,330.724 157.75,330.724 157.99,330.724 158.23,330.724 
		158.47,330.724 160.39,326.884 160.63,326.644 160.87,326.164 161.11,325.924 161.35,325.684 161.35,325.924 161.59,326.164 
		161.83,326.404 162.07,326.644 162.07,326.884 164.951,330.244 165.191,330.484 165.671,330.724 165.911,330.964 165.431,331.684 
		163.991,334.324 163.511,335.044 163.751,335.284 163.511,335.764 164.471,336.484 165.191,336.964 165.911,337.444 
		166.871,338.164 167.351,338.404 167.831,338.644 168.311,338.884 168.551,339.124 168.791,339.364 169.271,339.364 
		169.511,339.604 169.751,339.604 170.231,339.844 174.311,341.284 177.671,342.484 178.391,342.724 178.631,342.964 
		179.351,343.204 179.591,343.204 179.831,343.444 180.071,342.964 186.072,345.845 186.072,346.085 186.312,346.085 
		186.312,346.325 186.552,346.325 186.792,346.565 186.072,351.125 186.792,351.605 186.792,351.845 186.792,352.085 
		186.552,352.565 187.992,353.285 188.232,353.525 188.952,353.765 189.432,354.245 192.312,356.405 195.192,358.565 
		199.032,361.445 201.912,370.565 204.792,379.925 206.472,385.445 207.432,388.565 208.152,390.485 208.393,391.205 
		208.393,391.445 208.393,391.685 208.393,391.925 208.393,392.165 208.393,392.405 208.152,392.405 208.152,392.645 
		208.152,392.405 207.913,392.405 207.432,392.165 207.192,391.925 206.952,391.685 206.472,391.445 205.752,391.205 
		203.112,390.005 199.752,388.565 199.272,388.325 195.912,386.885 193.272,385.685 187.512,383.285 185.111,382.325 
		184.151,381.845 180.311,380.165 175.271,378.005 172.391,376.805 171.431,376.325 170.711,376.085 168.551,375.125 
		165.431,373.685 164.231,373.205 157.03,370.085 152.71,368.165 151.75,367.685 149.11,366.245 146.47,365.045 142.63,363.125 
		140.47,362.165 138.789,361.205 138.549,361.685 114.788,349.925 112.628,350.885 110.948,350.165 109.028,349.925 
		105.188,349.925 103.028,350.165 102.548,350.645 101.588,350.405 102.068,348.725 102.788,342.724 103.028,342.244 
		103.028,341.524 103.028,340.084 103.268,339.364 103.268,338.404 103.508,337.684 103.748,337.204 103.988,336.484 
		104.468,336.004 104.708,335.524 105.188,335.044 105.428,334.804 105.908,334.324 117.909,323.764 118.869,323.284 
		119.589,322.324 120.309,321.604 120.549,320.404 118.629,318.484 	"/>
	
		<polygon data-name="st-alban" fill-rule="evenodd" clip-rule="evenodd" fill="#C1C1C1" stroke="#FFFFFF" stroke-miterlimit="10" points="
		234.074,289.443 230.954,288.963 229.753,288.243 229.273,287.523 229.273,287.283 225.673,288.243 220.633,289.683 
		219.913,289.923 219.433,289.923 218.713,289.923 218.233,290.163 217.513,290.163 217.273,290.163 216.793,290.163 
		216.313,290.163 215.833,290.163 212.473,289.923 210.073,289.923 208.633,289.683 207.913,289.683 207.913,289.923 
		207.913,290.403 207.192,290.163 206.712,290.163 205.992,289.923 205.992,291.123 205.512,292.324 204.792,295.204 
		204.552,295.924 204.072,295.924 203.112,295.684 202.392,295.924 202.152,295.924 201.912,295.924 201.432,295.924 
		195.672,297.604 194.952,297.844 190.152,299.044 183.191,300.964 179.351,302.164 176.711,303.124 175.511,303.364 
		173.111,304.084 171.671,304.324 171.191,304.564 170.951,304.564 170.471,304.804 169.991,305.044 169.751,305.284 
		166.871,308.164 162.31,312.484 159.67,315.124 154.87,320.404 154.63,320.404 150.07,317.764 149.11,317.044 148.39,316.804 
		147.43,316.564 146.95,316.324 146.47,316.324 145.99,316.324 145.51,316.324 145.03,316.324 144.79,316.324 144.31,316.324 
		143.83,316.564 143.59,316.804 143.11,317.284 142.39,317.764 141.43,318.964 140.95,319.444 140.71,319.684 140.23,319.924 
		139.749,319.924 139.269,320.164 139.029,320.164 138.549,319.924 138.789,320.164 139.029,320.164 139.269,320.164 
		139.99,320.644 145.75,324.004 149.11,325.924 151.27,327.124 151.99,327.604 155.35,329.524 157.51,330.724 157.75,330.724 
		157.99,330.724 158.23,330.724 158.47,330.724 160.39,326.884 160.63,326.644 160.87,326.164 161.11,325.924 161.35,325.684 
		161.35,325.924 161.59,326.164 161.83,326.404 162.07,326.644 162.07,326.884 164.951,330.244 165.191,330.484 165.671,330.724 
		165.911,330.964 165.431,331.684 163.991,334.324 163.511,335.044 163.751,335.284 163.511,335.764 164.471,336.484 
		165.191,336.964 165.911,337.444 166.871,338.164 167.351,338.404 167.831,338.644 168.311,338.884 168.551,339.124 
		168.791,339.364 169.271,339.364 169.511,339.604 169.751,339.604 170.231,339.844 174.311,341.284 177.671,342.484 
		178.391,342.724 178.631,342.964 179.351,343.204 179.591,343.204 179.831,343.444 180.071,342.964 186.072,345.845 
		186.072,346.085 186.312,346.085 186.312,346.325 186.552,346.325 186.792,346.565 186.072,351.125 186.792,351.605 
		186.792,351.845 186.792,352.085 186.552,352.565 187.992,353.285 188.232,353.525 188.952,353.765 189.432,354.245 
		192.312,356.405 195.192,358.565 199.032,361.445 201.912,370.565 204.792,379.925 206.472,385.445 207.432,388.565 
		208.152,390.485 208.393,391.205 208.393,391.445 208.393,391.685 208.393,391.925 208.393,392.165 208.393,392.405 
		208.152,392.405 208.152,392.645 208.393,392.885 208.633,393.125 208.873,393.365 209.113,394.325 209.833,399.366 
		210.073,402.726 210.313,405.366 210.793,408.246 211.513,414.486 211.753,416.166 212.233,418.326 212.473,420.966 
		212.713,423.126 212.953,423.606 212.953,424.326 213.193,426.006 213.433,427.926 213.673,429.606 213.913,430.566 
		213.913,431.046 214.393,430.326 214.153,429.126 215.833,428.886 215.593,427.686 221.113,417.366 228.553,403.206 
		232.874,399.366 233.354,400.566 234.074,402.006 237.674,400.566 237.434,400.086 236.954,398.886 236.474,397.926 
		236.234,397.446 239.354,394.565 239.594,393.605 241.514,392.645 241.754,392.405 241.994,392.405 242.234,392.165 
		242.474,391.925 242.474,391.685 242.714,391.445 242.954,391.205 242.954,390.965 243.194,390.725 243.194,390.485 
		243.434,390.245 243.434,390.005 243.434,389.765 243.674,389.525 243.674,389.285 243.674,389.045 244.154,383.765 
		244.154,383.525 244.154,383.285 244.154,383.045 244.394,382.805 244.394,382.565 244.394,382.325 244.394,382.085 
		244.634,381.845 244.634,381.605 244.634,381.365 244.874,381.125 244.874,380.885 244.874,380.645 245.114,380.405 
		245.114,380.165 245.354,379.925 245.594,379.685 245.594,379.445 245.834,379.205 246.074,378.965 246.314,378.725 
		246.314,378.485 246.554,378.245 246.794,378.005 247.034,377.765 247.274,377.765 247.514,377.525 247.754,377.285 
		247.994,377.045 248.234,377.045 248.474,376.805 248.714,376.565 248.954,376.565 249.194,376.325 249.434,376.325 
		251.114,375.605 251.114,375.845 258.555,373.205 258.795,372.965 259.035,372.965 259.275,372.725 259.515,372.725 
		259.755,372.725 259.995,372.485 260.235,372.485 260.475,372.245 260.715,372.245 260.955,372.005 261.195,372.005 
		263.355,370.325 265.035,368.165 265.275,367.925 265.515,367.925 265.755,367.925 265.755,368.165 267.675,369.365 
		269.835,370.325 271.995,371.045 282.316,374.165 283.036,358.565 272.715,353.285 267.195,350.405 258.795,346.085 
		259.035,344.165 259.035,343.444 259.035,342.724 259.035,342.004 261.195,342.004 261.195,342.484 267.195,342.244 
		268.395,342.004 268.635,343.444 271.755,343.444 271.515,342.244 270.795,338.404 270.555,336.964 270.795,336.724 
		270.795,336.244 270.795,336.004 271.035,335.764 270.795,334.564 270.075,330.724 269.835,329.044 269.595,328.084 
		269.595,327.364 269.595,326.884 269.835,326.164 270.075,325.684 270.555,324.724 271.275,323.284 271.515,322.324 
		271.755,321.844 271.755,321.364 271.755,321.124 271.755,319.924 271.755,318.964 271.755,318.484 271.755,318.244 
		271.755,318.004 271.995,317.524 272.235,317.284 272.475,316.804 272.955,316.324 273.675,315.604 274.155,314.644 
		274.635,313.924 274.635,313.444 274.635,312.964 274.635,312.484 274.395,311.764 273.915,311.284 273.675,311.044 
		273.195,310.564 272.715,310.324 271.995,310.084 270.555,309.604 269.115,309.364 267.675,309.364 266.955,309.124 
		266.235,308.884 265.275,308.644 264.075,307.924 262.875,307.204 261.675,306.484 260.235,306.004 259.275,305.284 
		258.555,305.044 258.315,304.804 257.115,303.364 255.435,301.924 255.195,301.204 254.235,299.044 253.995,298.804 
		253.755,298.324 253.275,297.844 253.034,297.604 251.834,296.884 251.354,296.164 251.114,295.684 250.874,294.964 
		250.634,294.244 250.394,293.524 249.914,292.083 249.194,290.883 248.954,290.403 248.474,289.923 248.234,289.443 
		247.754,289.203 247.274,288.963 247.034,288.963 246.554,288.963 246.314,288.963 243.914,289.203 241.754,289.203 
		238.634,289.443 237.194,289.443 	"/>
	
		<polygon data-name="breite" fill-rule="evenodd" clip-rule="evenodd" fill="#C1C1C1" stroke="#FFFFFF" stroke-miterlimit="10" points="
		268.155,291.844 267.915,291.603 267.675,291.603 267.435,291.363 267.195,291.123 266.955,290.883 266.715,290.643 
		266.475,290.403 266.235,290.163 265.995,289.923 265.755,289.683 265.515,289.443 265.275,289.203 265.275,288.963 
		265.035,288.723 264.795,288.483 264.555,288.243 264.555,288.003 264.315,287.763 264.315,287.523 264.075,287.283 
		264.075,287.043 263.835,286.803 263.835,286.563 263.595,286.323 263.595,286.083 263.595,285.843 263.355,285.603 
		263.355,285.363 263.355,285.123 263.115,284.883 263.115,284.643 263.115,284.403 263.115,284.163 263.115,283.923 
		262.875,283.683 262.875,283.443 262.875,283.203 262.875,282.963 262.875,282.723 262.875,282.483 262.875,282.243 
		262.875,282.003 262.875,281.763 262.875,281.523 262.875,281.283 263.595,275.763 263.595,275.523 263.595,275.283 
		263.595,275.043 263.595,274.803 263.595,274.563 263.595,274.323 263.595,274.083 263.835,273.843 263.835,273.603 
		263.835,273.363 263.835,273.123 263.835,272.883 263.835,272.643 263.835,272.403 263.835,272.163 263.835,271.923 
		263.835,271.683 263.835,271.443 263.835,271.203 263.835,270.963 263.835,270.723 263.835,270.483 263.835,270.243 
		263.835,270.003 263.835,269.763 263.835,269.523 263.835,269.283 263.835,269.043 263.595,266.163 261.675,264.723 
		253.514,265.923 249.674,268.083 248.954,268.563 242.474,271.203 237.434,272.403 235.994,272.883 233.594,273.843 
		229.993,275.523 222.553,277.683 217.273,279.123 210.073,279.603 206.952,280.083 207.432,283.203 207.672,284.403 
		208.152,287.763 208.393,289.203 208.393,289.443 207.913,289.683 208.633,289.683 210.073,289.923 212.473,289.923 
		215.833,290.163 216.313,290.163 216.793,290.163 217.273,290.163 217.513,290.163 218.233,290.163 218.713,289.923 
		219.433,289.923 219.913,289.923 220.633,289.683 225.673,288.243 229.273,287.283 229.273,287.523 229.753,288.243 
		230.954,288.963 234.074,289.443 237.194,289.443 238.634,289.443 241.754,289.203 243.914,289.203 246.314,288.963 
		246.554,288.963 247.034,288.963 247.274,288.963 247.754,289.203 248.234,289.443 248.474,289.923 248.954,290.403 
		249.194,290.883 249.914,292.083 250.394,293.524 250.634,294.244 250.874,294.964 251.114,295.684 251.354,296.164 
		251.834,296.884 253.034,297.604 253.275,297.844 253.755,298.324 253.995,298.804 254.235,299.044 255.195,301.204 
		255.435,301.924 257.115,303.364 258.315,304.804 258.555,305.044 259.275,305.284 260.235,306.004 261.675,306.484 
		262.875,307.204 264.075,307.924 265.275,308.644 266.235,308.884 266.955,309.124 267.675,309.364 269.115,309.364 
		270.555,309.604 271.995,310.084 272.715,310.324 273.195,310.564 273.675,311.044 273.915,311.284 274.395,311.764 
		274.635,312.484 274.635,312.964 274.635,313.444 274.635,313.924 274.155,314.644 273.675,315.604 272.955,316.324 
		272.475,316.804 272.235,317.284 271.995,317.524 271.755,318.004 271.755,318.244 271.755,318.484 271.755,318.964 
		271.755,319.924 271.755,321.124 271.755,321.364 271.755,321.844 271.515,322.324 271.275,323.284 270.555,324.724 
		270.075,325.684 269.835,326.164 269.595,326.884 269.595,327.364 269.595,328.084 269.835,329.044 270.075,330.724 
		270.795,334.564 271.035,335.764 270.795,336.004 270.795,336.244 270.795,336.724 270.555,336.964 270.795,338.404 
		271.515,342.244 271.755,343.444 268.635,343.444 268.395,342.004 267.195,342.244 261.195,342.484 261.195,342.004 
		259.035,342.004 259.035,342.724 259.035,343.444 259.035,344.165 258.795,346.085 267.195,350.405 272.715,353.285 
		283.036,358.565 283.036,358.085 283.756,346.805 284.236,334.084 284.476,327.604 284.956,316.564 284.956,316.324 
		284.956,316.084 284.956,315.844 284.956,315.604 284.956,315.364 284.956,315.124 284.956,314.884 284.956,314.644 
		284.956,314.404 284.956,314.164 284.716,313.924 284.716,313.684 284.716,313.444 284.716,313.204 284.716,312.964 
		284.716,312.724 284.716,312.484 284.476,312.244 284.476,312.004 284.476,311.764 284.476,311.524 284.476,311.284 
		284.236,311.044 284.236,310.804 284.236,310.564 283.996,310.324 283.996,310.084 283.996,309.844 283.756,309.604 
		283.756,309.364 283.756,309.124 283.756,308.884 283.516,308.644 283.516,308.404 283.276,308.164 283.276,307.924 
		283.276,307.684 283.036,307.444 283.036,307.204 282.796,306.964 282.796,306.724 282.796,306.484 282.556,306.244 
		282.556,306.004 282.316,305.764 282.316,305.524 282.076,305.284 282.076,305.044 281.836,304.804 281.596,304.564 
		281.596,304.324 281.356,304.084 281.356,303.844 281.116,303.604 280.876,303.364 280.876,303.124 280.636,302.884 
		280.396,302.644 280.396,302.404 280.156,302.164 279.916,301.924 279.916,301.684 279.676,301.444 279.436,301.204 
		279.196,300.964 278.956,300.724 278.956,300.484 278.716,300.244 278.476,300.004 278.236,299.764 277.996,299.524 
		277.756,299.284 277.516,299.044 277.276,298.804 277.036,298.564 276.796,298.324 276.556,298.324 276.315,298.084 
		276.076,297.844 275.835,297.604 275.595,297.364 275.355,297.124 275.115,297.124 274.875,296.884 274.635,296.644 
		274.395,296.644 	"/>
	
		<polygon data-name="bachletten" fill-rule="evenodd" clip-rule="evenodd" fill="#C1C1C1" stroke="#FFFFFF" stroke-miterlimit="10" points="
		104.228,301.924 104.708,302.644 106.148,303.844 106.628,304.324 107.108,304.804 107.588,305.284 108.308,305.764 
		108.548,306.004 109.028,306.244 109.268,306.484 109.748,306.724 109.988,306.964 110.468,307.204 111.908,307.924 
		113.588,309.124 114.308,309.604 119.109,312.244 120.069,312.724 119.589,313.684 120.309,313.924 121.029,314.404 
		121.749,314.884 121.989,315.124 118.629,318.484 120.069,319.924 120.549,320.404 120.309,321.604 119.589,322.324 
		118.869,323.284 117.909,323.764 105.908,334.324 105.428,334.804 105.188,335.044 104.708,335.524 104.468,336.004 
		103.988,336.484 103.748,337.204 103.508,337.684 103.268,338.404 103.268,339.364 103.028,340.084 103.028,341.524 
		103.028,342.244 102.788,342.724 102.068,348.725 101.588,350.405 100.868,350.165 91.027,349.205 90.067,348.965 85.027,347.765 
		81.667,346.805 72.307,344.645 70.626,344.165 68.706,343.685 66.066,343.204 61.746,342.244 57.906,341.524 52.866,340.324 
		49.746,339.604 46.625,338.884 46.385,338.884 45.905,338.884 45.665,338.884 45.425,338.884 45.185,338.884 43.985,339.364 
		41.105,340.564 38.945,341.044 36.065,341.764 34.625,342.004 33.665,342.244 32.705,342.484 31.985,342.724 31.025,343.204 
		30.065,343.444 26.945,344.165 24.304,344.885 21.664,345.605 20.704,345.605 16.624,346.565 14.464,346.805 12.544,347.045 
		9.664,347.045 11.344,340.564 15.904,321.364 21.424,298.564 31.745,302.164 31.985,301.444 32.465,301.444 33.185,301.204 
		39.905,300.004 45.425,299.284 49.506,298.564 54.306,297.604 57.666,297.124 63.666,296.164 64.386,295.924 68.946,295.204 
		69.666,294.964 71.106,294.724 72.547,294.724 75.187,294.244 76.627,293.764 78.547,293.524 84.547,292.564 84.787,292.324 
		89.587,291.123 94.388,289.923 95.108,289.683 95.348,289.923 95.828,291.123 96.308,292.083 97.028,292.804 97.268,293.524 
		97.508,293.764 97.748,294.244 98.228,294.964 98.948,295.684 99.668,296.644 100.628,297.844 101.348,298.564 102.548,300.244 
		103.028,300.724 	"/>
	
		<polygon data-name="vorstädte" fill-rule="evenodd" clip-rule="evenodd" fill="#C1C1C1" stroke="#FFFFFF" stroke-miterlimit="10" points="
		124.149,218.402 124.629,220.322 125.109,220.082 126.069,222.722 125.829,223.442 126.069,224.402 126.549,225.362 
		129.909,231.602 135.669,240.723 135.909,241.203 134.229,242.163 133.989,242.163 133.509,242.883 132.069,244.323 
		131.829,244.563 131.829,244.803 130.149,247.443 129.429,248.883 128.709,250.323 128.469,251.283 127.989,252.003 
		127.029,255.123 127.029,255.843 126.789,256.803 126.549,260.403 126.309,265.443 126.309,265.923 126.309,266.403 
		126.069,267.123 126.069,267.843 125.829,269.043 125.589,269.763 125.349,270.003 125.109,270.723 125.109,270.963 
		125.109,271.203 125.109,271.443 125.109,271.683 125.109,271.923 125.349,272.163 125.349,272.403 125.589,272.403 
		125.589,272.643 126.549,273.123 127.989,273.843 131.109,275.763 131.349,276.003 131.829,276.243 132.069,276.483 
		132.549,276.483 133.029,276.723 133.029,276.963 135.909,278.163 136.629,278.403 136.869,278.643 137.109,278.643 
		137.109,278.883 137.349,278.883 137.589,279.123 137.589,279.363 137.829,279.363 138.069,279.603 138.069,279.843 
		138.309,280.083 138.549,280.083 138.549,280.323 138.789,280.563 138.789,280.803 138.789,281.043 140.23,285.363 140.23,285.603 
		140.47,285.603 140.47,285.843 140.71,286.083 140.95,286.323 141.19,286.323 141.19,286.563 141.43,286.563 143.59,287.043 
		144.55,287.283 145.27,287.523 145.75,287.523 145.99,287.523 148.39,288.003 150.07,288.483 151.99,288.723 153.43,288.963 
		153.67,288.963 153.91,289.203 156.79,289.683 157.03,289.683 157.27,289.683 157.51,289.443 157.75,289.443 158.23,289.203 
		159.19,288.723 161.83,287.523 164.471,286.323 167.351,284.883 167.591,284.883 167.831,284.643 168.071,284.643 168.311,284.403 
		168.551,284.403 168.551,284.163 168.791,284.163 168.791,283.923 169.031,283.923 169.031,283.683 169.271,283.683 
		169.271,283.443 169.511,283.203 169.511,282.963 169.751,282.723 171.191,279.603 172.391,277.683 172.871,277.923 
		172.871,277.683 179.111,279.843 187.992,281.043 193.272,281.043 194.232,281.043 203.112,280.563 206.952,280.083 
		207.432,283.203 207.672,284.403 208.152,287.763 208.393,289.203 208.393,289.443 207.913,289.683 207.913,289.923 
		207.913,290.403 207.192,290.163 206.712,290.163 205.992,289.923 205.992,291.123 205.512,292.324 204.792,295.204 
		204.552,295.924 204.072,295.924 203.112,295.684 202.392,295.924 202.152,295.924 201.912,295.924 201.432,295.924 
		195.672,297.604 194.952,297.844 190.152,299.044 183.191,300.964 179.351,302.164 176.711,303.124 175.511,303.364 
		173.111,304.084 172.151,304.324 171.671,304.324 171.191,304.564 170.471,304.804 169.991,305.044 169.751,305.284 
		166.871,308.164 162.31,312.484 159.67,315.124 154.87,320.404 154.63,320.404 150.07,317.764 149.11,317.044 148.39,316.804 
		147.43,316.564 146.95,316.324 146.47,316.324 145.99,316.324 145.51,316.324 145.03,316.324 144.79,316.324 144.31,316.324 
		143.83,316.564 143.59,316.804 143.11,317.284 142.39,317.764 142.39,318.004 139.749,311.284 139.509,311.044 138.069,306.964 
		137.829,306.724 137.109,304.804 136.869,304.084 136.389,302.644 136.149,302.404 136.149,302.164 135.909,301.924 
		135.909,301.684 135.669,301.444 135.429,301.444 135.189,301.204 131.349,299.524 133.989,294.004 133.269,292.083 
		131.589,288.003 128.229,279.363 127.989,279.123 127.749,279.123 127.749,278.883 127.509,278.883 127.269,278.643 
		125.829,278.403 125.349,278.163 123.669,277.683 120.309,276.483 118.389,275.763 115.028,274.563 114.788,274.563 
		114.548,274.323 114.308,274.323 114.308,274.083 114.068,274.083 113.828,273.843 113.588,273.603 113.348,273.363 
		113.348,273.123 113.108,272.883 113.108,272.643 113.108,272.403 113.108,272.163 112.868,271.683 112.868,271.203 
		112.868,270.723 112.868,267.123 112.868,266.163 112.868,264.963 112.868,264.483 112.628,263.283 112.628,262.563 
		112.388,261.603 112.388,260.883 111.668,256.323 111.428,255.363 111.428,255.123 111.188,254.883 111.188,254.643 
		110.948,254.403 110.948,254.163 110.708,254.163 110.708,253.923 109.028,252.003 109.028,251.763 108.788,251.763 
		108.788,251.523 108.788,251.283 108.788,251.043 108.788,250.803 108.788,250.563 108.788,250.323 110.708,244.563 
		112.148,240.243 112.148,240.002 112.148,239.762 112.388,239.522 112.388,239.282 112.628,239.282 112.628,239.042 
		112.868,238.802 112.868,238.562 113.108,238.322 115.508,235.682 119.589,230.882 119.109,230.402 116.708,227.522 
		119.109,225.362 119.349,225.362 116.228,221.762 116.228,221.522 115.988,221.522 115.988,221.282 116.228,221.282 
		116.228,221.042 116.949,220.562 120.309,218.642 120.069,218.162 119.589,217.922 118.629,216.722 117.909,216.242 
		116.949,214.802 116.468,214.082 116.228,213.602 115.748,212.882 115.748,212.402 116.468,211.682 120.309,209.522 
		122.469,208.322 122.469,208.802 122.949,213.122 123.669,216.002 	"/>
	
		<polygon data-name="altstadt-grossbasel" fill-rule="evenodd" clip-rule="evenodd" fill="#C1C1C1" stroke="#FFFFFF" stroke-miterlimit="10" points="
		148.15,259.203 148.63,259.683 148.63,259.443 148.87,259.923 149.11,260.163 149.35,260.403 149.59,260.883 149.83,261.123 
		150.07,261.363 150.31,261.603 150.79,262.083 151.03,262.323 151.27,262.563 151.51,262.803 151.75,263.043 151.99,263.043 
		152.23,263.283 153.19,264.243 157.51,268.083 162.07,269.763 164.231,273.123 165.431,273.843 167.351,275.283 168.551,276.483 
		170.231,277.443 170.951,276.723 171.671,277.203 172.391,277.683 171.191,279.603 169.751,282.723 169.511,282.963 
		169.511,283.203 169.271,283.443 169.271,283.683 169.031,283.683 169.031,283.923 168.791,283.923 168.791,284.163 
		168.551,284.163 168.551,284.403 168.311,284.403 168.071,284.643 167.831,284.643 167.591,284.883 167.351,284.883 
		164.471,286.323 161.83,287.523 159.19,288.723 158.23,289.203 157.75,289.443 157.51,289.443 157.27,289.683 157.03,289.683 
		156.79,289.683 153.91,289.203 153.67,288.963 153.43,288.963 151.99,288.723 150.07,288.483 148.39,288.003 145.99,287.523 
		145.75,287.523 145.27,287.523 144.55,287.283 143.59,287.043 141.43,286.563 141.19,286.563 141.19,286.323 140.95,286.323 
		140.71,286.083 140.47,285.843 140.47,285.603 140.23,285.603 140.23,285.363 138.789,281.043 138.789,280.803 138.789,280.563 
		138.549,280.323 138.549,280.083 138.309,280.083 138.069,279.843 138.069,279.603 137.829,279.363 137.589,279.363 
		137.589,279.123 137.349,278.883 137.109,278.883 137.109,278.643 136.869,278.643 136.629,278.403 135.909,278.163 
		133.029,276.963 133.029,276.723 132.549,276.483 132.069,276.483 131.829,276.243 131.349,276.003 131.109,275.763 
		127.989,273.843 126.549,273.123 125.589,272.643 125.589,272.403 125.349,272.403 125.349,272.163 125.109,271.923 
		125.109,271.683 125.109,271.443 125.109,271.203 125.109,270.963 125.109,270.723 125.349,270.003 125.589,269.763 
		125.829,269.043 126.069,267.843 126.069,267.123 126.309,266.403 126.309,265.923 126.309,265.443 126.549,260.403 
		126.789,256.803 127.029,255.843 127.029,255.123 127.989,252.003 128.469,251.283 128.709,250.323 129.429,248.883 
		130.149,247.443 131.829,244.803 131.829,244.563 132.069,244.323 133.509,242.883 133.989,242.163 134.229,242.163 
		135.909,241.203 138.309,244.563 139.029,245.763 139.99,247.203 142.39,251.283 144.55,253.443 146.23,255.603 145.99,255.843 
		145.99,256.083 146.47,256.323 146.47,256.803 146.47,257.043 146.95,257.523 147.43,257.763 148.15,258.723 	"/>
	
		<polygon data-name="am-ring" fill-rule="evenodd" clip-rule="evenodd" fill="#C1C1C1" stroke="#FFFFFF" stroke-miterlimit="10" points="
		112.148,240.243 110.708,244.563 108.788,250.323 108.788,250.563 108.788,250.803 108.788,251.043 108.788,251.283 
		108.788,251.523 108.788,251.763 109.028,251.763 109.028,252.003 110.708,253.923 110.708,254.163 110.948,254.163 
		110.948,254.403 111.188,254.643 111.188,254.883 111.428,255.123 111.428,255.363 111.668,256.323 112.388,260.883 
		112.388,261.603 112.628,262.563 112.628,263.283 112.868,264.483 112.868,264.963 112.868,266.163 112.868,267.123 
		112.868,270.723 112.868,271.203 112.868,271.683 113.108,272.163 113.108,272.403 113.108,272.643 113.108,272.883 
		113.348,273.123 113.348,273.363 113.588,273.603 113.828,273.843 114.068,274.083 114.308,274.083 114.308,274.323 
		114.548,274.323 114.788,274.563 115.028,274.563 118.389,275.763 120.309,276.483 123.669,277.683 125.349,278.163 
		125.829,278.403 127.269,278.643 127.509,278.883 127.749,278.883 127.749,279.123 127.989,279.123 128.229,279.363 
		131.589,288.003 133.269,292.083 133.989,294.004 131.349,299.524 135.189,301.204 135.429,301.444 135.669,301.444 
		135.909,301.684 135.909,301.924 136.149,302.164 136.149,302.404 136.389,302.644 136.869,304.084 137.109,304.804 
		138.069,306.964 139.509,311.044 139.749,311.284 142.39,318.004 141.43,318.964 140.95,319.444 140.71,319.684 140.23,319.924 
		139.749,319.924 139.269,320.164 139.029,320.164 138.549,319.924 138.309,319.924 138.069,319.924 137.829,319.924 
		137.829,319.684 137.589,319.684 133.509,319.204 131.829,318.964 131.589,318.964 131.109,318.724 130.869,318.724 
		130.629,318.724 130.149,318.484 129.909,318.484 129.669,318.244 129.429,318.244 129.189,318.004 128.709,317.764 
		125.589,316.084 125.349,316.324 124.869,316.804 123.669,316.084 122.469,315.364 121.989,315.124 121.749,314.884 
		121.029,314.404 120.309,313.924 119.589,313.684 120.069,312.724 119.109,312.244 114.308,309.604 113.588,309.124 
		111.908,307.924 110.468,307.204 109.988,306.964 109.748,306.724 109.268,306.484 109.028,306.244 108.548,306.004 
		108.308,305.764 107.588,305.284 107.108,304.804 106.628,304.324 106.148,303.844 104.708,302.644 104.228,301.924 
		103.028,300.724 102.548,300.244 101.348,298.564 100.628,297.844 99.668,296.644 98.948,295.684 98.228,294.964 97.748,294.244 
		97.508,293.764 97.268,293.524 97.028,292.804 96.308,292.083 95.828,291.123 95.348,289.923 95.108,289.683 94.868,289.203 
		93.907,287.043 93.667,286.563 93.187,285.363 92.947,285.123 92.707,284.403 92.707,284.163 92.227,283.203 92.227,282.963 
		91.987,282.483 91.747,282.003 91.747,281.523 91.507,280.803 91.507,280.563 91.267,280.083 91.267,279.843 91.267,279.603 
		91.027,279.123 91.027,278.643 90.787,277.683 90.067,274.563 89.587,271.683 89.347,270.483 89.107,269.523 86.467,254.883 
		85.747,251.043 85.267,249.123 85.027,248.163 84.547,245.763 83.827,241.923 83.587,240.243 84.787,240.482 85.027,240.243 
		88.387,236.882 90.547,234.722 92.707,232.562 93.187,232.082 93.427,231.842 96.068,228.722 98.468,225.602 100.628,222.962 
		101.108,222.722 101.348,222.242 104.948,219.362 105.428,219.122 107.588,217.442 108.308,217.202 113.348,213.842 
		115.748,212.402 115.748,212.882 116.228,213.602 116.468,214.082 116.949,214.802 117.909,216.242 118.629,216.722 
		119.589,217.922 120.069,218.162 120.309,218.642 116.949,220.562 116.228,221.042 116.228,221.282 115.988,221.282 
		115.988,221.522 116.228,221.522 116.228,221.762 119.349,225.362 119.109,225.362 116.708,227.522 119.109,230.402 
		119.589,230.882 115.508,235.682 113.108,238.322 112.868,238.562 112.868,238.802 112.628,239.042 112.628,239.282 
		112.388,239.282 112.388,239.522 112.148,239.762 112.148,240.002 	"/>
	
		<polygon data-name="gotthelf" fill-rule="evenodd" clip-rule="evenodd" fill="#C1C1C1" stroke="#FFFFFF" stroke-miterlimit="10" points="
		32.465,301.444 31.985,301.444 39.185,282.723 45.425,270.003 45.425,269.523 46.865,269.523 50.946,269.283 55.986,268.803 
		59.346,268.563 61.506,268.323 68.226,267.843 70.626,267.843 72.307,267.603 79.027,267.123 79.987,267.123 80.947,267.123 
		82.867,267.603 85.987,268.563 86.467,268.563 89.107,269.523 89.347,270.483 89.587,271.683 90.067,274.563 90.787,277.683 
		91.027,278.643 91.027,279.123 91.267,279.603 91.267,279.843 91.267,280.083 91.507,280.563 91.507,280.803 91.747,281.523 
		91.747,282.003 91.987,282.483 92.227,282.963 92.227,283.203 92.707,284.163 92.707,284.403 92.947,285.123 93.187,285.363 
		93.667,286.563 93.907,287.043 94.868,289.203 95.108,289.683 94.388,289.923 89.587,291.123 84.787,292.324 84.547,292.564 
		78.547,293.524 76.627,293.764 75.187,294.244 72.547,294.724 71.106,294.724 69.666,294.964 68.946,295.204 64.386,295.924 
		63.666,296.164 57.666,297.124 54.306,297.604 49.506,298.564 45.425,299.284 39.905,300.004 33.185,301.204 	"/>
	
		<polygon data-name="iselin" fill-rule="evenodd" clip-rule="evenodd" fill="#C1C1C1" stroke="#FFFFFF" stroke-miterlimit="10" points="
		86.467,254.883 89.107,269.523 86.467,268.563 85.987,268.563 82.867,267.603 80.947,267.123 79.987,267.123 79.027,267.123 
		72.307,267.603 70.626,267.843 68.226,267.843 61.506,268.323 59.346,268.563 55.986,268.803 52.146,269.043 50.946,269.283 
		46.865,269.523 45.425,269.523 45.185,269.043 32.945,257.043 25.985,248.883 21.184,240.243 18.064,236.162 11.344,231.122 
		4.624,225.842 4.624,225.602 15.424,221.762 19.264,208.322 23.584,195.122 11.824,183.121 13.744,176.641 14.224,176.161 
		16.384,180.961 17.824,183.841 17.824,184.081 18.304,185.041 18.784,185.761 19.264,186.721 19.744,187.441 20.224,188.402 
		20.704,188.882 21.424,189.842 22.864,191.042 23.104,191.522 26.705,194.882 27.425,195.362 27.905,196.082 30.545,199.202 
		33.185,201.842 35.105,203.762 37.745,205.922 40.625,208.562 43.025,210.722 43.505,211.202 46.385,213.842 46.865,214.082 
		47.585,214.802 48.785,215.522 49.746,216.482 52.626,218.402 55.506,220.322 59.106,222.962 67.506,228.962 71.346,231.602 
		74.467,233.522 77.587,235.922 82.387,239.282 83.587,240.243 83.827,241.923 84.547,245.763 85.027,248.163 85.267,249.123 
		85.747,251.043 	"/>
	
		<polygon data-name="st-johann" fill-rule="evenodd" clip-rule="evenodd" fill="#C1C1C1" stroke="#FFFFFF" stroke-miterlimit="10" points="
		73.987,148.321 88.867,154.321 93.667,152.401 103.748,150.961 111.428,153.121 121.269,156.001 121.509,156.721 121.509,157.441 
		121.749,157.441 122.229,160.561 123.189,168.721 123.429,168.961 123.429,169.201 123.429,169.441 123.429,169.681 
		123.429,169.921 123.429,170.161 123.429,170.401 123.429,170.641 123.669,170.881 123.669,171.121 123.669,171.361 
		123.669,171.601 123.669,171.841 123.669,172.081 123.669,172.321 123.669,172.561 123.669,172.801 123.669,173.041 
		123.669,173.281 123.669,173.521 123.669,173.761 123.669,174.001 123.909,174.241 123.909,174.481 123.909,174.721 
		123.909,174.961 123.909,175.201 123.909,175.441 123.909,175.681 123.909,175.921 123.909,176.161 123.909,176.401 
		123.909,176.641 123.909,176.881 123.909,177.121 123.909,177.361 123.909,177.601 123.909,177.841 123.909,178.081 
		123.909,178.321 123.669,178.561 123.669,178.801 123.669,179.041 123.669,179.281 123.669,179.521 123.669,179.761 
		123.669,180.001 123.669,180.241 123.669,180.481 123.669,180.721 123.669,180.961 123.669,181.201 123.669,181.441 
		123.669,181.681 123.429,181.921 123.429,182.161 123.429,182.401 123.429,182.641 123.429,182.881 123.189,186.001 
		122.949,186.241 122.949,186.721 122.709,187.441 122.229,196.322 122.229,203.282 122.469,208.322 120.309,209.522 
		116.468,211.682 115.748,212.402 113.348,213.842 108.308,217.202 107.588,217.442 105.428,219.122 104.948,219.362 
		101.348,222.242 101.108,222.722 100.628,222.962 98.468,225.602 96.068,228.722 93.427,231.842 93.187,232.082 92.707,232.562 
		90.547,234.722 88.387,236.882 85.027,240.243 84.787,240.482 83.587,240.243 82.387,239.282 77.587,235.922 74.467,233.522 
		71.346,231.602 67.506,228.962 59.106,222.962 55.506,220.322 52.626,218.402 49.746,216.482 48.785,215.522 47.585,214.802 
		46.865,214.082 46.385,213.842 43.505,211.202 43.025,210.722 40.625,208.562 37.745,205.922 35.105,203.762 33.185,201.842 
		30.545,199.202 27.905,196.082 27.425,195.362 26.705,194.882 23.104,191.522 22.864,191.042 21.424,189.842 20.704,188.882 
		20.224,188.402 19.744,187.441 19.264,186.721 18.784,185.761 18.304,185.041 17.824,184.081 17.824,183.841 16.384,180.961 
		14.224,176.161 24.544,169.681 36.305,162.001 48.545,153.841 52.866,144.961 56.946,145.681 58.626,145.681 63.666,146.641 	"/>
	
		<polygon data-name="altstadt-kleinbasel" fill-rule="evenodd" clip-rule="evenodd" fill="#C1C1C1" stroke="#FFFFFF" stroke-miterlimit="10" points="
		156.55,230.882 157.75,233.522 159.67,232.562 163.751,230.642 163.991,231.362 165.671,234.722 166.391,235.922 168.311,239.762 
		168.551,240.002 168.791,240.482 169.271,241.203 169.511,241.683 171.911,245.043 172.631,246.003 173.591,247.203 
		176.711,251.283 177.671,252.243 178.391,252.723 182.231,255.363 183.191,256.083 182.951,256.323 182.711,256.563 
		182.711,257.043 182.711,257.283 182.711,257.523 182.951,258.483 181.031,262.083 177.671,268.083 177.191,268.803 
		170.711,265.443 168.551,264.003 162.07,258.963 159.91,256.803 155.35,252.723 152.47,248.643 152.23,248.163 151.99,247.923 
		148.87,243.603 145.99,239.282 143.83,235.442 142.63,233.522 143.59,233.042 149.83,229.922 155.35,227.042 155.35,227.522 
		155.59,227.762 155.59,228.002 155.59,228.482 155.83,228.722 	"/>
	
		<polygon data-name="clara" fill-rule="evenodd" clip-rule="evenodd" fill="#C1C1C1" stroke="#FFFFFF" stroke-miterlimit="10" points="
		185.832,226.562 187.752,230.882 190.152,236.642 190.392,237.362 191.112,238.802 190.872,239.282 190.392,239.522 
		190.152,240.002 189.192,240.963 186.792,243.603 184.631,246.003 184.151,246.483 181.751,248.643 178.391,251.523 
		177.671,252.243 176.711,251.283 173.591,247.203 172.631,246.003 171.911,245.043 169.511,241.683 169.271,241.203 
		168.791,240.482 168.551,240.002 168.311,239.762 166.391,235.922 165.671,234.722 163.991,231.362 163.751,230.642 
		159.67,232.562 157.75,233.522 156.55,230.882 155.83,228.722 155.59,228.482 155.59,228.002 155.59,227.762 155.35,227.522 
		155.35,227.042 155.59,225.842 160.15,223.922 165.911,221.282 166.871,221.042 172.151,218.642 172.391,218.402 172.631,218.402 
		180.551,214.802 181.271,214.562 184.151,221.282 184.391,222.002 184.631,222.482 184.871,223.202 185.111,223.922 
		185.352,224.642 185.592,225.362 185.592,225.842 185.832,225.842 	"/>
	
		<polygon data-name="wettstein" fill-rule="evenodd" clip-rule="evenodd" fill="#C1C1C1" stroke="#FFFFFF" stroke-miterlimit="10" points="
		200.232,270.963 193.512,271.443 185.832,270.963 179.351,269.763 177.671,269.043 177.191,268.803 177.671,268.083 
		181.031,262.083 182.951,258.483 182.711,257.523 182.711,257.283 182.711,257.043 182.711,256.563 182.951,256.323 
		183.191,256.083 182.231,255.363 178.391,252.723 177.671,252.243 178.391,251.523 181.751,248.643 184.151,246.483 
		184.631,246.003 186.792,243.603 189.192,240.963 190.152,240.002 190.392,239.522 190.872,239.282 191.112,238.802 
		191.352,238.802 191.832,238.322 192.552,237.842 195.432,235.682 196.632,234.722 201.672,231.602 205.032,229.442 
		205.512,228.962 206.232,228.482 206.712,228.242 206.952,228.002 207.672,227.282 209.833,225.362 212.233,223.202 
		212.953,222.722 215.593,220.802 217.033,219.602 218.473,218.882 218.953,218.402 219.913,217.922 220.393,217.442 
		220.873,217.202 221.593,216.722 222.793,216.242 223.753,217.442 224.473,217.922 224.953,218.642 225.433,219.602 
		226.393,221.042 227.353,222.482 228.553,224.882 229.993,227.762 232.394,232.082 233.594,234.482 234.074,235.202 
		234.554,235.682 235.034,236.642 235.274,236.642 235.514,236.642 235.514,237.122 236.234,238.322 237.674,240.963 
		239.354,244.323 240.554,246.723 241.754,249.603 241.994,250.083 242.474,251.043 243.194,252.003 243.914,253.203 
		244.634,253.923 244.874,254.403 246.794,259.203 244.394,259.923 240.554,261.123 233.114,263.283 223.033,265.923 
		212.473,269.043 209.833,269.763 205.992,270.243 	"/>
	
		<polygon data-name="hirzbrunnen" fill-rule="evenodd" clip-rule="evenodd" fill="#C1C1C1" stroke="#FFFFFF" stroke-miterlimit="10" points="
		301.277,146.401 297.436,141.841 293.836,137.281 290.956,133.92 288.556,135.36 282.316,140.401 274.875,145.201 268.875,149.281 
		259.035,144.481 251.834,142.561 244.634,141.601 236.714,141.601 229.033,141.601 222.553,142.081 210.553,143.521 
		203.352,144.961 202.872,144.961 202.152,151.441 202.152,152.161 201.912,152.641 201.672,153.121 201.672,153.601 
		201.432,154.081 200.952,154.561 200.712,154.801 200.232,155.281 199.512,155.761 195.432,158.881 195.192,159.121 
		194.472,159.601 193.752,160.321 193.512,161.041 193.272,161.281 193.032,161.521 193.272,161.521 193.272,161.761 
		193.512,162.001 193.992,163.921 193.992,164.161 194.232,164.401 194.232,164.881 194.472,164.881 194.952,165.121 
		195.672,165.121 195.912,165.361 196.152,165.361 197.592,167.761 198.792,169.921 199.272,170.401 199.752,170.641 
		200.472,171.601 201.192,172.801 202.632,175.441 203.112,176.401 203.592,177.601 203.592,178.561 203.592,179.281 
		204.312,180.961 205.752,184.321 206.472,186.001 207.432,188.161 208.393,189.842 209.113,191.282 209.593,192.482 
		209.113,192.722 211.513,197.282 213.193,200.642 215.593,205.202 219.193,211.922 219.673,212.642 221.593,216.722 
		222.793,216.242 223.753,217.442 224.473,217.922 224.953,218.642 225.433,219.602 226.393,221.042 227.353,222.482 
		228.553,224.882 229.993,227.762 232.394,232.082 233.594,234.482 234.074,235.202 234.554,235.682 235.034,236.642 
		235.274,236.642 235.514,236.642 235.514,237.122 236.234,238.322 237.674,240.963 239.354,244.323 240.554,246.723 
		241.754,249.603 241.994,250.083 242.474,251.043 243.194,252.003 243.914,253.203 244.634,253.923 244.874,254.403 
		246.794,259.203 247.034,259.203 256.395,256.083 259.035,255.363 275.355,249.603 294.556,241.443 307.997,236.162 
		325.518,237.602 325.998,236.162 328.878,224.642 330.558,217.922 319.037,203.282 317.597,204.722 315.437,206.162 
		313.277,207.842 310.877,209.522 306.317,212.642 305.357,210.962 295.996,197.762 295.516,197.042 295.036,196.562 
		295.996,195.842 292.876,191.522 289.036,197.042 288.796,197.282 288.556,197.522 288.316,197.522 288.076,197.762 
		287.836,197.762 287.596,197.762 287.356,197.762 287.116,197.762 286.876,197.522 286.636,197.522 286.396,197.282 
		286.156,197.042 283.516,193.202 280.636,186.721 278.476,179.761 278.236,179.041 275.835,170.401 286.396,158.401 	"/>
	
		<polygon data-name="kleinhüningen" fill-rule="evenodd" clip-rule="evenodd" fill="#C1C1C1" stroke="#FFFFFF" stroke-miterlimit="10" points="
		193.752,162.721 191.592,162.961 187.992,163.201 184.631,163.441 181.991,163.441 180.311,162.961 179.111,162.241 
		177.671,161.281 176.711,159.841 175.991,158.161 175.271,155.761 174.551,153.601 172.391,146.881 171.431,144.241 
		170.711,141.361 169.031,137.761 168.311,136.08 166.871,132.96 165.911,130.8 164.951,129.12 163.751,127.2 162.551,125.52 
		161.11,123.6 159.43,122.16 157.51,120.96 155.35,120 150.79,118.8 147.19,117.6 137.109,114.24 137.349,112.8 137.109,112.56 
		137.109,112.32 136.869,112.32 136.869,112.08 136.869,111.84 136.869,111.6 136.869,111.36 136.869,111.12 136.869,110.88 
		136.869,110.64 136.869,110.4 136.869,110.16 136.869,109.92 136.869,109.68 136.869,109.44 136.869,109.2 136.869,108.96 
		136.869,108.72 136.869,108.48 136.869,108.24 136.869,108 137.109,107.76 137.109,107.52 137.109,107.28 137.109,107.04 
		137.109,106.8 137.109,106.56 137.349,106.56 137.349,106.32 137.349,106.08 137.349,105.84 137.589,105.6 137.589,105.36 
		137.589,105.12 139.509,100.08 140.95,96.24 140.95,95.76 142.15,92.16 143.59,88.08 143.59,87.84 143.59,87.6 143.83,87.6 
		143.83,87.36 143.83,87.12 144.07,86.88 144.07,86.64 144.31,86.4 144.31,86.16 144.31,85.92 144.55,85.92 144.55,85.68 
		144.55,85.44 144.79,85.44 151.03,72.479 162.31,76.319 170.711,79.439 183.911,84.239 198.312,93.36 210.073,100.56 
		209.113,113.52 206.952,122.4 208.633,122.64 209.593,123.36 209.833,128.16 212.233,131.28 210.553,143.521 203.352,144.961 
		202.872,144.961 202.152,151.441 202.152,152.161 201.912,152.641 201.672,153.121 201.672,153.601 201.432,154.081 
		200.952,154.561 200.712,154.801 200.232,155.281 199.512,155.761 195.432,158.881 195.192,159.121 194.472,159.601 
		193.752,160.321 193.512,161.041 193.272,161.281 193.032,161.521 193.272,161.521 193.272,161.761 193.512,162.001 	"/>
	
		<polygon data-name="klybeck" fill-rule="evenodd" clip-rule="evenodd" fill="#C1C1C1" stroke="#FFFFFF" stroke-miterlimit="10" points="
		182.231,179.521 181.271,179.281 181.031,179.281 180.791,179.281 180.551,179.281 180.311,179.281 179.831,179.281 
		179.831,179.521 175.991,181.441 172.871,183.361 170.471,184.561 170.471,186.481 170.471,187.201 170.231,187.201 
		169.991,187.201 169.751,187.201 158.71,186.961 154.39,186.961 151.51,186.961 150.07,186.961 143.83,186.961 136.149,186.961 
		134.469,186.961 134.709,186.001 134.949,182.881 135.189,175.441 134.949,167.761 133.749,159.841 133.029,155.761 
		132.789,154.321 132.789,152.161 133.269,151.441 132.789,147.121 132.549,140.161 132.549,135.6 133.029,131.28 133.509,127.2 
		133.989,124.32 134.469,121.68 134.709,120.48 134.949,119.76 135.669,116.64 135.909,115.68 136.149,115.68 136.149,115.44 
		136.389,115.44 136.389,115.2 136.629,115.2 136.869,115.2 137.109,114.24 147.19,117.6 150.79,118.8 155.35,120 157.51,120.96 
		159.43,122.16 161.11,123.6 162.551,125.52 163.751,127.2 164.951,129.12 165.911,130.8 166.871,132.96 168.311,136.08 
		169.031,137.761 170.711,141.361 171.431,144.241 172.391,146.881 174.551,153.601 175.271,155.761 175.991,158.161 
		176.711,159.841 177.671,161.281 179.111,162.241 180.311,162.961 181.991,163.441 183.191,163.441 182.951,164.881 
		182.711,166.801 182.711,167.281 182.711,167.521 182.951,167.761 183.431,168.961 183.671,169.201 183.911,169.441 
		183.911,169.681 183.671,170.161 183.671,170.401 183.431,170.881 183.431,171.121 182.471,178.561 182.471,178.801 
		182.231,179.041 182.231,179.281 	"/>
	
		<polygon data-name="rosental" fill-rule="evenodd" clip-rule="evenodd" fill="#C1C1C1" stroke="#FFFFFF" stroke-miterlimit="10" points="
		193.752,162.721 193.992,163.921 193.992,164.161 194.232,164.401 194.232,164.881 194.472,164.881 194.952,165.121 
		195.672,165.121 195.912,165.361 196.152,165.361 197.592,167.761 198.792,169.921 199.272,170.401 199.752,170.641 
		200.472,171.601 201.192,172.801 202.632,175.441 203.112,176.401 203.592,177.601 203.592,178.561 203.592,179.281 
		204.312,180.961 205.752,184.321 206.472,186.001 207.432,188.161 208.393,189.842 209.113,191.282 209.593,192.482 
		209.113,192.722 211.513,197.282 213.193,200.642 215.593,205.202 219.193,211.922 219.673,212.642 221.593,216.722 
		220.873,217.202 220.393,217.442 219.913,217.922 218.953,218.402 218.473,218.882 217.033,219.602 215.593,220.802 
		212.953,222.722 212.233,223.202 209.833,225.362 207.672,227.282 206.952,228.002 206.712,228.242 206.232,228.482 
		205.512,228.962 205.032,229.442 201.672,231.602 196.632,234.722 195.432,235.682 192.552,237.842 191.832,238.322 
		191.352,238.802 191.112,238.802 190.392,237.362 190.152,236.642 187.752,230.882 185.832,226.562 185.832,225.842 
		185.592,225.842 185.592,225.362 185.352,224.642 185.111,223.922 184.871,223.202 184.631,222.482 184.391,222.002 
		184.151,221.282 181.271,214.562 181.031,214.322 181.031,214.082 180.791,211.442 180.551,207.842 180.551,206.882 
		180.551,202.322 180.551,200.882 180.551,200.162 180.791,194.402 180.791,192.242 180.791,188.641 181.991,180.481 
		181.991,180.241 181.991,180.001 181.991,179.761 182.231,179.521 182.231,179.281 182.231,179.041 182.471,178.801 
		182.471,178.561 183.431,171.121 183.431,170.881 183.671,170.401 183.671,170.161 183.911,169.681 183.911,169.441 
		183.671,169.201 183.431,168.961 182.951,167.761 182.711,167.521 182.711,167.281 182.711,166.801 182.951,164.881 
		183.191,163.441 183.671,163.441 184.631,163.441 187.992,163.201 191.592,162.961 	"/>
	
		<polygon data-name="matthäus" fill-rule="evenodd" clip-rule="evenodd" fill="#C1C1C1" stroke="#FFFFFF" stroke-miterlimit="10" points="
		181.991,180.481 180.791,188.641 180.791,192.242 180.791,194.402 180.551,200.162 180.551,200.882 180.551,202.322 
		180.551,206.882 180.551,207.842 180.791,211.442 181.031,214.082 181.031,214.322 181.271,214.562 180.551,214.802 
		172.631,218.402 172.391,218.402 172.151,218.642 166.871,221.042 165.911,221.282 160.15,223.922 155.59,225.842 155.35,227.042 
		149.83,229.922 143.59,233.042 142.63,233.522 142.15,232.802 139.269,226.802 137.829,222.962 137.109,220.322 136.869,219.842 
		136.869,219.602 135.429,215.282 134.229,208.082 133.749,201.122 133.749,195.602 134.229,190.322 134.469,186.961 
		136.149,186.961 143.83,186.961 150.07,186.961 151.51,186.961 154.39,186.961 158.71,186.961 169.751,187.201 169.991,187.201 
		170.231,187.201 170.471,187.201 170.471,186.481 170.471,184.561 172.871,183.361 175.991,181.441 179.831,179.521 
		179.831,179.281 180.311,179.281 180.551,179.281 180.791,179.281 181.031,179.281 181.271,179.281 182.231,179.521 
		181.991,179.761 181.991,180.001 181.991,180.241 	"/>
	
		<polygon data-name="riehen" fill-rule="evenodd" clip-rule="evenodd" fill="#C1C1C1" stroke="#FFFFFF" stroke-miterlimit="10" points="
		567.208,16.318 571.529,11.518 573.209,7.678 574.649,3.598 572.729,2.878 569.128,6.958 565.768,10.798 560.968,13.198 
		556.408,15.358 550.888,16.798 546.807,16.318 542.247,16.078 537.927,15.838 534.087,16.798 530.487,17.518 527.367,21.118 
		524.486,24.718 520.886,25.438 517.046,30.718 513.446,33.839 510.326,36.719 507.686,39.839 505.046,42.959 502.405,47.039 
		499.765,50.639 498.565,57.119 492.325,57.359 486.325,57.839 475.764,57.599 472.164,57.599 466.404,57.599 455.123,53.279 
		448.643,49.919 447.683,49.439 443.123,47.039 430.402,42.239 420.802,38.639 416.002,36.719 399.441,34.799 391.041,31.678 
		377.36,27.358 372.32,34.799 366.799,39.119 361.519,44.159 361.759,52.079 364.399,56.159 367.52,61.439 367.28,61.439 
		358.879,64.799 352.639,67.439 339.678,79.439 336.318,84.239 333.198,89.28 331.998,91.44 330.078,94.8 324.078,101.28 
		317.837,108.24 311.837,115.2 305.357,122.16 298.876,127.92 292.876,132.72 290.956,133.92 293.836,137.281 297.436,141.841 
		301.277,146.401 286.396,158.401 275.835,170.401 278.236,179.041 280.636,186.721 283.516,193.202 286.156,197.042 
		286.396,197.282 286.636,197.522 286.876,197.522 287.116,197.762 287.356,197.762 287.596,197.762 287.836,197.762 
		288.076,197.762 288.316,197.522 288.556,197.522 288.796,197.282 289.036,197.042 292.876,191.522 295.996,195.842 
		295.036,196.562 295.996,197.762 305.357,210.962 306.317,212.642 310.877,209.522 313.277,207.842 315.437,206.162 
		317.597,204.722 319.037,203.282 330.558,217.922 328.878,224.642 325.998,236.162 325.518,237.602 330.798,238.802 
		330.798,238.562 332.478,239.282 338.718,227.762 341.358,228.962 347.839,231.842 355.039,239.282 359.839,243.843 
		371.36,243.603 379.52,246.963 381.44,248.403 382.88,249.123 388.64,251.763 391.281,250.083 392.961,248.883 397.281,246.003 
		403.041,242.643 406.641,240.482 405.441,238.562 405.921,237.842 407.841,236.402 408.561,235.922 410.961,233.042 
		414.322,228.002 418.402,222.242 422.242,216.482 423.442,212.402 425.842,204.722 430.642,197.522 431.122,195.122 
		432.322,192.722 434.482,189.122 435.443,186.481 436.643,184.081 437.363,182.161 439.043,183.361 440.243,181.921 
		441.443,180.961 444.323,178.561 442.403,175.921 446.483,173.521 442.883,167.041 444.563,165.841 446.243,162.001 
		448.403,159.361 456.803,156.721 458.004,159.841 460.164,159.361 460.404,159.361 460.644,159.361 460.884,159.361 
		461.124,159.361 461.364,159.601 461.604,159.601 461.844,159.601 462.084,159.841 462.324,159.841 462.564,160.081 
		462.804,160.081 464.244,161.521 464.724,162.481 464.484,163.441 469.764,165.361 474.564,166.801 478.164,168.721 
		484.405,168.001 488.725,165.841 491.365,166.081 497.365,166.321 501.205,167.521 502.645,166.801 503.605,166.321 
		504.086,165.361 504.326,165.121 504.566,164.881 504.806,164.641 505.046,164.641 505.286,164.401 505.526,164.161 
		505.766,164.161 506.006,163.921 506.246,163.921 507.686,164.161 508.886,162.721 508.166,158.641 508.166,157.441 
		507.686,156.001 507.446,154.321 507.686,150.961 508.166,147.841 508.646,146.161 508.886,144.001 509.126,141.121 
		510.086,138.481 511.046,136.321 512.246,133.68 512.966,131.28 512.966,128.88 516.086,127.44 521.846,122.88 524.006,123.6 
		523.046,118.56 521.846,113.52 517.766,111.6 513.926,109.92 509.606,108.48 505.766,107.04 501.685,105.6 497.605,104.16 
		491.845,101.28 488.005,99.36 485.845,98.16 484.405,85.68 486.565,83.759 489.925,80.399 495.925,73.919 500.005,69.359 
		503.605,65.279 507.446,60.959 512.006,58.319 516.566,55.439 521.126,49.919 524.006,46.319 526.407,43.199 529.767,37.919 
		533.127,32.639 537.447,28.798 544.887,26.878 549.448,25.678 554.008,24.478 559.768,23.038 563.608,19.678 	"/>
	
		<polygon data-name="bettingen" fill-rule="evenodd" clip-rule="evenodd" fill="#C1C1C1" stroke="#FFFFFF" stroke-miterlimit="10" points="
		533.847,161.521 534.327,156.241 534.327,150.001 530.967,147.841 529.047,146.401 526.407,145.201 526.407,143.521 
		525.927,140.161 524.966,133.68 524.486,128.16 524.006,123.6 521.846,122.88 516.086,127.44 512.966,128.88 512.966,131.28 
		512.246,133.68 511.046,136.321 510.086,138.481 509.126,141.121 508.886,144.001 508.646,146.161 508.166,147.841 
		507.686,150.961 507.446,154.321 507.686,156.001 508.166,157.441 508.166,158.641 508.886,162.721 507.686,164.161 
		507.206,163.921 506.966,163.921 506.246,163.921 506.006,163.921 505.766,164.161 505.526,164.161 505.286,164.401 
		505.046,164.641 504.806,164.641 504.806,164.881 504.566,165.121 504.326,165.361 504.086,165.361 503.605,166.321 
		502.645,166.801 501.205,167.521 497.365,166.321 491.365,166.081 488.725,165.841 484.405,168.001 478.164,168.721 
		474.564,166.801 469.764,165.361 464.484,163.441 464.724,162.481 464.244,161.521 462.804,160.081 462.564,160.081 
		462.324,159.841 462.084,159.841 461.844,159.601 461.604,159.601 461.364,159.601 461.124,159.361 460.884,159.361 
		460.644,159.361 460.404,159.361 460.164,159.361 458.004,159.841 456.803,156.721 448.403,159.361 446.243,162.001 
		444.563,165.841 442.883,167.041 446.483,173.521 442.403,175.921 444.323,178.561 441.443,180.961 440.243,181.921 
		439.043,183.361 437.363,182.161 436.643,184.081 435.443,186.481 434.482,189.122 432.322,192.722 431.122,195.122 
		430.642,197.522 425.842,204.722 423.442,212.402 422.242,216.482 418.402,222.242 414.322,228.002 410.961,233.042 
		408.561,235.922 407.841,236.402 405.921,237.842 405.441,238.562 406.641,240.482 407.121,240.243 410.721,238.562 
		414.322,236.882 418.162,237.122 421.042,237.362 422.002,234.962 423.442,232.322 428.002,227.762 431.602,224.162 
		435.683,223.202 439.763,222.242 446.003,220.562 450.083,219.362 453.923,218.402 459.444,220.562 461.844,220.082 
		467.364,218.882 475.524,216.722 478.644,215.762 480.564,215.762 487.285,218.162 487.285,220.802 487.525,224.162 
		487.765,228.482 492.085,229.202 495.925,230.162 500.725,229.922 503.366,229.442 507.686,228.242 507.686,221.042 
		503.125,219.602 498.805,218.162 500.485,215.762 500.965,215.042 505.286,208.802 509.126,203.762 510.806,199.922 
		512.246,196.562 514.886,193.442 518.966,190.562 522.806,187.682 532.887,182.641 533.847,186.961 533.367,192.722 
		533.127,195.122 532.647,199.922 534.087,200.402 535.527,203.042 536.967,205.922 540.087,211.202 542.967,216.962 
		544.407,212.642 545.607,208.562 546.807,204.242 547.767,200.162 550.888,194.882 553.768,190.562 555.208,188.402 
		556.648,185.041 558.328,181.681 556.888,179.041 555.208,175.441 551.848,174.721 546.567,173.041 541.287,171.601 
		536.247,167.281 533.607,166.561 	"/>
</g>
</svg>
